{
.formatVersion = 3;
axes = (
{
name = Weight;
tag = wght;
}
);
classes = (
{
code = "denozero denione denotwo denothree denofour denofive denosix denoseven denieight denonine";
name = dnom;
},
{
code = "zero one two three four five six seven eight nine";
name = dnom_numr;
},
{
code = "numzero numone numtwo numthree numfour numfive numsix numseven numeight numnine";
name = numr;
},
{
code = "percent zero one two three four five six seven eight nine";
name = onum;
},
{
code = "oneoldstyle zerooldstyle twooldstyle threeoldstyle fouroldstyle fiveoldstyle sixoldstyle sevenoldstyle eightoldstyle nineoldstyle";
name = onum2;
},
{
code = "a b c d e f g h i j k l m n o p q r s t u v w x y z";
name = smcp;
},
{
code = "Asmall Bsmall Csmall Dsmall Esmall Fsmall Gsmall Hsmall Ismall Jsmall Ksmall Lsmall Msmall Nsmall Osmall Psmall Qsmall Rsmall Ssmall Tsmall Usmall Vsmall Wsmall Xsmall Ysmall Zsmall";
name = smcp2;
},
{
code = "parenleft.inferior parenright.inferior zero.inferior one.inferior two.inferior three.inferior four.inferior five.inferior six.inferior seven.inferior eight.inferior nine.inferior";
name = subs;
},
{
code = "parenleft parenright zero one two three four five six seven eight nine";
name = subs_sups;
},
{
code = "parenleft.superior parenright.superior zero.superior onesuperior twosuperior threesuperior four.superior five.superior six.superior seven.superior eight.superior nine.superior";
name = sups;
},
{
code = "zero one two three four five six seven eight nine oneoldstyle zerooldstyle twooldstyle threeoldstyle fouroldstyle fiveoldstyle sixoldstyle sevenoldstyle eightoldstyle nineoldstyle";
name = tnum;
},
{
code = "tabularzero tabularone tabulartwo tabularthree tabularfour tabularfive tabularsix tabularseven tabulareight tabularnine tabularoldzero tabularoldone tabularoldtwo tabularoldthree tabularoldfour tabularoldfive tabularoldsix tabularoldseven tabularoldeight tabularoldnine";
name = tnum2;
}
);
familyName = "Goan Sans";
customParameters = (
{

glyphs = (
{
glyphname = .004;
layers = (
{
layerId = "5B161561-7DB5-4139-A0CA-38E113D4AFAB";
shapes = (
{
closed = 1;
nodes = (
(-40,-164,l),
(120,-164,l),
(138,-73,l),
(134,-2,l),
(143,-8,o),
(160,-12,o),
(175,-12,cs),
(257,-12,o),
(298,26,o),
(324,50,c),
(328,50,l),
(333,0,l),
(450,0,l),
(547,483,l),
(387,483,l),
(319,149,l),
(308,133,o),
(276,109,o),
(233,109,cs),
(198,109,o),
(180,131,o),
(188,172,cs),
(250,483,l),
(90,483,l)
);
}
);
width = 557;
},
{
layerId = "613EF1C7-735E-4737-B49D-EADCFD002D35";
shapes = (
{
closed = 1;
nodes = (
(-37,-163,l),
(108,-163,l),
(126,-73,l),
(124,0,l),
(136,-7,o),
(155,-11,o),
(173,-11,cs),
(252,-11,o),
(296,25,o),
(325,52,c),
(329,52,l),
(333,0,l),
(440,0,l),
(536,480,l),
(391,480,l),
(323,144,l),
(305,123,o),
(270,99,o),
(225,99,cs),
(187,99,o),
(165,122,o),
(175,171,cs),
(237,480,l),
(92,480,l)
);
}
);
width = 549;
},
{
layerId = "06ABBA72-70F7-4001-AF7B-C55F8F698FE5";
shapes = (
{
closed = 1;
nodes = (
(-27,-160,l),
(59,-160,l),
(77,-73,l),
(86,9,l),
(109,-4,o),
(134,-9,o),
(164,-9,cs),
(231,-9,o),
(286,21,o),
(328,59,c),
(332,59,l),
(332,0,l),
(400,0,l),
(494,470,l),
(407,470,l),
(339,125,l),
(294,85,o),
(247,61,o),
(195,61,cs),
(144,61,o),
(109,88,o),
(125,169,cs),
(185,470,l),
(99,470,l)
);
}
);
width = 516;
},
{
layerId = "DC8CD3C6-3F63-4C25-A479-02CA28197BED";
shapes = (
{
closed = 1;
nodes = (
(-27,-160,l),
(24,-160,l),
(47,-43,l),
(57,26,l),
(79,3,o),
(114,-8,o),
(161,-8,cs),
(231,-8,o),
(292,24,o),
(330,59,c),
(332,59,l),
(328,0,l),
(365,0,l),
(458,470,l),
(407,470,l),
(335,105,l),
(302,66,o),
(240,34,o),
(181,34,cs),
(112,34,o),
(68,63,o),
(88,161,cs),
(150,470,l),
(99,470,l)
);
}
);
width = 483;
}
);
},
{
glyphname = .notdef;
layers = (
{
layerId = "5B161561-7DB5-4139-A0CA-38E113D4AFAB";
shapes = (
{
closed = 1;
nodes = (
(-57,0,l),
(463,0,l),
(602,698,l),
(82,698,l)
);
},
{
closed = 1;
nodes = (
(288,431,l),
(200,625,l),
(457,625,l)
);
},
{
closed = 1;
nodes = (
(326,349,l),
(471,519,l),
(404,179,l)
);
},
{
closed = 1;
nodes = (
(90,73,l),
(257,266,l),
(346,73,l)
);
},
{
closed = 1;
nodes = (
(75,179,l),
(142,519,l),
(219,349,l)
);
}
);
width = 519;
},
{
layerId = "613EF1C7-735E-4737-B49D-EADCFD002D35";
shapes = (
{
closed = 1;
nodes = (
(-57,0,l),
(457,0,l),
(596,698,l),
(82,698,l)
);
},
{
closed = 1;
nodes = (
(284,424,l),
(190,630,l),
(462,630,l)
);
},
{
closed = 1;
nodes = (
(318,349,l),
(478,536,l),
(404,162,l)
);
},
{
closed = 1;
nodes = (
(78,68,l),
(255,274,l),
(350,68,l)
);
},
{
closed = 1;
nodes = (
(62,162,l),
(136,536,l),
(221,349,l)
);
}
);
width = 513;
},
{
layerId = "06ABBA72-70F7-4001-AF7B-C55F8F698FE5";
shapes = (
{
closed = 1;
nodes = (
(-57,0,l),
(433,0,l),
(573,700,l),
(83,700,l)
);
},
{
closed = 1;
nodes = (
(267,395,l),
(151,650,l),
(484,650,l)
);
},
{
closed = 1;
nodes = (
(287,350,l),
(505,605,l),
(403,95,l)
);
},
{
closed = 1;
nodes = (
(31,50,l),
(249,305,l),
(365,50,l)
);
},
{
closed = 1;
nodes = (
(11,95,l),
(113,605,l),
(229,350,l)
);
}
);
width = 490;
},
{
layerId = "DC8CD3C6-3F63-4C25-A479-02CA28197BED";
shapes = (
{
closed = 1;
nodes = (
(-57,0,l),
(413,0,l),
(553,700,l),
(83,700,l)
);
},
{
closed = 1;
nodes = (
(255,385,l),
(134,660,l),
(486,660,l)
);
},
{
closed = 1;
nodes = (
(273,350,l),
(497,615,l),
(391,85,l)
);
},
{
closed = 1;
nodes = (
(10,40,l),
(241,315,l),
(363,40,l)
);
},
{
closed = 1;
nodes = (
(-1,85,l),
(105,615,l),
(224,350,l)
);
}
);
width = 470;
}
);
},
{
glyphname = A;
layers = (
{
layerId = "5B161561-7DB5-4139-A0CA-38E113D4AFAB";
shapes = (
{
closed = 1;
nodes = (
(-39,0,l),
(132,0,l),
(193,125,l),
(389,125,l),
(400,0,l),
(574,0,l),
(484,630,l),
(305,630,l)
);
},
{
closed = 1;
nodes = (
(252,244,l),
(284,312,ls),
(308,362,o),
(339,423,o),
(359,466,c),
(361,466,l),
(362,421,o),
(367,359,o),
(372,312,c),
(377,244,l)
);
}
);
width = 651;
},
{
layerId = "613EF1C7-735E-4737-B49D-EADCFD002D35";
shapes = (
{
closed = 1;
nodes = (
(-42,0,l),
(113,0,l),
(182,135,l),
(390,135,l),
(405,0,l),
(563,0,l),
(467,630,l),
(308,630,l)
);
},
{
closed = 1;
nodes = (
(237,245,l),
(276,321,ls),
(302,373,o),
(332,431,o),
(354,477,c),
(356,477,l),
(358,430,o),
(364,370,o),
(370,321,cs),
(378,245,l)
);
}
);
width = 636;
},
{
layerId = "06ABBA72-70F7-4001-AF7B-C55F8F698FE5";
shapes = (
{
closed = 1;
nodes = (
(-55,0,l),
(38,0,l),
(140,175,l),
(393,175,l),
(426,0,l),
(520,0,l),
(400,630,l),
(320,630,l)
);
},
{
closed = 1;
nodes = (
(179,248,l),
(243,357,ls),
(277,416,o),
(305,466,o),
(335,522,c),
(337,522,l),
(344,466,o),
(352,414,o),
(362,357,cs),
(381,248,l)
);
}
);
width = 577;
},
{
layerId = "DC8CD3C6-3F63-4C25-A479-02CA28197BED";
shapes = (
{
closed = 1;
nodes = (
(-33,0,l),
(21,0,l),
(125,186,l),
(402,186,l),
(432,0,l),
(487,0,l),
(380,630,l),
(329,630,l)
);
},
{
closed = 1;
nodes = (
(149,228,l),
(272,444,ls),
(286,468,o),
(319,529,o),
(343,578,c),
(345,578,l),
(348,529,o),
(356,460,o),
(359,444,cs),
(393,228,l)
);
}
);
width = 567;
}
);
leftKerningGroup = public.kern2._A;
rightKerningGroup = public.kern1._A;
unicode = 65;
},
{
glyphname = AE;
layers = (
{
layerId = "5B161561-7DB5-4139-A0CA-38E113D4AFAB";
shapes = (
{
closed = 1;
nodes = (
(-39,0,l),
(141,0,l),
(230,131,l),
(387,131,l),
(361,0,l),
(756,0,l),
(781,126,l),
(552,126,l),
(579,265,l),
(780,265,l),
(805,390,l),
(604,390,l),
(627,504,l),
(852,504,l),
(879,630,l),
(392,630,l)
);
},
{
closed = 1;
nodes = (
(307,258,l),
(464,512,l),
(413,258,l)
);
}
);
width = 840;
},
{
layerId = "613EF1C7-735E-4737-B49D-EADCFD002D35";
shapes = (
{
closed = 1;
nodes = (
(-42,0,l),
(123,0,l),
(218,140,l),
(381,140,l),
(353,0,l),
(739,0,l),
(762,116,l),
(526,116,l),
(556,270,l),
(764,270,l),
(787,385,l),
(579,385,l),
(605,514,l),
(838,514,l),
(862,630,l),
(391,630,l)
);
},
{
closed = 1;
nodes = (
(288,255,l),
(458,522,l),
(404,255,l)
);
}
);
width = 826;
},
{
layerId = "06ABBA72-70F7-4001-AF7B-C55F8F698FE5";
shapes = (
{
closed = 1;
nodes = (
(-55,0,l),
(52,0,l),
(170,175,l),
(356,175,l),
(321,0,l),
(673,0,l),
(688,76,l),
(423,76,l),
(465,290,l),
(702,290,l),
(717,365,l),
(480,365,l),
(518,554,l),
(781,554,l),
(796,630,l),
(388,630,l)
);
},
{
closed = 1;
nodes = (
(214,245,l),
(433,561,l),
(370,245,l)
);
}
);
width = 769;
},
{
layerId = "DC8CD3C6-3F63-4C25-A479-02CA28197BED";
shapes = (
{
closed = 1;
nodes = (
(-42,0,l),
(11,0,l),
(145,193,l),
(343,193,l),
(304,0,l),
(650,0,l),
(659,42,l),
(364,42,l),
(416,303,l),
(683,303,l),
(691,345,l),
(424,345,l),
(473,588,l),
(765,588,l),
(773,630,l),
(401,630,l)
);
},
{
closed = 1;
nodes = (
(174,235,l),
(423,593,l),
(351,235,l)
);
}
);
width = 747;
}
);
leftKerningGroup = public.kern2._AE;
rightKerningGroup = public.kern1._AE;
unicode = 198;
},
{
glyphname = AEacute;
layers = (
{
layerId = "5B161561-7DB5-4139-A0CA-38E113D4AFAB";
shapes = (
{
closed = 1;
nodes = (
(-39,0,l),
(141,0,l),
(230,131,l),
(387,131,l),
(361,0,l),
(756,0,l),
(781,126,l),
(552,126,l),
(579,265,l),
(780,265,l),
(805,390,l),
(604,390,l),
(627,504,l),
(852,504,l),
(879,630,l),
(392,630,l)
);
},
{
closed = 1;
nodes = (
(307,258,l),
(464,512,l),
(413,258,l)
);
},
{
closed = 1;
nodes = (
(419,685,l),
(550,685,l),
(691,809,l),
(522,809,l)
);
}
);
width = 840;
},
{
layerId = "613EF1C7-735E-4737-B49D-EADCFD002D35";
shapes = (
{
closed = 1;
nodes = (
(-42,0,l),
(123,0,l),
(218,140,l),
(381,140,l),
(353,0,l),
(739,0,l),
(762,116,l),
(526,116,l),
(556,270,l),
(764,270,l),
(787,385,l),
(579,385,l),
(605,514,l),
(838,514,l),
(862,630,l),
(391,630,l)
);
},
{
closed = 1;
nodes = (
(288,255,l),
(458,522,l),
(404,255,l)
);
},
{
closed = 1;
nodes = (
(423,690,l),
(542,690,l),
(681,814,l),
(526,814,l)
);
}
);
width = 826;
},
{
layerId = "06ABBA72-70F7-4001-AF7B-C55F8F698FE5";
shapes = (
{
closed = 1;
nodes = (
(-55,0,l),
(52,0,l),
(170,175,l),
(356,175,l),
(321,0,l),
(673,0,l),
(688,76,l),
(423,76,l),
(465,290,l),
(702,290,l),
(717,365,l),
(480,365,l),
(518,554,l),
(781,554,l),
(796,630,l),
(388,630,l)
);
},
{
closed = 1;
nodes = (
(214,245,l),
(433,561,l),
(370,245,l)
);
},
{
closed = 1;
nodes = (
(439,710,l),
(509,710,l),
(643,834,l),
(542,834,l)
);
}
);
width = 769;
},
{
layerId = "DC8CD3C6-3F63-4C25-A479-02CA28197BED";
shapes = (
{
closed = 1;
nodes = (
(-42,0,l),
(11,0,l),
(145,193,l),
(343,193,l),
(304,0,l),
(650,0,l),
(659,42,l),
(364,42,l),
(416,303,l),
(683,303,l),
(691,345,l),
(424,345,l),
(473,588,l),
(765,588,l),
(773,630,l),
(401,630,l)
);
},
{
closed = 1;
nodes = (
(174,235,l),
(423,593,l),
(351,235,l)
);
},
{
closed = 1;
nodes = (
(426,710,l),
(467,710,l),
(600,834,l),
(539,834,l)
);
}
);
width = 747;
}
);
leftKerningGroup = public.kern2._AE;
rightKerningGroup = public.kern1._AE;
unicode = 508;
},
{
glyphname = Aacute;
layers = (
{
layerId = "5B161561-7DB5-4139-A0CA-38E113D4AFAB";
shapes = (
{
closed = 1;
nodes = (
(340,685,l),
(473,685,l),
(612,809,l),
(444,809,l)
);
},
{
closed = 1;
nodes = (
(-39,0,l),
(132,0,l),
(193,125,l),
(389,125,l),
(400,0,l),
(574,0,l),
(484,630,l),
(305,630,l)
);
},
{
closed = 1;
nodes = (
(252,244,l),
(284,312,ls),
(308,362,o),
(339,423,o),
(359,466,c),
(361,466,l),
(362,421,o),
(367,359,o),
(372,312,c),
(377,244,l)
);
}
);
width = 651;
},
{
layerId = "613EF1C7-735E-4737-B49D-EADCFD002D35";
shapes = (
{
closed = 1;
nodes = (
(339,690,l),
(459,690,l),
(597,814,l),
(443,814,l)
);
},
{
closed = 1;
nodes = (
(-42,0,l),
(113,0,l),
(182,135,l),
(390,135,l),
(405,0,l),
(563,0,l),
(467,630,l),
(308,630,l)
);
},
{
closed = 1;
nodes = (
(237,245,l),
(276,321,ls),
(302,373,o),
(332,431,o),
(354,477,c),
(356,477,l),
(358,430,o),
(364,370,o),
(370,321,cs),
(378,245,l)
);
}
);
width = 636;
},
{
layerId = "06ABBA72-70F7-4001-AF7B-C55F8F698FE5";
shapes = (
{
closed = 1;
nodes = (
(335,710,l),
(405,710,l),
(539,834,l),
(438,834,l)
);
},
{
closed = 1;
nodes = (
(-55,0,l),
(38,0,l),
(140,175,l),
(393,175,l),
(426,0,l),
(520,0,l),
(400,630,l),
(320,630,l)
);
},
{
closed = 1;
nodes = (
(179,248,l),
(243,357,ls),
(277,416,o),
(305,466,o),
(335,522,c),
(337,522,l),
(344,466,o),
(352,414,o),
(362,357,cs),
(381,248,l)
);
}
);
width = 577;
},
{
layerId = "DC8CD3C6-3F63-4C25-A479-02CA28197BED";
shapes = (
{
closed = 1;
nodes = (
(347,710,l),
(388,710,l),
(521,834,l),
(460,834,l)
);
},
{
closed = 1;
nodes = (
(-33,0,l),
(21,0,l),
(125,186,l),
(402,186,l),
(432,0,l),
(487,0,l),
(380,630,l),
(329,630,l)
);
},
{
closed = 1;
nodes = (
(149,228,l),
(272,444,ls),
(286,468,o),
(319,529,o),
(343,578,c),
(345,578,l),
(348,529,o),
(356,460,o),
(359,444,c),
(393,228,l)
);
}
);
width = 567;
}
);
leftKerningGroup = public.kern2._A;
rightKerningGroup = public.kern1._A;
unicode = 193;
},
{
glyphname = Abreve;
layers = (
{
layerId = "5B161561-7DB5-4139-A0CA-38E113D4AFAB";
shapes = (
{
closed = 1;
nodes = (
(295,809,l),
(281,737,o),
(307,679,o),
(400,679,cs),
(484,679,o),
(542,726,o),
(558,809,c),
(473,809,l),
(467,779,o),
(447,764,o),
(419,764,cs),
(389,764,o),
(376,782,o),
(381,809,c)
);
},
{
closed = 1;
nodes = (
(-39,0,l),
(132,0,l),
(193,125,l),
(389,125,l),
(400,0,l),
(574,0,l),
(484,630,l),
(305,630,l)
);
},
{
closed = 1;
nodes = (
(252,244,l),
(284,312,ls),
(308,362,o),
(339,423,o),
(359,466,c),
(361,466,l),
(362,421,o),
(367,359,o),
(372,312,c),
(377,244,l)
);
}
);
width = 651;
},
{
layerId = "613EF1C7-735E-4737-B49D-EADCFD002D35";
shapes = (
{
closed = 1;
nodes = (
(289,814,l),
(275,744,o),
(302,685,o),
(395,685,cs),
(479,685,o),
(536,733,o),
(552,814,c),
(472,814,l),
(464,781,o),
(443,764,o),
(412,764,cs),
(377,764,o),
(365,784,o),
(370,814,c)
);
},
{
closed = 1;
nodes = (
(-42,0,l),
(113,0,l),
(182,135,l),
(390,135,l),
(405,0,l),
(563,0,l),
(467,630,l),
(308,630,l)
);
},
{
closed = 1;
nodes = (
(237,245,l),
(276,321,ls),
(302,373,o),
(332,431,o),
(354,477,c),
(356,477,l),
(358,430,o),
(364,370,o),
(370,321,cs),
(378,245,l)
);
}
);
width = 636;
},
{
layerId = "06ABBA72-70F7-4001-AF7B-C55F8F698FE5";
shapes = (
{
closed = 1;
nodes = (
(266,834,l),
(254,772,o),
(281,710,o),
(374,710,cs),
(458,710,o),
(516,762,o),
(530,834,c),
(469,834,l),
(455,789,o),
(430,764,o),
(385,764,cs),
(332,764,o),
(324,791,o),
(328,834,c)
);
},
{
closed = 1;
nodes = (
(-55,0,l),
(38,0,l),
(140,175,l),
(393,175,l),
(426,0,l),
(520,0,l),
(400,630,l),
(320,630,l)
);
},
{
closed = 1;
nodes = (
(179,248,l),
(243,357,ls),
(277,416,o),
(305,466,o),
(335,522,c),
(337,522,l),
(344,466,o),
(352,414,o),
(362,357,cs),
(381,248,l)
);
}
);
width = 577;
},
{
layerId = "DC8CD3C6-3F63-4C25-A479-02CA28197BED";
shapes = (
{
closed = 1;
nodes = (
(263,834,l),
(250,769,o),
(278,710,o),
(371,710,cs),
(455,710,o),
(512,762,o),
(526,834,c),
(479,834,l),
(467,781,o),
(430,750,o),
(379,750,cs),
(318,750,o),
(301,784,o),
(310,834,c)
);
},
{
closed = 1;
nodes = (
(-33,0,l),
(21,0,l),
(125,186,l),
(402,186,l),
(432,0,l),
(487,0,l),
(380,630,l),
(329,630,l)
);
},
{
closed = 1;
nodes = (
(149,228,l),
(272,444,ls),
(286,468,o),
(319,529,o),
(343,578,c),
(345,578,l),
(348,529,o),
(356,460,o),
(359,444,c),
(393,228,l)
);
}
);
width = 567;
}
);
leftKerningGroup = public.kern2._A;
rightKerningGroup = public.kern1._A;
unicode = 258;
},
{
glyphname = Acircumflex;
layers = (
{
layerId = "5B161561-7DB5-4139-A0CA-38E113D4AFAB";
shapes = (
{
closed = 1;
nodes = (
(237,685,l),
(348,685,l),
(414,744,l),
(456,685,l),
(571,685,l),
(485,807,l),
(368,807,l)
);
},
{
closed = 1;
nodes = (
(-39,0,l),
(132,0,l),
(193,125,l),
(389,125,l),
(400,0,l),
(574,0,l),
(484,630,l),
(305,630,l)
);
},
{
closed = 1;
nodes = (
(252,244,l),
(284,312,ls),
(308,362,o),
(339,423,o),
(359,466,c),
(361,466,l),
(362,421,o),
(367,359,o),
(372,312,c),
(377,244,l)
);
}
);
width = 651;
},
{
layerId = "613EF1C7-735E-4737-B49D-EADCFD002D35";
shapes = (
{
closed = 1;
nodes = (
(234,690,l),
(337,690,l),
(409,754,l),
(455,690,l),
(563,690,l),
(475,814,l),
(368,814,l)
);
},
{
closed = 1;
nodes = (
(-42,0,l),
(113,0,l),
(182,135,l),
(390,135,l),
(405,0,l),
(563,0,l),
(467,630,l),
(308,630,l)
);
},
{
closed = 1;
nodes = (
(237,245,l),
(276,321,ls),
(302,373,o),
(332,431,o),
(354,477,c),
(356,477,l),
(358,430,o),
(364,370,o),
(370,321,cs),
(378,245,l)
);
}
);
width = 636;
},
{
layerId = "06ABBA72-70F7-4001-AF7B-C55F8F698FE5";
shapes = (
{
closed = 1;
nodes = (
(221,710,l),
(295,710,l),
(391,794,l),
(452,710,l),
(531,710,l),
(435,844,l),
(367,844,l)
);
},
{
closed = 1;
nodes = (
(-55,0,l),
(38,0,l),
(140,175,l),
(393,175,l),
(426,0,l),
(520,0,l),
(400,630,l),
(320,630,l)
);
},
{
closed = 1;
nodes = (
(179,248,l),
(243,357,ls),
(277,416,o),
(305,466,o),
(335,522,c),
(337,522,l),
(344,466,o),
(352,414,o),
(362,357,cs),
(381,248,l)
);
}
);
width = 577;
},
{
layerId = "DC8CD3C6-3F63-4C25-A479-02CA28197BED";
shapes = (
{
closed = 1;
nodes = (
(228,710,l),
(283,710,l),
(391,809,l),
(459,710,l),
(518,710,l),
(422,844,l),
(374,844,l)
);
},
{
closed = 1;
nodes = (
(-33,0,l),
(21,0,l),
(125,186,l),
(402,186,l),
(432,0,l),
(487,0,l),
(380,630,l),
(329,630,l)
);
},
{
closed = 1;
nodes = (
(149,228,l),
(272,444,ls),
(286,468,o),
(319,529,o),
(343,578,c),
(345,578,l),
(348,529,o),
(356,460,o),
(359,444,c),
(393,228,l)
);
}
);
width = 567;
}
);
leftKerningGroup = public.kern2._A;
rightKerningGroup = public.kern1._A;
unicode = 194;
},
{
glyphname = Acute;
layers = (
{
layerId = "5B161561-7DB5-4139-A0CA-38E113D4AFAB";
shapes = (
{
closed = 1;
nodes = (
(95,685,l),
(228,685,l),
(367,809,l),
(198,809,l)
);
}
);
width = 230;
},
{
layerId = "613EF1C7-735E-4737-B49D-EADCFD002D35";
shapes = (
{
closed = 1;
nodes = (
(99,690,l),
(219,690,l),
(357,814,l),
(202,814,l)
);
}
);
width = 229;
},
{
layerId = "06ABBA72-70F7-4001-AF7B-C55F8F698FE5";
shapes = (
{
closed = 1;
nodes = (
(114,710,l),
(185,710,l),
(318,834,l),
(217,834,l)
);
}
);
width = 225;
},
{
layerId = "DC8CD3C6-3F63-4C25-A479-02CA28197BED";
shapes = (
{
closed = 1;
nodes = (
(103,710,l),
(144,710,l),
(278,834,l),
(216,834,l)
);
}
);
width = 192;
}
);
},
{
glyphname = Adieresis;
layers = (
{
layerId = "5B161561-7DB5-4139-A0CA-38E113D4AFAB";
shapes = (
{
closed = 1;
nodes = (
(230,703,o),
(256,671,o),
(296,671,cs),
(336,671,o),
(372,703,o),
(381,745,cs),
(389,785,o),
(365,815,o),
(325,815,cs),
(285,815,o),
(247,785,o),
(239,745,cs)
);
},
{
closed = 1;
nodes = (
(441,703,o),
(466,671,o),
(506,671,cs),
(546,671,o),
(581,703,o),
(590,745,cs),
(598,785,o),
(575,815,o),
(535,815,cs),
(495,815,o),
(458,785,o),
(450,745,cs)
);
},
{
closed = 1;
nodes = (
(-39,0,l),
(132,0,l),
(193,125,l),
(389,125,l),
(400,0,l),
(574,0,l),
(484,630,l),
(305,630,l)
);
},
{
closed = 1;
nodes = (
(252,244,l),
(284,312,ls),
(308,362,o),
(339,423,o),
(359,466,c),
(361,466,l),
(362,421,o),
(367,359,o),
(372,312,c),
(377,244,l)
);
}
);
width = 651;
},
{
layerId = "613EF1C7-735E-4737-B49D-EADCFD002D35";
shapes = (
{
closed = 1;
nodes = (
(234,709,o),
(258,679,o),
(295,679,cs),
(332,679,o),
(367,709,o),
(375,748,cs),
(382,785,o),
(359,814,o),
(322,814,cs),
(285,814,o),
(249,785,o),
(242,748,cs)
);
},
{
closed = 1;
nodes = (
(435,709,o),
(459,679,o),
(496,679,cs),
(533,679,o),
(567,709,o),
(575,748,cs),
(582,785,o),
(560,814,o),
(523,814,cs),
(486,814,o),
(450,785,o),
(443,748,cs)
);
},
{
closed = 1;
nodes = (
(-42,0,l),
(113,0,l),
(182,135,l),
(390,135,l),
(405,0,l),
(563,0,l),
(467,630,l),
(308,630,l)
);
},
{
closed = 1;
nodes = (
(237,245,l),
(276,321,ls),
(302,373,o),
(332,431,o),
(354,477,c),
(356,477,l),
(358,430,o),
(364,370,o),
(370,321,cs),
(378,245,l)
);
}
);
width = 636;
},
{
layerId = "06ABBA72-70F7-4001-AF7B-C55F8F698FE5";
shapes = (
{
closed = 1;
nodes = (
(249,734,o),
(266,710,o),
(292,710,cs),
(318,710,o),
(347,734,o),
(352,761,cs),
(357,786,o),
(338,810,o),
(312,810,cs),
(286,810,o),
(259,786,o),
(254,761,cs)
);
},
{
closed = 1;
nodes = (
(411,734,o),
(429,710,o),
(455,710,cs),
(481,710,o),
(509,734,o),
(514,761,cs),
(519,786,o),
(501,810,o),
(475,810,cs),
(449,810,o),
(421,786,o),
(416,761,cs)
);
},
{
closed = 1;
nodes = (
(-55,0,l),
(38,0,l),
(140,175,l),
(393,175,l),
(426,0,l),
(520,0,l),
(400,630,l),
(320,630,l)
);
},
{
closed = 1;
nodes = (
(179,248,l),
(243,357,ls),
(277,416,o),
(305,466,o),
(335,522,c),
(337,522,l),
(344,466,o),
(352,414,o),
(362,357,cs),
(381,248,l)
);
}
);
width = 577;
},
{
layerId = "DC8CD3C6-3F63-4C25-A479-02CA28197BED";
shapes = (
{
closed = 1;
nodes = (
(254,738,o),
(267,722,o),
(290,722,cs),
(312,722,o),
(332,738,o),
(338,766,cs),
(343,792,o),
(330,810,o),
(308,810,cs),
(285,810,o),
(265,792,o),
(260,766,cs)
);
},
{
closed = 1;
nodes = (
(420,738,o),
(434,722,o),
(457,722,cs),
(479,722,o),
(499,738,o),
(505,766,cs),
(510,792,o),
(496,810,o),
(474,810,cs),
(451,810,o),
(431,792,o),
(426,766,cs)
);
},
{
closed = 1;
nodes = (
(-33,0,l),
(21,0,l),
(125,186,l),
(402,186,l),
(432,0,l),
(487,0,l),
(380,630,l),
(329,630,l)
);
},
{
closed = 1;
nodes = (
(149,228,l),
(272,444,ls),
(286,468,o),
(319,529,o),
(343,578,c),
(345,578,l),
(348,529,o),
(356,460,o),
(359,444,c),
(393,228,l)
);
}
);
width = 567;
}
);
leftKerningGroup = public.kern2._A;
rightKerningGroup = public.kern1._A;
unicode = 196;
},
{
glyphname = Agrave;
layers = (
{
layerId = "5B161561-7DB5-4139-A0CA-38E113D4AFAB";
shapes = (
{
closed = 1;
nodes = (
(250,809,l),
(339,685,l),
(472,685,l),
(418,809,l)
);
},
{
closed = 1;
nodes = (
(-39,0,l),
(132,0,l),
(193,125,l),
(389,125,l),
(400,0,l),
(574,0,l),
(484,630,l),
(305,630,l)
);
},
{
closed = 1;
nodes = (
(252,244,l),
(284,312,ls),
(308,362,o),
(339,423,o),
(359,466,c),
(361,466,l),
(362,421,o),
(367,359,o),
(372,312,c),
(377,244,l)
);
}
);
width = 651;
},
{
layerId = "613EF1C7-735E-4737-B49D-EADCFD002D35";
shapes = (
{
closed = 1;
nodes = (
(252,814,l),
(340,690,l),
(460,690,l),
(406,814,l)
);
},
{
closed = 1;
nodes = (
(-42,0,l),
(113,0,l),
(182,135,l),
(390,135,l),
(405,0,l),
(563,0,l),
(467,630,l),
(308,630,l)
);
},
{
closed = 1;
nodes = (
(237,245,l),
(276,321,ls),
(302,373,o),
(332,431,o),
(354,477,c),
(356,477,l),
(358,430,o),
(364,370,o),
(370,321,cs),
(378,245,l)
);
}
);
width = 636;
},
{
layerId = "06ABBA72-70F7-4001-AF7B-C55F8F698FE5";
shapes = (
{
closed = 1;
nodes = (
(259,834,l),
(343,710,l),
(414,710,l),
(360,834,l)
);
},
{
closed = 1;
nodes = (
(-55,0,l),
(38,0,l),
(140,175,l),
(393,175,l),
(426,0,l),
(520,0,l),
(400,630,l),
(320,630,l)
);
},
{
closed = 1;
nodes = (
(179,248,l),
(243,357,ls),
(277,416,o),
(305,466,o),
(335,522,c),
(337,522,l),
(344,466,o),
(352,414,o),
(362,357,cs),
(381,248,l)
);
}
);
width = 577;
},
{
layerId = "DC8CD3C6-3F63-4C25-A479-02CA28197BED";
shapes = (
{
closed = 1;
nodes = (
(275,834,l),
(359,710,l),
(401,710,l),
(337,834,l)
);
},
{
closed = 1;
nodes = (
(-33,0,l),
(21,0,l),
(125,186,l),
(402,186,l),
(432,0,l),
(487,0,l),
(380,630,l),
(329,630,l)
);
},
{
closed = 1;
nodes = (
(149,228,l),
(272,444,ls),
(286,468,o),
(319,529,o),
(343,578,c),
(345,578,l),
(348,529,o),
(356,460,o),
(359,444,c),
(393,228,l)
);
}
);
width = 567;
}
);
leftKerningGroup = public.kern2._A;
rightKerningGroup = public.kern1._A;
unicode = 192;
},
{
glyphname = Amacron;
layers = (
{
layerId = "5B161561-7DB5-4139-A0CA-38E113D4AFAB";
shapes = (
{
closed = 1;
nodes = (
(275,685,l),
(533,685,l),
(550,772,l),
(291,772,l)
);
},
{
closed = 1;
nodes = (
(-39,0,l),
(132,0,l),
(193,125,l),
(389,125,l),
(400,0,l),
(574,0,l),
(484,630,l),
(305,630,l)
);
},
{
closed = 1;
nodes = (
(252,244,l),
(284,312,ls),
(308,362,o),
(339,423,o),
(359,466,c),
(361,466,l),
(362,421,o),
(367,359,o),
(372,312,c),
(377,244,l)
);
}
);
width = 651;
},
{
layerId = "613EF1C7-735E-4737-B49D-EADCFD002D35";
shapes = (
{
closed = 1;
nodes = (
(270,690,l),
(525,690,l),
(541,772,l),
(286,772,l)
);
},
{
closed = 1;
nodes = (
(-42,0,l),
(113,0,l),
(182,135,l),
(390,135,l),
(405,0,l),
(563,0,l),
(467,630,l),
(308,630,l)
);
},
{
closed = 1;
nodes = (
(237,245,l),
(276,321,ls),
(302,373,o),
(332,431,o),
(354,477,c),
(356,477,l),
(358,430,o),
(364,370,o),
(370,321,cs),
(378,245,l)
);
}
);
width = 636;
},
{
layerId = "06ABBA72-70F7-4001-AF7B-C55F8F698FE5";
shapes = (
{
closed = 1;
nodes = (
(252,710,l),
(492,710,l),
(505,772,l),
(265,772,l)
);
},
{
closed = 1;
nodes = (
(-55,0,l),
(38,0,l),
(140,175,l),
(393,175,l),
(426,0,l),
(520,0,l),
(400,630,l),
(320,630,l)
);
},
{
closed = 1;
nodes = (
(179,248,l),
(243,357,ls),
(277,416,o),
(305,466,o),
(335,522,c),
(337,522,l),
(344,466,o),
(352,414,o),
(362,357,cs),
(381,248,l)
);
}
);
width = 577;
},
{
layerId = "DC8CD3C6-3F63-4C25-A479-02CA28197BED";
shapes = (
{
closed = 1;
nodes = (
(256,730,l),
(496,730,l),
(504,772,l),
(264,772,l)
);
},
{
closed = 1;
nodes = (
(-33,0,l),
(21,0,l),
(125,186,l),
(402,186,l),
(432,0,l),
(487,0,l),
(380,630,l),
(329,630,l)
);
},
{
closed = 1;
nodes = (
(149,228,l),
(272,444,ls),
(286,468,o),
(319,529,o),
(343,578,c),
(345,578,l),
(348,529,o),
(356,460,o),
(359,444,c),
(393,228,l)
);
}
);
width = 567;
}
);
leftKerningGroup = public.kern2._A;
rightKerningGroup = public.kern1._A;
unicode = 256;
},
{
glyphname = Aogonek;
layers = (
{
layerId = "5B161561-7DB5-4139-A0CA-38E113D4AFAB";
shapes = (
{
closed = 1;
nodes = (
(-39,0,l),
(132,0,l),
(193,125,l),
(389,125,l),
(400,0,l),
(385,-24,o),
(361,-52,o),
(351,-103,cs),
(339,-165,o),
(376,-206,o),
(436,-206,cs),
(470,-206,o),
(505,-197,o),
(527,-184,c),
(522,-101,l),
(511,-105,o),
(502,-109,o),
(485,-109,cs),
(462,-109,o),
(452,-93,o),
(456,-70,cs),
(461,-45,o),
(480,-22,o),
(494,0,c),
(574,0,l),
(484,630,l),
(305,630,l)
);
},
{
closed = 1;
nodes = (
(252,244,l),
(284,312,ls),
(308,362,o),
(339,423,o),
(359,466,c),
(361,466,l),
(362,421,o),
(367,359,o),
(372,312,c),
(377,244,l)
);
}
);
width = 651;
},
{
layerId = "613EF1C7-735E-4737-B49D-EADCFD002D35";
shapes = (
{
closed = 1;
nodes = (
(-42,0,l),
(113,0,l),
(182,135,l),
(390,135,l),
(405,0,l),
(384,-23,o),
(356,-53,o),
(346,-104,cs),
(334,-166,o),
(371,-206,o),
(431,-206,cs),
(464,-206,o),
(498,-197,o),
(521,-184,c),
(516,-108,l),
(504,-112,o),
(493,-116,o),
(476,-116,cs),
(451,-116,o),
(439,-100,o),
(444,-75,cs),
(449,-48,o),
(472,-23,o),
(499,0,c),
(563,0,l),
(467,630,l),
(308,630,l)
);
},
{
closed = 1;
nodes = (
(237,245,l),
(276,321,ls),
(302,373,o),
(332,431,o),
(354,477,c),
(356,477,l),
(358,430,o),
(364,370,o),
(370,321,cs),
(378,245,l)
);
}
);
width = 636;
},
{
layerId = "06ABBA72-70F7-4001-AF7B-C55F8F698FE5";
shapes = (
{
closed = 1;
nodes = (
(-55,0,l),
(38,0,l),
(140,175,l),
(393,175,l),
(426,0,l),
(380,-21,o),
(338,-58,o),
(328,-109,cs),
(316,-171,o),
(353,-206,o),
(413,-206,cs),
(442,-206,o),
(471,-199,o),
(496,-185,c),
(493,-138,l),
(479,-143,o),
(461,-146,o),
(442,-146,cs),
(411,-146,o),
(391,-127,o),
(398,-94,cs),
(405,-58,o),
(441,-29,o),
(520,0,c),
(520,0,l),
(400,630,l),
(320,630,l)
);
},
{
closed = 1;
nodes = (
(179,248,l),
(243,357,ls),
(277,416,o),
(305,466,o),
(335,522,c),
(337,522,l),
(344,466,o),
(352,414,o),
(362,357,cs),
(381,248,l)
);
}
);
width = 577;
},
{
layerId = "DC8CD3C6-3F63-4C25-A479-02CA28197BED";
shapes = (
{
closed = 1;
nodes = (
(-33,0,l),
(21,0,l),
(125,186,l),
(402,186,l),
(432,0,l),
(384,-18,o),
(335,-59,o),
(325,-109,cs),
(313,-171,o),
(351,-206,o),
(411,-206,cs),
(440,-206,o),
(468,-199,o),
(493,-185,c),
(491,-154,l),
(477,-160,o),
(455,-166,o),
(433,-166,cs),
(387,-166,o),
(366,-144,o),
(374,-106,cs),
(382,-64,o),
(419,-30,o),
(487,0,c),
(487,0,l),
(380,630,l),
(329,630,l)
);
},
{
closed = 1;
nodes = (
(149,228,l),
(272,444,ls),
(286,468,o),
(319,529,o),
(343,578,c),
(345,578,l),
(348,529,o),
(356,460,o),
(359,444,c),
(393,228,l)
);
}
);
width = 572;
}
);
leftKerningGroup = public.kern2._A;
rightKerningGroup = public.kern1._A;
unicode = 260;
},
{
glyphname = Aring;
layers = (
{
layerId = "5B161561-7DB5-4139-A0CA-38E113D4AFAB";
shapes = (
{
closed = 1;
nodes = (
(298,704,o),
(338,668,o),
(398,668,cs),
(457,668,o),
(513,701,o),
(525,764,cs),
(537,826,o),
(499,859,o),
(436,859,cs),
(373,859,o),
(322,826,o),
(310,764,cs)
);
},
{
closed = 1;
nodes = (
(389,792,o),
(406,806,o),
(426,806,cs),
(446,806,o),
(458,792,o),
(452,764,cs),
(446,737,o),
(430,721,o),
(409,721,cs),
(388,721,o),
(377,737,o),
(383,764,cs)
);
},
{
closed = 1;
nodes = (
(-39,0,l),
(132,0,l),
(193,125,l),
(389,125,l),
(400,0,l),
(574,0,l),
(484,630,l),
(305,630,l)
);
},
{
closed = 1;
nodes = (
(252,244,l),
(284,312,ls),
(308,362,o),
(339,423,o),
(359,466,c),
(361,466,l),
(362,421,o),
(367,359,o),
(372,312,c),
(377,244,l)
);
}
);
width = 651;
},
{
layerId = "613EF1C7-735E-4737-B49D-EADCFD002D35";
shapes = (
{
closed = 1;
nodes = (
(294,704,o),
(334,670,o),
(392,670,cs),
(449,670,o),
(504,701,o),
(516,763,cs),
(528,824,o),
(490,856,o),
(429,856,cs),
(368,856,o),
(318,824,o),
(306,763,cs)
);
},
{
closed = 1;
nodes = (
(380,791,o),
(398,807,o),
(420,807,cs),
(442,807,o),
(454,791,o),
(448,763,cs),
(442,735,o),
(425,719,o),
(402,719,cs),
(379,719,o),
(368,735,o),
(374,763,cs)
);
},
{
closed = 1;
nodes = (
(-42,0,l),
(113,0,l),
(182,135,l),
(390,135,l),
(405,0,l),
(563,0,l),
(467,630,l),
(308,630,l)
);
},
{
closed = 1;
nodes = (
(237,245,l),
(276,321,ls),
(302,373,o),
(332,431,o),
(354,477,c),
(356,477,l),
(358,430,o),
(364,370,o),
(370,321,cs),
(378,245,l)
);
}
);
width = 636;
},
{
layerId = "06ABBA72-70F7-4001-AF7B-C55F8F698FE5";
shapes = (
{
closed = 1;
nodes = (
(279,704,o),
(317,677,o),
(368,677,cs),
(418,677,o),
(468,701,o),
(480,760,cs),
(492,819,o),
(456,843,o),
(401,843,cs),
(348,843,o),
(302,818,o),
(290,760,cs)
);
},
{
closed = 1;
nodes = (
(344,790,o),
(366,810,o),
(395,810,cs),
(424,810,o),
(438,790,o),
(432,760,cs),
(426,730,o),
(405,710,o),
(375,710,cs),
(345,710,o),
(332,730,o),
(338,760,cs)
);
},
{
closed = 1;
nodes = (
(-55,0,l),
(38,0,l),
(140,175,l),
(393,175,l),
(426,0,l),
(520,0,l),
(400,630,l),
(320,630,l)
);
},
{
closed = 1;
nodes = (
(179,248,l),
(243,357,ls),
(277,416,o),
(305,466,o),
(335,522,c),
(337,522,l),
(344,466,o),
(352,414,o),
(362,357,cs),
(381,248,l)
);
}
);
width = 577;
},
{
layerId = "DC8CD3C6-3F63-4C25-A479-02CA28197BED";
shapes = (
{
closed = 1;
nodes = (
(279,707,o),
(316,677,o),
(365,677,cs),
(413,677,o),
(461,704,o),
(472,760,cs),
(483,816,o),
(447,843,o),
(398,843,cs),
(348,843,o),
(301,816,o),
(290,760,cs)
);
},
{
closed = 1;
nodes = (
(336,795,o),
(361,815,o),
(392,815,cs),
(423,815,o),
(440,795,o),
(433,760,cs),
(426,725,o),
(402,705,o),
(370,705,cs),
(338,705,o),
(322,725,o),
(329,760,cs)
);
},
{
closed = 1;
nodes = (
(-33,0,l),
(21,0,l),
(125,186,l),
(402,186,l),
(432,0,l),
(487,0,l),
(380,630,l),
(329,630,l)
);
},
{
closed = 1;
nodes = (
(149,228,l),
(272,444,ls),
(286,468,o),
(319,529,o),
(343,578,c),
(345,578,l),
(348,529,o),
(356,460,o),
(359,444,c),
(393,228,l)
);
}
);
width = 567;
}
);
leftKerningGroup = public.kern2._A;
rightKerningGroup = public.kern1._A;
unicode = 197;
},
{
glyphname = Asmall;
layers = (
{
layerId = "5B161561-7DB5-4139-A0CA-38E113D4AFAB";
shapes = (
{
closed = 1;
nodes = (
(-39,0,l),
(113,0,l),
(153,85,l),
(284,85,l),
(291,0,l),
(445,0,l),
(388,483,l),
(213,483,l)
);
},
{
closed = 1;
nodes = (
(204,191,l),
(228,244,ls),
(240,270,o),
(260,311,o),
(269,337,c),
(271,337,l),
(269,311,o),
(272,271,o),
(274,244,cs),
(277,191,l)
);
}
);
width = 521;
},
{
layerId = "613EF1C7-735E-4737-B49D-EADCFD002D35";
shapes = (
{
closed = 1;
nodes = (
(-42,0,l),
(96,0,l),
(142,93,l),
(283,93,l),
(292,0,l),
(433,0,l),
(369,480,l),
(214,480,l)
);
},
{
closed = 1;
nodes = (
(190,191,l),
(218,249,ls),
(232,277,o),
(252,318,o),
(263,345,c),
(265,345,l),
(264,318,o),
(267,278,o),
(270,249,cs),
(275,191,l)
);
}
);
width = 505;
},
{
layerId = "06ABBA72-70F7-4001-AF7B-C55F8F698FE5";
shapes = (
{
closed = 1;
nodes = (
(-55,0,l),
(27,0,l),
(98,124,l),
(278,124,l),
(298,0,l),
(384,0,l),
(295,470,l),
(217,470,l)
);
},
{
closed = 1;
nodes = (
(134,191,l),
(179,270,ls),
(201,307,o),
(223,346,o),
(240,377,c),
(241,377,l),
(244,345,o),
(250,307,o),
(256,270,cs),
(269,191,l)
);
}
);
width = 441;
},
{
layerId = "DC8CD3C6-3F63-4C25-A479-02CA28197BED";
shapes = (
{
closed = 1;
nodes = (
(-56,0,l),
(-8,0,l),
(65,132,l),
(261,132,l),
(282,0,l),
(332,0,l),
(256,470,l),
(210,470,l)
);
},
{
closed = 1;
nodes = (
(87,171,l),
(178,333,ls),
(188,351,o),
(205,381,o),
(220,411,c),
(222,411,l),
(224,383,o),
(229,346,o),
(231,333,cs),
(255,171,l)
);
}
);
width = 388;
}
);
unicode = 7424;
},
{
glyphname = Atilde;
layers = (
{
layerId = "5B161561-7DB5-4139-A0CA-38E113D4AFAB";
shapes = (
{
closed = 1;
nodes = (
(327,685,l),
(332,704,o),
(341,720,o),
(360,720,cs),
(385,720,o),
(417,691,o),
(464,691,cs),
(515,691,o),
(560,735,o),
(576,812,c),
(502,812,l),
(497,790,o),
(487,779,o),
(469,779,cs),
(436,779,o),
(414,809,o),
(370,809,cs),
(314,809,o),
(266,754,o),
(253,685,c)
);
},
{
closed = 1;
nodes = (
(-39,0,l),
(132,0,l),
(193,125,l),
(389,125,l),
(400,0,l),
(574,0,l),
(484,630,l),
(305,630,l)
);
},
{
closed = 1;
nodes = (
(252,244,l),
(284,312,ls),
(308,362,o),
(339,423,o),
(359,466,c),
(361,466,l),
(362,421,o),
(367,359,o),
(372,312,c),
(377,244,l)
);
}
);
width = 651;
},
{
layerId = "613EF1C7-735E-4737-B49D-EADCFD002D35";
shapes = (
{
closed = 1;
nodes = (
(316,690,l),
(321,710,o),
(331,727,o),
(352,727,cs),
(378,727,o),
(410,695,o),
(459,695,cs),
(511,695,o),
(554,741,o),
(569,814,c),
(500,814,l),
(495,792,o),
(483,778,o),
(464,778,cs),
(429,778,o),
(408,811,o),
(362,811,cs),
(305,811,o),
(260,757,o),
(247,690,c)
);
},
{
closed = 1;
nodes = (
(-42,0,l),
(113,0,l),
(182,135,l),
(390,135,l),
(405,0,l),
(563,0,l),
(467,630,l),
(308,630,l)
);
},
{
closed = 1;
nodes = (
(237,245,l),
(276,321,ls),
(302,373,o),
(332,431,o),
(354,477,c),
(356,477,l),
(358,430,o),
(364,370,o),
(370,321,cs),
(378,245,l)
);
}
);
width = 636;
},
{
layerId = "06ABBA72-70F7-4001-AF7B-C55F8F698FE5";
shapes = (
{
closed = 1;
nodes = (
(272,710,l),
(279,736,o),
(293,756,o),
(320,756,cs),
(351,756,o),
(383,713,o),
(439,713,cs),
(494,713,o),
(531,768,o),
(542,823,c),
(493,823,l),
(487,801,o),
(471,776,o),
(446,776,cs),
(405,776,o),
(385,820,o),
(330,820,cs),
(270,820,o),
(235,771,o),
(223,710,c)
);
},
{
closed = 1;
nodes = (
(-55,0,l),
(38,0,l),
(140,175,l),
(393,175,l),
(426,0,l),
(520,0,l),
(400,630,l),
(320,630,l)
);
},
{
closed = 1;
nodes = (
(179,248,l),
(243,357,ls),
(277,416,o),
(305,466,o),
(335,522,c),
(337,522,l),
(344,466,o),
(352,414,o),
(362,357,cs),
(381,248,l)
);
}
);
width = 577;
},
{
layerId = "DC8CD3C6-3F63-4C25-A479-02CA28197BED";
shapes = (
{
closed = 1;
nodes = (
(268,715,l),
(276,747,o),
(295,775,o),
(329,775,cs),
(364,775,o),
(384,721,o),
(445,721,cs),
(500,721,o),
(537,768,o),
(547,818,c),
(507,818,l),
(497,785,o),
(482,761,o),
(448,761,cs),
(403,761,o),
(392,815,o),
(334,815,cs),
(274,815,o),
(240,770,o),
(229,715,c)
);
},
{
closed = 1;
nodes = (
(-33,0,l),
(21,0,l),
(125,186,l),
(402,186,l),
(432,0,l),
(487,0,l),
(380,630,l),
(329,630,l)
);
},
{
closed = 1;
nodes = (
(149,228,l),
(272,444,ls),
(286,468,o),
(319,529,o),
(343,578,c),
(345,578,l),
(348,529,o),
(356,460,o),
(359,444,c),
(393,228,l)
);
}
);
width = 567;
}
);
leftKerningGroup = public.kern2._A;
rightKerningGroup = public.kern1._A;
unicode = 195;
},
{
glyphname = B;
layers = (
{
layerId = "5B161561-7DB5-4139-A0CA-38E113D4AFAB";
shapes = (
{
closed = 1;
nodes = (
(0,0,l),
(239,0,ls),
(391,0,o),
(499,76,o),
(520,180,cs),
(538,271,o),
(486,316,o),
(417,329,c),
(468,340,o),
(544,385,o),
(559,462,cs),
(580,565,o),
(503,630,o),
(370,630,cs),
(126,630,l)
);
},
{
closed = 1;
nodes = (
(240,386,l),
(265,506,l),
(321,506,ls),
(375,506,o),
(395,484,o),
(388,450,cs),
(382,417,o),
(351,386,o),
(297,386,cs)
);
},
{
closed = 1;
nodes = (
(189,124,l),
(216,263,l),
(275,263,ls),
(337,263,o),
(366,241,o),
(356,195,c),
(347,145,o),
(304,124,o),
(242,124,cs)
);
}
);
width = 573;
},
{
layerId = "613EF1C7-735E-4737-B49D-EADCFD002D35";
shapes = (
{
closed = 1;
nodes = (
(3,0,l),
(230,0,ls),
(377,0,o),
(485,75,o),
(506,179,cs),
(524,270,o),
(473,317,o),
(404,330,c),
(458,342,o),
(530,387,o),
(545,464,cs),
(566,567,o),
(492,630,o),
(361,630,cs),
(129,630,l)
);
},
{
closed = 1;
nodes = (
(228,382,l),
(255,516,l),
(316,516,ls),
(373,516,o),
(398,493,o),
(390,453,cs),
(382,411,o),
(344,382,o),
(288,382,cs)
);
},
{
closed = 1;
nodes = (
(175,114,l),
(206,269,l),
(265,269,ls),
(329,269,o),
(367,246,o),
(356,193,cs),
(345,136,o),
(297,114,o),
(233,114,cs)
);
}
);
width = 562;
},
{
layerId = "06ABBA72-70F7-4001-AF7B-C55F8F698FE5";
shapes = (
{
closed = 1;
nodes = (
(16,0,l),
(194,0,ls),
(321,0,o),
(429,72,o),
(450,176,cs),
(468,267,o),
(421,322,o),
(351,335,c),
(418,352,o),
(475,394,o),
(490,471,cs),
(511,574,o),
(449,630,o),
(327,630,c),
(142,630,l)
);
},
{
closed = 1;
nodes = (
(179,367,l),
(217,556,l),
(298,556,ls),
(368,556,o),
(410,528,o),
(397,464,cs),
(381,385,o),
(318,367,o),
(253,367,cs)
);
},
{
closed = 1;
nodes = (
(121,74,l),
(165,294,l),
(227,294,ls),
(301,294,o),
(374,267,o),
(358,185,cs),
(341,102,o),
(272,74,o),
(199,74,cs)
);
}
);
width = 517;
},
{
layerId = "DC8CD3C6-3F63-4C25-A479-02CA28197BED";
shapes = (
{
closed = 1;
nodes = (
(16,0,l),
(151,0,ls),
(287,0,o),
(390,72,o),
(411,176,cs),
(429,267,o),
(382,322,o),
(312,335,c),
(379,352,o),
(436,395,o),
(451,472,cs),
(472,575,o),
(411,630,o),
(289,630,cs),
(142,630,l)
);
},
{
closed = 1;
nodes = (
(137,354,l),
(184,588,l),
(267,588,ls),
(360,588,o),
(415,554,o),
(398,469,cs),
(381,382,o),
(298,354,o),
(214,354,cs)
);
},
{
closed = 1;
nodes = (
(75,42,l),
(129,312,l),
(207,312,ls),
(301,312,o),
(378,283,o),
(358,185,cs),
(337,81,o),
(248,42,o),
(150,42,cs)
);
}
);
width = 477;
}
);
unicode = 66;
},
{
glyphname = Breve;
layers = (
{
layerId = "5B161561-7DB5-4139-A0CA-38E113D4AFAB";
shapes = (
{
closed = 1;
nodes = (
(124,809,l),
(110,737,o),
(137,679,o),
(230,679,cs),
(314,679,o),
(371,726,o),
(387,809,c),
(302,809,l),
(296,779,o),
(276,764,o),
(248,764,cs),
(218,764,o),
(205,782,o),
(210,809,c)
);
}
);
width = 302;
},
{
layerId = "613EF1C7-735E-4737-B49D-EADCFD002D35";
shapes = (
{
closed = 1;
nodes = (
(124,814,l),
(110,744,o),
(137,685,o),
(230,685,cs),
(314,685,o),
(371,733,o),
(387,814,c),
(307,814,l),
(299,781,o),
(278,764,o),
(247,764,cs),
(212,764,o),
(200,784,o),
(205,814,c)
);
}
);
width = 300;
},
{
layerId = "06ABBA72-70F7-4001-AF7B-C55F8F698FE5";
shapes = (
{
closed = 1;
nodes = (
(123,834,l),
(111,772,o),
(138,710,o),
(231,710,cs),
(315,710,o),
(373,762,o),
(387,834,c),
(326,834,l),
(312,789,o),
(287,764,o),
(242,764,cs),
(189,764,o),
(181,791,o),
(185,834,c)
);
}
);
width = 293;
},
{
layerId = "DC8CD3C6-3F63-4C25-A479-02CA28197BED";
shapes = (
{
closed = 1;
nodes = (
(123,834,l),
(110,769,o),
(139,710,o),
(232,710,cs),
(316,710,o),
(373,762,o),
(387,834,c),
(340,834,l),
(328,781,o),
(291,750,o),
(240,750,cs),
(179,750,o),
(161,784,o),
(170,834,c)
);
}
);
width = 293;
}
);
},
{
glyphname = Breveinverted;
layers = (
{
layerId = "5B161561-7DB5-4139-A0CA-38E113D4AFAB";
shapes = (
{
closed = 1;
nodes = (
(361,679,l),
(376,751,o),
(348,809,o),
(255,809,cs),
(171,809,o),
(114,762,o),
(97,679,c),
(182,679,l),
(189,709,o),
(209,724,o),
(236,724,cs),
(267,724,o),
(279,706,o),
(274,679,c)
);
}
);
width = 302;
},
{
layerId = "613EF1C7-735E-4737-B49D-EADCFD002D35";
shapes = (
{
closed = 1;
nodes = (
(362,685,l),
(376,755,o),
(348,814,o),
(255,814,cs),
(171,814,o),
(114,766,o),
(98,685,c),
(178,685,l),
(186,718,o),
(207,735,o),
(238,735,cs),
(273,735,o),
(285,715,o),
(280,685,c)
);
}
);
width = 300;
},
{
layerId = "06ABBA72-70F7-4001-AF7B-C55F8F698FE5";
shapes = (
{
closed = 1;
nodes = (
(365,710,l),
(377,772,o),
(350,834,o),
(257,834,cs),
(173,834,o),
(115,782,o),
(101,710,c),
(162,710,l),
(176,755,o),
(202,780,o),
(247,780,cs),
(300,780,o),
(307,753,o),
(303,710,c)
);
}
);
width = 293;
},
{
layerId = "DC8CD3C6-3F63-4C25-A479-02CA28197BED";
shapes = (
{
closed = 1;
nodes = (
(365,710,l),
(378,775,o),
(349,834,o),
(256,834,cs),
(172,834,o),
(115,782,o),
(101,710,c),
(148,710,l),
(160,763,o),
(197,794,o),
(248,794,cs),
(309,794,o),
(327,760,o),
(318,710,c)
);
}
);
width = 293;
}
);
},
{
glyphname = Bsmall;
layers = (
{
layerId = "5B161561-7DB5-4139-A0CA-38E113D4AFAB";
shapes = (
{
closed = 1;
nodes = (
(-9,0,l),
(205,0,ls),
(332,0,o),
(409,59,o),
(425,140,cs),
(437,197,o),
(410,238,o),
(350,253,c),
(402,269,o),
(438,303,o),
(448,353,cs),
(463,430,o),
(418,483,o),
(303,483,cs),
(88,483,l)
);
},
{
closed = 1;
nodes = (
(209,303,l),
(222,365,l),
(247,365,ls),
(280,365,o),
(293,354,o),
(288,333,c),
(284,312,o),
(261,303,o),
(237,303,cs)
);
},
{
closed = 1;
nodes = (
(172,118,l),
(187,187,l),
(218,187,ls),
(260,187,o),
(272,174,o),
(269,155,c),
(264,128,o),
(248,118,o),
(206,118,cs)
);
}
);
width = 473;
},
{
layerId = "613EF1C7-735E-4737-B49D-EADCFD002D35";
shapes = (
{
closed = 1;
nodes = (
(-4,0,l),
(200,0,ls),
(324,0,o),
(399,59,o),
(415,139,cs),
(427,197,o),
(400,238,o),
(340,253,c),
(391,269,o),
(428,303,o),
(438,353,cs),
(453,428,o),
(409,480,o),
(297,480,cs),
(92,480,l)
);
},
{
closed = 1;
nodes = (
(196,298,l),
(211,372,l),
(246,372,ls),
(284,372,o),
(297,359,o),
(292,335,cs),
(287,309,o),
(261,298,o),
(233,298,cs)
);
},
{
closed = 1;
nodes = (
(158,108,l),
(175,192,l),
(219,192,ls),
(265,192,o),
(277,174,o),
(273,152,cs),
(267,120,o),
(245,108,o),
(199,108,cs)
);
}
);
width = 466;
},
{
layerId = "06ABBA72-70F7-4001-AF7B-C55F8F698FE5";
shapes = (
{
closed = 1;
nodes = (
(16,0,l),
(179,0,ls),
(290,0,o),
(359,60,o),
(374,134,cs),
(387,197,o),
(360,237,o),
(300,253,c),
(349,269,o),
(388,304,o),
(398,354,cs),
(412,423,o),
(373,470,o),
(274,470,c),
(110,470,l)
);
},
{
closed = 1;
nodes = (
(143,278,l),
(167,402,l),
(241,402,ls),
(299,402,o),
(317,379,o),
(310,342,cs),
(301,295,o),
(263,278,o),
(218,278,cs)
);
},
{
closed = 1;
nodes = (
(101,68,l),
(129,212,l),
(222,212,ls),
(283,212,o),
(295,176,o),
(288,142,cs),
(277,89,o),
(236,68,o),
(173,68,cs)
);
}
);
width = 439;
},
{
layerId = "DC8CD3C6-3F63-4C25-A479-02CA28197BED";
shapes = (
{
closed = 1;
nodes = (
(5,0,l),
(149,0,ls),
(253,0,o),
(318,63,o),
(333,137,cs),
(346,200,o),
(316,239,o),
(260,251,c),
(309,267,o),
(349,304,o),
(359,354,cs),
(373,423,o),
(331,470,o),
(244,470,cs),
(99,470,l)
);
},
{
closed = 1;
nodes = (
(103,264,l),
(137,432,l),
(217,432,ls),
(295,432,o),
(321,402,o),
(310,349,cs),
(300,299,o),
(259,264,o),
(191,264,cs)
);
},
{
closed = 1;
nodes = (
(58,38,l),
(96,227,l),
(195,227,ls),
(273,227,o),
(296,184,o),
(287,140,cs),
(272,66,o),
(217,38,o),
(137,38,cs)
);
}
);
width = 397;
}
);
unicode = 665;
},
{
glyphname = C;
layers = (
{
layerId = "5B161561-7DB5-4139-A0CA-38E113D4AFAB";
shapes = (
{
closed = 1;
nodes = (
(1,119,o),
(109,-12,o),
(311,-12,cs),
(397,-12,o),
(462,11,o),
(487,25,c),
(480,143,l),
(453,127,o),
(410,115,o),
(354,115,cs),
(250,115,o),
(185,186,o),
(211,318,cs),
(240,462,o),
(331,517,o),
(433,517,cs),
(480,517,o),
(523,500,o),
(544,484,c),
(604,605,l),
(579,621,o),
(528,643,o),
(442,643,cs),
(230,643,o),
(79,510,o),
(40,316,cs)
);
}
);
width = 562;
},
{
layerId = "613EF1C7-735E-4737-B49D-EADCFD002D35";
shapes = (
{
closed = 1;
nodes = (
(1,116,o),
(110,-11,o),
(304,-11,cs),
(388,-11,o),
(451,9,o),
(481,25,c),
(474,134,l),
(443,117,o),
(401,105,o),
(343,105,cs),
(237,105,o),
(170,175,o),
(198,317,cs),
(228,468,o),
(323,526,o),
(428,526,cs),
(477,526,o),
(517,510,o),
(543,493,c),
(598,604,l),
(570,621,o),
(521,642,o),
(436,642,cs),
(232,642,o),
(80,512,o),
(41,316,cs)
);
}
);
width = 558;
},
{
layerId = "06ABBA72-70F7-4001-AF7B-C55F8F698FE5";
shapes = (
{
closed = 1;
nodes = (
(5,105,o),
(113,-9,o),
(276,-9,cs),
(353,-9,o),
(407,2,o),
(457,24,c),
(451,98,l),
(406,78,o),
(366,67,o),
(301,67,cs),
(189,67,o),
(109,134,o),
(145,314,cs),
(181,493,o),
(292,563,o),
(407,563,cs),
(464,563,o),
(495,552,o),
(540,530,c),
(576,602,l),
(536,625,o),
(491,639,o),
(411,639,cs),
(239,639,o),
(88,521,o),
(47,315,cs)
);
}
);
width = 542;
},
{
layerId = "DC8CD3C6-3F63-4C25-A479-02CA28197BED";
shapes = (
{
closed = 1;
nodes = (
(-4,104,o),
(103,-8,o),
(266,-8,cs),
(337,-8,o),
(385,4,o),
(428,24,c),
(425,66,l),
(388,48,o),
(345,34,o),
(282,34,cs),
(165,34,o),
(48,105,o),
(90,313,cs),
(130,513,o),
(267,596,o),
(396,596,cs),
(449,596,o),
(488,585,o),
(527,563,c),
(547,602,l),
(510,625,o),
(468,638,o),
(393,638,cs),
(226,638,o),
(79,520,o),
(38,314,cs)
);
}
);
width = 513;
}
);
leftKerningGroup = public.kern2._C;
rightKerningGroup = public.kern1._C;
unicode = 67;
},
{
glyphname = Cacute;
layers = (
{
layerId = "5B161561-7DB5-4139-A0CA-38E113D4AFAB";
shapes = (
{
closed = 1;
nodes = (
(1,119,o),
(109,-12,o),
(311,-12,cs),
(397,-12,o),
(462,11,o),
(487,25,c),
(480,143,l),
(453,127,o),
(410,115,o),
(354,115,cs),
(250,115,o),
(185,186,o),
(211,318,cs),
(240,462,o),
(331,517,o),
(433,517,cs),
(480,517,o),
(523,500,o),
(544,484,c),
(604,605,l),
(579,621,o),
(528,643,o),
(442,643,cs),
(230,643,o),
(79,510,o),
(40,316,cs)
);
},
{
closed = 1;
nodes = (
(312,685,l),
(444,685,l),
(583,809,l),
(416,809,l)
);
}
);
width = 562;
},
{
layerId = "613EF1C7-735E-4737-B49D-EADCFD002D35";
shapes = (
{
closed = 1;
nodes = (
(1,116,o),
(110,-11,o),
(304,-11,cs),
(388,-11,o),
(451,9,o),
(481,25,c),
(474,134,l),
(443,117,o),
(401,105,o),
(343,105,cs),
(237,105,o),
(170,175,o),
(198,317,cs),
(228,468,o),
(323,526,o),
(428,526,cs),
(477,526,o),
(517,510,o),
(543,493,c),
(598,604,l),
(570,621,o),
(521,642,o),
(436,642,cs),
(232,642,o),
(80,512,o),
(41,316,cs)
);
},
{
closed = 1;
nodes = (
(315,690,l),
(435,690,l),
(573,814,l),
(419,814,l)
);
}
);
width = 558;
},
{
layerId = "06ABBA72-70F7-4001-AF7B-C55F8F698FE5";
shapes = (
{
closed = 1;
nodes = (
(5,105,o),
(113,-9,o),
(276,-9,cs),
(353,-9,o),
(407,2,o),
(457,24,c),
(451,98,l),
(406,78,o),
(366,67,o),
(301,67,cs),
(189,67,o),
(109,134,o),
(145,314,cs),
(181,493,o),
(292,563,o),
(407,563,cs),
(464,563,o),
(495,552,o),
(540,530,c),
(576,602,l),
(536,625,o),
(491,639,o),
(411,639,cs),
(239,639,o),
(88,521,o),
(47,315,cs)
);
},
{
closed = 1;
nodes = (
(329,710,l),
(399,710,l),
(533,834,l),
(432,834,l)
);
}
);
width = 542;
},
{
layerId = "DC8CD3C6-3F63-4C25-A479-02CA28197BED";
shapes = (
{
closed = 1;
nodes = (
(-4,104,o),
(103,-8,o),
(266,-8,cs),
(337,-8,o),
(385,4,o),
(428,24,c),
(425,66,l),
(388,48,o),
(345,34,o),
(282,34,cs),
(165,34,o),
(48,105,o),
(90,313,cs),
(130,513,o),
(267,596,o),
(396,596,cs),
(449,596,o),
(488,585,o),
(527,563,c),
(547,602,l),
(510,625,o),
(468,638,o),
(393,638,cs),
(226,638,o),
(79,520,o),
(38,314,cs)
);
},
{
closed = 1;
nodes = (
(326,710,l),
(368,710,l),
(501,834,l),
(439,834,l)
);
}
);
width = 513;
}
);
leftKerningGroup = public.kern2._C;
rightKerningGroup = public.kern1._C;
unicode = 262;
},
{
glyphname = Caron;
layers = (
{
layerId = "5B161561-7DB5-4139-A0CA-38E113D4AFAB";
shapes = (
{
closed = 1;
nodes = (
(197,685,l),
(312,685,l),
(444,807,l),
(333,807,l),
(269,748,l),
(226,807,l),
(110,807,l)
);
}
);
width = 347;
},
{
layerId = "613EF1C7-735E-4737-B49D-EADCFD002D35";
shapes = (
{
closed = 1;
nodes = (
(203,690,l),
(309,690,l),
(444,814,l),
(340,814,l),
(269,750,l),
(223,814,l),
(115,814,l)
);
}
);
width = 347;
},
{
layerId = "06ABBA72-70F7-4001-AF7B-C55F8F698FE5";
shapes = (
{
closed = 1;
nodes = (
(228,710,l),
(296,710,l),
(445,844,l),
(367,844,l),
(271,760,l),
(210,844,l),
(135,844,l)
);
}
);
width = 346;
},
{
layerId = "DC8CD3C6-3F63-4C25-A479-02CA28197BED";
shapes = (
{
closed = 1;
nodes = (
(223,710,l),
(271,710,l),
(420,844,l),
(361,844,l),
(253,745,l),
(185,844,l),
(130,844,l)
);
}
);
width = 326;
}
);
},
{
glyphname = Ccaron;
layers = (
{
layerId = "5B161561-7DB5-4139-A0CA-38E113D4AFAB";
shapes = (
{
closed = 1;
nodes = (
(1,119,o),
(109,-12,o),
(311,-12,cs),
(397,-12,o),
(462,11,o),
(487,25,c),
(480,143,l),
(453,127,o),
(410,115,o),
(354,115,cs),
(250,115,o),
(185,186,o),
(211,318,cs),
(240,462,o),
(331,517,o),
(433,517,cs),
(480,517,o),
(523,500,o),
(544,484,c),
(604,605,l),
(579,621,o),
(528,643,o),
(442,643,cs),
(230,643,o),
(79,510,o),
(40,316,cs)
);
},
{
closed = 1;
nodes = (
(359,685,l),
(476,685,l),
(607,806,l),
(497,806,l),
(431,748,l),
(388,806,l),
(272,806,l)
);
}
);
width = 562;
},
{
layerId = "613EF1C7-735E-4737-B49D-EADCFD002D35";
shapes = (
{
closed = 1;
nodes = (
(1,116,o),
(110,-11,o),
(304,-11,cs),
(388,-11,o),
(451,9,o),
(481,25,c),
(474,134,l),
(443,117,o),
(401,105,o),
(343,105,cs),
(237,105,o),
(170,175,o),
(198,317,cs),
(228,468,o),
(323,526,o),
(428,526,cs),
(477,526,o),
(517,510,o),
(543,493,c),
(598,604,l),
(570,621,o),
(521,642,o),
(436,642,cs),
(232,642,o),
(80,512,o),
(41,316,cs)
);
},
{
closed = 1;
nodes = (
(364,690,l),
(471,690,l),
(606,814,l),
(502,814,l),
(430,750,l),
(384,814,l),
(276,814,l)
);
}
);
width = 558;
},
{
layerId = "06ABBA72-70F7-4001-AF7B-C55F8F698FE5";
shapes = (
{
closed = 1;
nodes = (
(5,105,o),
(113,-9,o),
(276,-9,cs),
(353,-9,o),
(407,2,o),
(457,24,c),
(451,98,l),
(406,78,o),
(366,67,o),
(301,67,cs),
(189,67,o),
(109,134,o),
(145,314,cs),
(181,493,o),
(292,563,o),
(407,563,cs),
(464,563,o),
(495,552,o),
(540,530,c),
(576,602,l),
(536,625,o),
(491,639,o),
(411,639,cs),
(239,639,o),
(88,521,o),
(47,315,cs)
);
},
{
closed = 1;
nodes = (
(384,711,l),
(451,711,l),
(601,845,l),
(523,845,l),
(428,758,l),
(369,845,l),
(291,845,l)
);
}
);
width = 542;
},
{
layerId = "DC8CD3C6-3F63-4C25-A479-02CA28197BED";
shapes = (
{
closed = 1;
nodes = (
(-4,104,o),
(103,-8,o),
(266,-8,cs),
(337,-8,o),
(385,4,o),
(428,24,c),
(425,66,l),
(388,48,o),
(345,34,o),
(282,34,cs),
(165,34,o),
(48,105,o),
(90,313,cs),
(130,513,o),
(267,596,o),
(396,596,cs),
(449,596,o),
(488,585,o),
(527,563,c),
(547,602,l),
(510,625,o),
(468,638,o),
(393,638,cs),
(226,638,o),
(79,520,o),
(38,314,cs)
);
},
{
closed = 1;
nodes = (
(384,711,l),
(432,711,l),
(582,845,l),
(523,845,l),
(415,746,l),
(347,845,l),
(292,845,l)
);
}
);
width = 519;
}
);
leftKerningGroup = public.kern2._C;
rightKerningGroup = public.kern1._C;
unicode = 268;
},
{
glyphname = Ccedilla;
layers = (
{
layerId = "5B161561-7DB5-4139-A0CA-38E113D4AFAB";
shapes = (
{
closed = 1;
nodes = (
(6,143,o),
(84,21,o),
(242,-6,c),
(206,-78,l),
(251,-78,o),
(265,-92,o),
(261,-110,cs),
(256,-135,o),
(241,-145,o),
(222,-145,cs),
(200,-145,o),
(192,-142,o),
(178,-136,c),
(145,-200,l),
(162,-209,o),
(194,-215,o),
(228,-215,cs),
(294,-215,o),
(349,-185,o),
(361,-121,cs),
(369,-82,o),
(340,-51,o),
(306,-47,c),
(323,-12,l),
(403,-10,o),
(464,12,o),
(487,25,c),
(480,143,l),
(453,127,o),
(410,115,o),
(354,115,cs),
(250,115,o),
(185,186,o),
(211,318,cs),
(240,462,o),
(331,517,o),
(433,517,cs),
(480,517,o),
(523,500,o),
(544,484,c),
(604,605,l),
(579,621,o),
(528,643,o),
(442,643,cs),
(230,643,o),
(79,510,o),
(40,316,cs)
);
}
);
width = 562;
},
{
layerId = "613EF1C7-735E-4737-B49D-EADCFD002D35";
shapes = (
{
closed = 1;
nodes = (
(6,139,o),
(86,19,o),
(241,-6,c),
(203,-78,l),
(256,-78,o),
(269,-94,o),
(265,-114,cs),
(260,-139,o),
(243,-150,o),
(219,-150,cs),
(198,-150,o),
(187,-147,o),
(173,-141,c),
(143,-200,l),
(159,-208,o),
(190,-215,o),
(223,-215,cs),
(289,-215,o),
(345,-184,o),
(357,-122,cs),
(365,-83,o),
(339,-51,o),
(297,-47,c),
(315,-11,l),
(394,-9,o),
(453,10,o),
(481,25,c),
(474,134,l),
(443,117,o),
(401,105,o),
(343,105,cs),
(237,105,o),
(170,175,o),
(198,317,cs),
(228,468,o),
(323,526,o),
(428,526,cs),
(477,526,o),
(517,510,o),
(543,493,c),
(598,604,l),
(570,621,o),
(521,642,o),
(436,642,cs),
(232,642,o),
(80,512,o),
(41,316,cs)
);
}
);
width = 558;
},
{
layerId = "06ABBA72-70F7-4001-AF7B-C55F8F698FE5";
shapes = (
{
closed = 1;
nodes = (
(8,121,o),
(97,9,o),
(239,-7,c),
(192,-78,l),
(277,-78,o),
(286,-102,o),
(281,-129,cs),
(276,-154,o),
(251,-169,o),
(206,-169,cs),
(188,-169,o),
(169,-166,o),
(154,-160,c),
(134,-202,l),
(148,-208,o),
(175,-214,o),
(204,-214,cs),
(272,-214,o),
(329,-182,o),
(340,-127,cs),
(348,-88,o),
(333,-50,o),
(260,-47,c),
(284,-9,l),
(358,-8,o),
(408,3,o),
(457,24,c),
(451,98,l),
(406,78,o),
(366,67,o),
(301,67,cs),
(189,67,o),
(109,134,o),
(145,314,cs),
(181,493,o),
(292,563,o),
(407,563,cs),
(464,563,o),
(495,552,o),
(540,530,c),
(576,602,l),
(536,625,o),
(491,639,o),
(411,639,cs),
(239,639,o),
(88,521,o),
(47,315,cs)
);
}
);
width = 542;
},
{
layerId = "DC8CD3C6-3F63-4C25-A479-02CA28197BED";
shapes = (
{
closed = 1;
nodes = (
(-2,115,o),
(92,4,o),
(240,-7,c),
(193,-78,l),
(285,-78,o),
(297,-100,o),
(292,-127,cs),
(286,-158,o),
(258,-179,o),
(206,-179,cs),
(188,-179,o),
(167,-175,o),
(151,-170,c),
(135,-202,l),
(149,-208,o),
(177,-214,o),
(206,-214,cs),
(274,-214,o),
(331,-180,o),
(342,-125,cs),
(350,-86,o),
(326,-47,o),
(252,-47,c),
(276,-8,l),
(341,-7,o),
(387,5,o),
(428,24,c),
(425,66,l),
(388,48,o),
(345,34,o),
(282,34,cs),
(165,34,o),
(48,105,o),
(90,313,cs),
(130,513,o),
(267,596,o),
(396,596,cs),
(449,596,o),
(488,585,o),
(527,563,c),
(547,602,l),
(510,625,o),
(468,638,o),
(393,638,cs),
(226,638,o),
(79,520,o),
(38,314,cs)
);
}
);
width = 513;
}
);
leftKerningGroup = public.kern2._C;
rightKerningGroup = public.kern1._C;
unicode = 199;
},
{
glyphname = Ccircumflex;
layers = (
{
layerId = "5B161561-7DB5-4139-A0CA-38E113D4AFAB";
shapes = (
{
closed = 1;
nodes = (
(1,119,o),
(109,-12,o),
(311,-12,cs),
(397,-12,o),
(462,11,o),
(487,25,c),
(480,143,l),
(453,127,o),
(410,115,o),
(354,115,cs),
(250,115,o),
(185,186,o),
(211,318,cs),
(240,462,o),
(331,517,o),
(433,517,cs),
(480,517,o),
(523,500,o),
(544,484,c),
(604,605,l),
(579,621,o),
(528,643,o),
(442,643,cs),
(230,643,o),
(79,510,o),
(40,316,cs)
);
},
{
closed = 1;
nodes = (
(257,685,l),
(367,685,l),
(433,744,l),
(475,685,l),
(590,685,l),
(504,807,l),
(387,807,l)
);
}
);
width = 562;
},
{
layerId = "613EF1C7-735E-4737-B49D-EADCFD002D35";
shapes = (
{
closed = 1;
nodes = (
(1,116,o),
(110,-11,o),
(304,-11,cs),
(388,-11,o),
(451,9,o),
(481,25,c),
(474,134,l),
(443,117,o),
(401,105,o),
(343,105,cs),
(237,105,o),
(170,175,o),
(198,317,cs),
(228,468,o),
(323,526,o),
(428,526,cs),
(477,526,o),
(517,510,o),
(543,493,c),
(598,604,l),
(570,621,o),
(521,642,o),
(436,642,cs),
(232,642,o),
(80,512,o),
(41,316,cs)
);
},
{
closed = 1;
nodes = (
(256,690,l),
(359,690,l),
(431,754,l),
(477,690,l),
(585,690,l),
(497,814,l),
(390,814,l)
);
}
);
width = 558;
},
{
layerId = "06ABBA72-70F7-4001-AF7B-C55F8F698FE5";
shapes = (
{
closed = 1;
nodes = (
(5,105,o),
(113,-9,o),
(276,-9,cs),
(353,-9,o),
(407,2,o),
(457,24,c),
(451,98,l),
(406,78,o),
(366,67,o),
(301,67,cs),
(189,67,o),
(109,134,o),
(145,314,cs),
(181,493,o),
(292,563,o),
(407,563,cs),
(464,563,o),
(495,552,o),
(540,530,c),
(576,602,l),
(536,625,o),
(491,639,o),
(411,639,cs),
(239,639,o),
(88,521,o),
(47,315,cs)
);
},
{
closed = 1;
nodes = (
(254,710,l),
(329,710,l),
(424,794,l),
(485,710,l),
(564,710,l),
(468,844,l),
(401,844,l)
);
}
);
width = 542;
},
{
layerId = "DC8CD3C6-3F63-4C25-A479-02CA28197BED";
shapes = (
{
closed = 1;
nodes = (
(-4,104,o),
(103,-8,o),
(266,-8,cs),
(337,-8,o),
(385,4,o),
(428,24,c),
(425,66,l),
(388,48,o),
(345,34,o),
(282,34,cs),
(165,34,o),
(48,105,o),
(90,313,cs),
(130,513,o),
(267,596,o),
(396,596,cs),
(449,596,o),
(488,585,o),
(527,563,c),
(547,602,l),
(510,625,o),
(468,638,o),
(393,638,cs),
(226,638,o),
(79,520,o),
(38,314,cs)
);
},
{
closed = 1;
nodes = (
(266,710,l),
(321,710,l),
(429,809,l),
(497,710,l),
(556,710,l),
(460,844,l),
(412,844,l)
);
}
);
width = 513;
}
);
leftKerningGroup = public.kern2._C;
rightKerningGroup = public.kern1._C;
unicode = 264;
},
{
glyphname = Cdotaccent;
layers = (
{
layerId = "5B161561-7DB5-4139-A0CA-38E113D4AFAB";
shapes = (
{
closed = 1;
nodes = (
(1,119,o),
(109,-12,o),
(311,-12,cs),
(397,-12,o),
(462,11,o),
(487,25,c),
(480,143,l),
(453,127,o),
(410,115,o),
(354,115,cs),
(250,115,o),
(185,186,o),
(211,318,cs),
(240,462,o),
(331,517,o),
(433,517,cs),
(480,517,o),
(523,500,o),
(544,484,c),
(604,605,l),
(579,621,o),
(528,643,o),
(442,643,cs),
(230,643,o),
(79,510,o),
(40,316,cs)
);
},
{
closed = 1;
nodes = (
(387,702,o),
(411,671,o),
(450,671,cs),
(489,671,o),
(524,702,o),
(532,743,cs),
(539,782,o),
(516,812,o),
(477,812,cs),
(438,812,o),
(402,782,o),
(395,743,cs)
);
}
);
width = 562;
},
{
layerId = "613EF1C7-735E-4737-B49D-EADCFD002D35";
shapes = (
{
closed = 1;
nodes = (
(1,116,o),
(110,-11,o),
(304,-11,cs),
(388,-11,o),
(451,9,o),
(481,25,c),
(474,134,l),
(443,117,o),
(401,105,o),
(343,105,cs),
(237,105,o),
(170,175,o),
(198,317,cs),
(228,468,o),
(323,526,o),
(428,526,cs),
(477,526,o),
(517,510,o),
(543,493,c),
(598,604,l),
(570,621,o),
(521,642,o),
(436,642,cs),
(232,642,o),
(80,512,o),
(41,316,cs)
);
},
{
closed = 1;
nodes = (
(383,709,o),
(407,679,o),
(444,679,cs),
(481,679,o),
(515,709,o),
(523,748,cs),
(530,785,o),
(507,814,o),
(470,814,cs),
(433,814,o),
(398,785,o),
(391,748,cs)
);
}
);
width = 558;
},
{
layerId = "06ABBA72-70F7-4001-AF7B-C55F8F698FE5";
shapes = (
{
closed = 1;
nodes = (
(5,105,o),
(113,-9,o),
(276,-9,cs),
(353,-9,o),
(407,2,o),
(457,24,c),
(451,98,l),
(406,78,o),
(366,67,o),
(301,67,cs),
(189,67,o),
(109,134,o),
(145,314,cs),
(181,493,o),
(292,563,o),
(407,563,cs),
(464,563,o),
(495,552,o),
(540,530,c),
(576,602,l),
(536,625,o),
(491,639,o),
(411,639,cs),
(239,639,o),
(88,521,o),
(47,315,cs)
);
},
{
closed = 1;
nodes = (
(370,736,o),
(392,710,o),
(420,710,cs),
(450,710,o),
(480,736,o),
(486,767,cs),
(492,795,o),
(472,822,o),
(442,822,cs),
(414,822,o),
(382,795,o),
(376,767,cs)
);
}
);
width = 542;
},
{
layerId = "DC8CD3C6-3F63-4C25-A479-02CA28197BED";
shapes = (
{
closed = 1;
nodes = (
(-4,104,o),
(103,-8,o),
(266,-8,cs),
(337,-8,o),
(385,4,o),
(428,24,c),
(425,66,l),
(388,48,o),
(345,34,o),
(282,34,cs),
(165,34,o),
(48,105,o),
(90,313,cs),
(130,513,o),
(267,596,o),
(396,596,cs),
(449,596,o),
(488,585,o),
(527,563,c),
(547,602,l),
(510,625,o),
(468,638,o),
(393,638,cs),
(226,638,o),
(79,520,o),
(38,314,cs)
);
},
{
closed = 1;
nodes = (
(376,750,o),
(390,734,o),
(413,734,cs),
(435,734,o),
(455,750,o),
(461,778,cs),
(466,804,o),
(452,822,o),
(430,822,cs),
(407,822,o),
(387,804,o),
(382,778,cs)
);
}
);
width = 513;
}
);
leftKerningGroup = public.kern2._C;
rightKerningGroup = public.kern1._C;
unicode = 266;
},
{
glyphname = Cedilla;
layers = (
{
layerId = "5B161561-7DB5-4139-A0CA-38E113D4AFAB";
shapes = (
{
closed = 1;
nodes = (
(-74,-200,l),
(-58,-209,o),
(-25,-215,o),
(9,-215,cs),
(75,-215,o),
(130,-185,o),
(142,-121,cs),
(150,-82,o),
(121,-51,o),
(87,-47,c),
(111,0,l),
(25,0,l),
(-13,-78,l),
(32,-78,o),
(46,-92,o),
(42,-110,cs),
(37,-135,o),
(22,-145,o),
(3,-145,cs),
(-19,-145,o),
(-27,-142,o),
(-41,-136,c)
);
}
);
width = 233;
},
{
layerId = "613EF1C7-735E-4737-B49D-EADCFD002D35";
shapes = (
{
closed = 1;
nodes = (
(-71,-200,l),
(-55,-208,o),
(-24,-215,o),
(9,-215,cs),
(75,-215,o),
(131,-184,o),
(143,-122,cs),
(151,-83,o),
(125,-51,o),
(83,-47,c),
(108,0,l),
(30,0,l),
(-11,-78,l),
(42,-78,o),
(55,-94,o),
(51,-114,cs),
(46,-139,o),
(29,-150,o),
(5,-150,cs),
(-16,-150,o),
(-27,-147,o),
(-41,-141,c)
);
}
);
width = 233;
},
{
layerId = "06ABBA72-70F7-4001-AF7B-C55F8F698FE5";
shapes = (
{
closed = 1;
nodes = (
(-60,-202,l),
(-46,-208,o),
(-19,-214,o),
(10,-214,cs),
(78,-214,o),
(135,-182,o),
(146,-127,cs),
(154,-88,o),
(139,-50,o),
(66,-47,c),
(96,0,l),
(50,0,l),
(-2,-78,l),
(83,-78,o),
(92,-102,o),
(87,-129,cs),
(82,-154,o),
(57,-169,o),
(12,-169,cs),
(-6,-169,o),
(-25,-166,o),
(-40,-160,c)
);
}
);
width = 232;
},
{
layerId = "DC8CD3C6-3F63-4C25-A479-02CA28197BED";
shapes = (
{
closed = 1;
nodes = (
(-60,-202,l),
(-46,-208,o),
(-19,-214,o),
(10,-214,cs),
(78,-214,o),
(135,-180,o),
(146,-125,cs),
(154,-86,o),
(130,-47,o),
(56,-47,c),
(86,0,l),
(50,0,l),
(-2,-78,l),
(90,-78,o),
(102,-100,o),
(97,-127,cs),
(91,-158,o),
(62,-179,o),
(10,-179,cs),
(-8,-179,o),
(-29,-175,o),
(-45,-170,c)
);
}
);
width = 232;
}
);
},
{
glyphname = Circumflex;
layers = (
{
layerId = "5B161561-7DB5-4139-A0CA-38E113D4AFAB";
shapes = (
{
closed = 1;
nodes = (
(97,685,l),
(208,685,l),
(274,744,l),
(316,685,l),
(431,685,l),
(345,807,l),
(229,807,l)
);
}
);
width = 369;
},
{
layerId = "613EF1C7-735E-4737-B49D-EADCFD002D35";
shapes = (
{
closed = 1;
nodes = (
(99,690,l),
(203,690,l),
(275,754,l),
(321,690,l),
(428,690,l),
(340,814,l),
(234,814,l)
);
}
);
width = 365;
},
{
layerId = "06ABBA72-70F7-4001-AF7B-C55F8F698FE5";
shapes = (
{
closed = 1;
nodes = (
(109,710,l),
(183,710,l),
(278,794,l),
(340,710,l),
(418,710,l),
(322,844,l),
(255,844,l)
);
}
);
width = 350;
},
{
layerId = "DC8CD3C6-3F63-4C25-A479-02CA28197BED";
shapes = (
{
closed = 1;
nodes = (
(103,710,l),
(158,710,l),
(266,809,l),
(334,710,l),
(393,710,l),
(297,844,l),
(249,844,l)
);
}
);
width = 326;
}
);
},
{
glyphname = Csmall;
layers = (
{
layerId = "5B161561-7DB5-4139-A0CA-38E113D4AFAB";
shapes = (
{
closed = 1;
nodes = (
(-7,77,o),
(81,-12,o),
(224,-12,cs),
(288,-12,o),
(353,10,o),
(372,22,c),
(367,130,l),
(352,123,o),
(316,107,o),
(275,107,cs),
(219,107,o),
(163,143,o),
(182,243,cs),
(200,333,o),
(257,378,o),
(324,378,cs),
(355,378,o),
(385,365,o),
(406,349,c),
(461,459,l),
(420,487,o),
(368,495,o),
(329,495,cs),
(180,495,o),
(55,389,o),
(25,239,cs)
);
}
);
width = 453;
},
{
layerId = "613EF1C7-735E-4737-B49D-EADCFD002D35";
shapes = (
{
closed = 1;
nodes = (
(-6,76,o),
(82,-11,o),
(223,-11,cs),
(284,-11,o),
(344,8,o),
(367,21,c),
(362,121,l),
(344,112,o),
(309,97,o),
(268,97,cs),
(207,97,o),
(148,135,o),
(169,242,cs),
(188,336,o),
(248,384,o),
(321,384,cs),
(352,384,o),
(383,372,o),
(405,356,c),
(455,457,l),
(413,484,o),
(365,491,o),
(326,491,cs),
(178,491,o),
(56,388,o),
(26,238,cs)
);
}
);
width = 447;
},
{
layerId = "06ABBA72-70F7-4001-AF7B-C55F8F698FE5";
shapes = (
{
closed = 1;
nodes = (
(-1,72,o),
(86,-9,o),
(220,-9,cs),
(268,-9,o),
(310,0,o),
(348,18,c),
(343,84,l),
(312,69,o),
(280,59,o),
(240,59,cs),
(159,59,o),
(90,102,o),
(117,237,cs),
(139,346,o),
(214,410,o),
(311,410,cs),
(343,410,o),
(373,402,o),
(400,384,c),
(432,451,l),
(388,473,o),
(355,477,o),
(316,477,cs),
(174,477,o),
(61,384,o),
(31,234,cs)
);
}
);
width = 423;
},
{
layerId = "DC8CD3C6-3F63-4C25-A479-02CA28197BED";
shapes = (
{
closed = 1;
nodes = (
(-8,72,o),
(76,-8,o),
(194,-8,cs),
(242,-8,o),
(280,1,o),
(318,19,c),
(314,53,l),
(283,38,o),
(247,28,o),
(207,28,cs),
(121,28,o),
(40,78,o),
(72,237,cs),
(96,358,o),
(184,436,o),
(288,436,cs),
(320,436,o),
(356,430,o),
(383,414,c),
(402,451,l),
(370,468,o),
(332,476,o),
(290,476,cs),
(165,476,o),
(54,384,o),
(24,234,cs)
);
}
);
width = 393;
}
);
unicode = 7428;
},
{
glyphname = D;
layers = (
{
layerId = "5B161561-7DB5-4139-A0CA-38E113D4AFAB";
shapes = (
{
closed = 1;
nodes = (
(0,0,l),
(203,0,ls),
(398,0,o),
(576,110,o),
(620,328,cs),
(660,528,o),
(553,630,o),
(351,630,cs),
(126,630,l)
);
},
{
closed = 1;
nodes = (
(189,126,l),
(265,504,l),
(309,504,ls),
(416,504,o),
(472,442,o),
(449,328,cs),
(418,176,o),
(320,126,o),
(219,126,cs)
);
}
);
width = 641;
},
{
layerId = "613EF1C7-735E-4737-B49D-EADCFD002D35";
shapes = (
{
closed = 1;
nodes = (
(3,0,l),
(199,0,ls),
(391,0,o),
(568,105,o),
(613,328,cs),
(653,528,o),
(545,630,o),
(349,630,cs),
(129,630,l)
);
},
{
closed = 1;
nodes = (
(175,116,l),
(255,514,l),
(309,514,ls),
(422,514,o),
(481,448,o),
(457,328,cs),
(424,165,o),
(319,116,o),
(213,116,cs)
);
}
);
width = 637;
},
{
layerId = "06ABBA72-70F7-4001-AF7B-C55F8F698FE5";
shapes = (
{
closed = 1;
nodes = (
(16,0,l),
(182,0,ls),
(364,0,o),
(538,86,o),
(587,329,cs),
(627,529,o),
(517,630,o),
(343,630,c),
(142,630,l)
);
},
{
closed = 1;
nodes = (
(121,76,l),
(217,554,l),
(310,554,ls),
(446,554,o),
(518,474,o),
(489,329,cs),
(448,124,o),
(314,76,o),
(189,76,cs)
);
}
);
width = 620;
},
{
layerId = "DC8CD3C6-3F63-4C25-A479-02CA28197BED";
shapes = (
{
closed = 1;
nodes = (
(16,0,l),
(163,0,ls),
(335,0,o),
(499,86,o),
(548,329,cs),
(588,529,o),
(486,630,o),
(323,630,cs),
(142,630,l)
);
},
{
closed = 1;
nodes = (
(75,42,l),
(184,588,l),
(297,588,ls),
(445,588,o),
(528,492,o),
(495,329,cs),
(449,100,o),
(297,42,o),
(162,42,cs)
);
}
);
width = 581;
}
);
leftKerningGroup = public.kern2._D;
rightKerningGroup = public.kern1._D;
unicode = 68;
},
{
glyphname = Dblgrave;
layers = (
{
layerId = "5B161561-7DB5-4139-A0CA-38E113D4AFAB";
shapes = (
{
closed = 1;
nodes = (
(14,809,l),
(99,685,l),
(219,685,l),
(166,809,l)
);
},
{
closed = 1;
nodes = (
(234,809,l),
(320,685,l),
(439,685,l),
(385,809,l)
);
}
);
width = 435;
},
{
layerId = "613EF1C7-735E-4737-B49D-EADCFD002D35";
shapes = (
{
closed = 1;
nodes = (
(27,814,l),
(111,690,l),
(221,690,l),
(168,814,l)
);
},
{
closed = 1;
nodes = (
(240,814,l),
(324,690,l),
(434,690,l),
(380,814,l)
);
}
);
width = 431;
},
{
layerId = "06ABBA72-70F7-4001-AF7B-C55F8F698FE5";
shapes = (
{
closed = 1;
nodes = (
(79,835,l),
(158,710,l),
(228,710,l),
(175,835,l)
);
},
{
closed = 1;
nodes = (
(263,835,l),
(342,710,l),
(413,710,l),
(359,835,l)
);
}
);
width = 415;
},
{
layerId = "DC8CD3C6-3F63-4C25-A479-02CA28197BED";
shapes = (
{
closed = 1;
nodes = (
(84,834,l),
(168,710,l),
(209,710,l),
(146,834,l)
);
},
{
closed = 1;
nodes = (
(251,834,l),
(335,710,l),
(376,710,l),
(313,834,l)
);
}
);
width = 359;
}
);
},
{
glyphname = Dcaron;
layers = (
{
layerId = "5B161561-7DB5-4139-A0CA-38E113D4AFAB";
shapes = (
{
closed = 1;
nodes = (
(0,0,l),
(203,0,ls),
(398,0,o),
(576,110,o),
(620,328,cs),
(660,528,o),
(553,630,o),
(351,630,cs),
(126,630,l)
);
},
{
closed = 1;
nodes = (
(189,126,l),
(265,504,l),
(309,504,ls),
(416,504,o),
(472,442,o),
(449,328,cs),
(418,176,o),
(320,126,o),
(219,126,cs)
);
},
{
closed = 1;
nodes = (
(306,685,l),
(423,685,l),
(554,806,l),
(444,806,l),
(377,747,l),
(335,806,l),
(220,806,l)
);
}
);
width = 641;
},
{
layerId = "613EF1C7-735E-4737-B49D-EADCFD002D35";
shapes = (
{
closed = 1;
nodes = (
(3,0,l),
(199,0,ls),
(391,0,o),
(568,105,o),
(613,328,cs),
(653,528,o),
(545,630,o),
(349,630,cs),
(129,630,l)
);
},
{
closed = 1;
nodes = (
(175,116,l),
(255,514,l),
(309,514,ls),
(422,514,o),
(481,448,o),
(457,328,cs),
(424,165,o),
(319,116,o),
(213,116,cs)
);
},
{
closed = 1;
nodes = (
(311,690,l),
(418,690,l),
(553,814,l),
(449,814,l),
(377,750,l),
(331,814,l),
(224,814,l)
);
}
);
width = 637;
},
{
layerId = "06ABBA72-70F7-4001-AF7B-C55F8F698FE5";
shapes = (
{
closed = 1;
nodes = (
(16,0,l),
(182,0,ls),
(364,0,o),
(538,86,o),
(587,329,cs),
(627,529,o),
(517,630,o),
(343,630,c),
(142,630,l)
);
},
{
closed = 1;
nodes = (
(121,76,l),
(217,554,l),
(310,554,ls),
(446,554,o),
(518,474,o),
(489,329,cs),
(448,124,o),
(314,76,o),
(189,76,cs)
);
},
{
closed = 1;
nodes = (
(332,711,l),
(400,711,l),
(549,845,l),
(471,845,l),
(376,761,l),
(314,845,l),
(240,845,l)
);
}
);
width = 620;
},
{
layerId = "DC8CD3C6-3F63-4C25-A479-02CA28197BED";
shapes = (
{
closed = 1;
nodes = (
(16,0,l),
(163,0,ls),
(335,0,o),
(499,86,o),
(548,329,cs),
(588,529,o),
(486,630,o),
(323,630,cs),
(142,630,l)
);
},
{
closed = 1;
nodes = (
(75,42,l),
(184,588,l),
(297,588,ls),
(445,588,o),
(528,492,o),
(495,329,cs),
(449,100,o),
(297,42,o),
(162,42,cs)
);
},
{
closed = 1;
nodes = (
(308,710,l),
(356,710,l),
(505,844,l),
(446,844,l),
(338,745,l),
(270,844,l),
(215,844,l)
);
}
);
width = 581;
}
);
leftKerningGroup = public.kern2._D;
rightKerningGroup = public.kern1._D;
unicode = 270;
},
{
glyphname = Dcroat;
layers = (
{
layerId = "5B161561-7DB5-4139-A0CA-38E113D4AFAB";
shapes = (
{
closed = 1;
nodes = (
(44,0,l),
(248,0,ls),
(443,0,o),
(621,110,o),
(665,328,cs),
(705,528,o),
(598,630,o),
(396,630,cs),
(170,630,l),
(119,373,l),
(33,373,l),
(11,261,l),
(97,261,l)
);
},
{
closed = 1;
nodes = (
(234,126,l),
(261,261,l),
(367,261,l),
(389,373,l),
(282,373,l),
(309,504,l),
(353,504,ls),
(460,504,o),
(516,442,o),
(493,328,cs),
(462,176,o),
(366,126,o),
(265,126,cs)
);
}
);
width = 687;
},
{
layerId = "613EF1C7-735E-4737-B49D-EADCFD002D35";
shapes = (
{
closed = 1;
nodes = (
(45,0,l),
(241,0,ls),
(433,0,o),
(611,105,o),
(656,328,cs),
(696,528,o),
(588,630,o),
(392,630,cs),
(171,630,l),
(119,370,l),
(35,370,l),
(15,268,l),
(99,268,l)
);
},
{
closed = 1;
nodes = (
(218,116,l),
(248,268,l),
(358,268,l),
(378,370,l),
(268,370,l),
(297,514,l),
(351,514,ls),
(464,514,o),
(523,448,o),
(499,328,cs),
(466,165,o),
(362,116,o),
(256,116,cs)
);
}
);
width = 680;
},
{
layerId = "06ABBA72-70F7-4001-AF7B-C55F8F698FE5";
shapes = (
{
closed = 1;
nodes = (
(49,0,l),
(215,0,ls),
(397,0,o),
(571,86,o),
(620,329,cs),
(660,529,o),
(549,630,o),
(375,630,c),
(175,630,l),
(121,360,l),
(42,360,l),
(30,298,l),
(108,298,l)
);
},
{
closed = 1;
nodes = (
(154,76,l),
(198,298,l),
(324,298,l),
(336,360,l),
(211,360,l),
(250,554,l),
(343,554,ls),
(479,554,o),
(551,474,o),
(522,329,cs),
(481,124,o),
(347,76,o),
(222,76,c)
);
}
);
width = 653;
},
{
layerId = "DC8CD3C6-3F63-4C25-A479-02CA28197BED";
shapes = (
{
closed = 1;
nodes = (
(49,0,l),
(196,0,ls),
(368,0,o),
(532,86,o),
(581,329,cs),
(621,529,o),
(519,630,o),
(356,630,cs),
(175,630,l),
(119,350,l),
(40,350,l),
(32,308,l),
(110,308,l)
);
},
{
closed = 1;
nodes = (
(108,42,l),
(161,308,l),
(326,308,l),
(334,350,l),
(170,350,l),
(217,588,l),
(330,588,ls),
(478,588,o),
(561,492,o),
(528,329,cs),
(482,100,o),
(330,42,o),
(195,42,cs)
);
}
);
width = 614;
}
);
leftKerningGroup = public.kern2._D;
rightKerningGroup = public.kern1._D;
unicode = 272;
},
{
glyphname = Dieresis;
layers = (
{
layerId = "5B161561-7DB5-4139-A0CA-38E113D4AFAB";
shapes = (
{
closed = 1;
nodes = (
(110,703,o),
(135,671,o),
(175,671,cs),
(215,671,o),
(250,703,o),
(259,745,cs),
(267,785,o),
(244,815,o),
(204,815,cs),
(164,815,o),
(127,785,o),
(119,745,cs)
);
},
{
closed = 1;
nodes = (
(320,703,o),
(346,671,o),
(386,671,cs),
(426,671,o),
(461,703,o),
(470,745,cs),
(478,785,o),
(453,815,o),
(413,815,cs),
(373,815,o),
(337,785,o),
(329,745,cs)
);
}
);
width = 403;
},
{
layerId = "613EF1C7-735E-4737-B49D-EADCFD002D35";
shapes = (
{
closed = 1;
nodes = (
(112,709,o),
(136,679,o),
(173,679,cs),
(210,679,o),
(244,709,o),
(252,748,cs),
(259,785,o),
(237,814,o),
(200,814,cs),
(163,814,o),
(127,785,o),
(120,748,cs)
);
},
{
closed = 1;
nodes = (
(313,709,o),
(337,679,o),
(374,679,cs),
(411,679,o),
(445,709,o),
(453,748,cs),
(460,785,o),
(437,814,o),
(400,814,cs),
(363,814,o),
(328,785,o),
(321,748,cs)
);
}
);
width = 387;
},
{
layerId = "06ABBA72-70F7-4001-AF7B-C55F8F698FE5";
shapes = (
{
closed = 1;
nodes = (
(121,734,o),
(139,710,o),
(165,710,cs),
(191,710,o),
(219,734,o),
(224,761,cs),
(229,786,o),
(211,810,o),
(185,810,cs),
(159,810,o),
(131,786,o),
(126,761,cs)
);
},
{
closed = 1;
nodes = (
(284,734,o),
(301,710,o),
(327,710,cs),
(353,710,o),
(382,734,o),
(387,761,cs),
(392,786,o),
(373,810,o),
(347,810,cs),
(321,810,o),
(294,786,o),
(289,761,cs)
);
}
);
width = 323;
},
{
layerId = "DC8CD3C6-3F63-4C25-A479-02CA28197BED";
shapes = (
{
closed = 1;
nodes = (
(117,738,o),
(131,722,o),
(154,722,cs),
(176,722,o),
(196,738,o),
(202,766,cs),
(207,792,o),
(193,810,o),
(171,810,cs),
(148,810,o),
(128,792,o),
(123,766,cs)
);
},
{
closed = 1;
nodes = (
(284,738,o),
(297,722,o),
(320,722,cs),
(342,722,o),
(362,738,o),
(368,766,cs),
(373,792,o),
(360,810,o),
(338,810,cs),
(315,810,o),
(295,792,o),
(290,766,cs)
);
}
);
width = 299;
}
);
},
{
glyphname = DieresisAcute;
layers = (
{
layerId = "5B161561-7DB5-4139-A0CA-38E113D4AFAB";
shapes = (
{
closed = 1;
nodes = (
(110,699,o),
(135,667,o),
(175,667,cs),
(215,667,o),
(250,699,o),
(259,741,cs),
(267,781,o),
(244,811,o),
(204,811,cs),
(164,811,o),
(127,781,o),
(119,741,cs)
);
},
{
closed = 1;
nodes = (
(528,699,o),
(554,667,o),
(594,667,cs),
(634,667,o),
(669,699,o),
(678,741,cs),
(686,781,o),
(663,811,o),
(623,811,cs),
(583,811,o),
(545,781,o),
(537,741,cs)
);
},
{
closed = 1;
nodes = (
(272,673,l),
(404,673,l),
(535,807,l),
(367,807,l)
);
}
);
width = 435;
},
{
layerId = "613EF1C7-735E-4737-B49D-EADCFD002D35";
shapes = (
{
closed = 1;
nodes = (
(112,709,o),
(136,679,o),
(173,679,cs),
(210,679,o),
(244,709,o),
(252,748,cs),
(259,785,o),
(237,814,o),
(200,814,cs),
(163,814,o),
(127,785,o),
(120,748,cs)
);
},
{
closed = 1;
nodes = (
(505,709,o),
(529,679,o),
(566,679,cs),
(603,679,o),
(637,709,o),
(645,748,cs),
(652,785,o),
(630,814,o),
(593,814,cs),
(556,814,o),
(520,785,o),
(513,748,cs)
);
},
{
closed = 1;
nodes = (
(262,680,l),
(382,680,l),
(512,814,l),
(357,814,l)
);
}
);
width = 432;
},
{
layerId = "06ABBA72-70F7-4001-AF7B-C55F8F698FE5";
shapes = (
{
closed = 1;
nodes = (
(121,750,o),
(138,726,o),
(164,726,cs),
(190,726,o),
(219,750,o),
(224,777,cs),
(229,802,o),
(210,826,o),
(184,826,cs),
(158,826,o),
(131,802,o),
(126,777,cs)
);
},
{
closed = 1;
nodes = (
(411,750,o),
(428,726,o),
(454,726,cs),
(480,726,o),
(509,750,o),
(514,777,cs),
(519,802,o),
(500,826,o),
(474,826,cs),
(448,826,o),
(421,802,o),
(416,777,cs)
);
},
{
closed = 1;
nodes = (
(223,710,l),
(293,710,l),
(419,844,l),
(318,844,l)
);
}
);
width = 422;
},
{
layerId = "DC8CD3C6-3F63-4C25-A479-02CA28197BED";
shapes = (
{
closed = 1;
nodes = (
(119,747,o),
(133,731,o),
(156,731,cs),
(178,731,o),
(198,747,o),
(204,775,cs),
(209,801,o),
(195,819,o),
(173,819,cs),
(150,819,o),
(130,801,o),
(125,775,cs)
);
},
{
closed = 1;
nodes = (
(374,747,o),
(387,731,o),
(410,731,cs),
(431,731,o),
(452,747,o),
(458,775,cs),
(463,801,o),
(450,819,o),
(428,819,cs),
(405,819,o),
(385,801,o),
(380,775,cs)
);
},
{
closed = 1;
nodes = (
(211,710,l),
(252,710,l),
(378,844,l),
(316,844,l)
);
}
);
width = 387;
}
);
},
{
glyphname = DieresisGrave;
layers = (
{
layerId = "5B161561-7DB5-4139-A0CA-38E113D4AFAB";
shapes = (
{
closed = 1;
nodes = (
(528,699,o),
(554,667,o),
(594,667,cs),
(634,667,o),
(669,699,o),
(678,741,cs),
(686,781,o),
(663,811,o),
(623,811,cs),
(583,811,o),
(545,781,o),
(537,741,cs)
);
},
{
closed = 1;
nodes = (
(110,699,o),
(135,667,o),
(175,667,cs),
(215,667,o),
(250,699,o),
(259,741,cs),
(267,781,o),
(244,811,o),
(204,811,cs),
(164,811,o),
(127,781,o),
(119,741,cs)
);
},
{
closed = 1;
nodes = (
(287,807,l),
(365,673,l),
(498,673,l),
(456,807,l)
);
}
);
width = 436;
},
{
layerId = "613EF1C7-735E-4737-B49D-EADCFD002D35";
shapes = (
{
closed = 1;
nodes = (
(505,709,o),
(529,679,o),
(566,679,cs),
(603,679,o),
(637,709,o),
(645,748,cs),
(652,785,o),
(630,814,o),
(593,814,cs),
(556,814,o),
(520,785,o),
(513,748,cs)
);
},
{
closed = 1;
nodes = (
(112,709,o),
(136,679,o),
(173,679,cs),
(210,679,o),
(244,709,o),
(252,748,cs),
(259,785,o),
(237,814,o),
(200,814,cs),
(163,814,o),
(127,785,o),
(120,748,cs)
);
},
{
closed = 1;
nodes = (
(279,814,l),
(356,680,l),
(476,680,l),
(434,814,l)
);
}
);
width = 433;
},
{
layerId = "06ABBA72-70F7-4001-AF7B-C55F8F698FE5";
shapes = (
{
closed = 1;
nodes = (
(411,750,o),
(428,726,o),
(454,726,cs),
(480,726,o),
(509,750,o),
(514,777,cs),
(519,802,o),
(500,826,o),
(474,826,cs),
(448,826,o),
(421,802,o),
(416,777,cs)
);
},
{
closed = 1;
nodes = (
(121,750,o),
(138,726,o),
(164,726,cs),
(190,726,o),
(219,750,o),
(224,777,cs),
(229,802,o),
(210,826,o),
(184,826,cs),
(158,826,o),
(131,802,o),
(126,777,cs)
);
},
{
closed = 1;
nodes = (
(247,844,l),
(319,710,l),
(390,710,l),
(348,844,l)
);
}
);
width = 423;
},
{
layerId = "DC8CD3C6-3F63-4C25-A479-02CA28197BED";
shapes = (
{
closed = 1;
nodes = (
(374,747,o),
(388,731,o),
(410,731,cs),
(433,731,o),
(452,747,o),
(458,775,cs),
(463,801,o),
(451,819,o),
(428,819,cs),
(406,819,o),
(385,801,o),
(380,775,cs)
);
},
{
closed = 1;
nodes = (
(119,747,o),
(135,731,o),
(156,731,cs),
(179,731,o),
(198,747,o),
(204,775,cs),
(209,801,o),
(196,819,o),
(173,819,cs),
(151,819,o),
(130,801,o),
(125,775,cs)
);
},
{
closed = 1;
nodes = (
(233,844,l),
(305,710,l),
(346,710,l),
(295,844,l)
);
}
);
width = 387;
}
);
},
{
glyphname = Dotaccent;
layers = (
{
layerId = "5B161561-7DB5-4139-A0CA-38E113D4AFAB";
shapes = (
{
closed = 1;
nodes = (
(111,702,o),
(136,671,o),
(175,671,cs),
(214,671,o),
(249,702,o),
(257,743,cs),
(264,782,o),
(242,812,o),
(203,812,cs),
(164,812,o),
(126,782,o),
(119,743,cs)
);
}
);
width = 192;
},
{
layerId = "613EF1C7-735E-4737-B49D-EADCFD002D35";
shapes = (
{
closed = 1;
nodes = (
(112,709,o),
(136,679,o),
(173,679,cs),
(210,679,o),
(244,709,o),
(252,748,cs),
(259,785,o),
(237,814,o),
(200,814,cs),
(163,814,o),
(127,785,o),
(120,748,cs)
);
}
);
width = 186;
},
{
layerId = "06ABBA72-70F7-4001-AF7B-C55F8F698FE5";
shapes = (
{
closed = 1;
nodes = (
(117,736,o),
(138,710,o),
(166,710,cs),
(196,710,o),
(226,736,o),
(232,767,cs),
(238,795,o),
(219,822,o),
(189,822,cs),
(161,822,o),
(129,795,o),
(123,767,cs)
);
}
);
width = 162;
},
{
layerId = "DC8CD3C6-3F63-4C25-A479-02CA28197BED";
shapes = (
{
closed = 1;
nodes = (
(117,739,o),
(130,723,o),
(153,723,cs),
(175,723,o),
(195,739,o),
(201,767,cs),
(206,793,o),
(193,811,o),
(171,811,cs),
(148,811,o),
(128,793,o),
(123,767,cs)
);
}
);
width = 132;
}
);
},
{
glyphname = Dsmall;
layers = (
{
layerId = "5B161561-7DB5-4139-A0CA-38E113D4AFAB";
shapes = (
{
closed = 1;
nodes = (
(-9,0,l),
(175,0,ls),
(324,0,o),
(454,71,o),
(490,251,cs),
(523,414,o),
(429,483,o),
(290,483,cs),
(88,483,l)
);
},
{
closed = 1;
nodes = (
(169,119,l),
(219,364,l),
(241,364,ls),
(320,364,o),
(348,319,o),
(333,248,cs),
(312,143,o),
(241,119,o),
(193,119,cs)
);
}
);
width = 526;
},
{
layerId = "613EF1C7-735E-4737-B49D-EADCFD002D35";
shapes = (
{
closed = 1;
nodes = (
(-4,0,l),
(173,0,ls),
(319,0,o),
(447,72,o),
(483,250,cs),
(516,413,o),
(420,480,o),
(285,480,cs),
(92,480,l)
);
},
{
closed = 1;
nodes = (
(158,109,l),
(211,371,l),
(238,371,ls),
(324,371,o),
(356,325,o),
(340,247,cs),
(317,133,o),
(239,109,o),
(186,109,cs)
);
}
);
width = 521;
},
{
layerId = "06ABBA72-70F7-4001-AF7B-C55F8F698FE5";
shapes = (
{
closed = 1;
nodes = (
(16,0,l),
(165,0,ls),
(300,0,o),
(420,75,o),
(454,246,cs),
(487,409,o),
(386,470,o),
(265,470,c),
(110,470,l)
);
},
{
closed = 1;
nodes = (
(113,69,l),
(180,401,l),
(226,401,ls),
(339,401,o),
(389,349,o),
(368,243,cs),
(338,92,o),
(232,69,o),
(160,69,cs)
);
}
);
width = 503;
},
{
layerId = "DC8CD3C6-3F63-4C25-A479-02CA28197BED";
shapes = (
{
closed = 1;
nodes = (
(5,0,l),
(116,0,ls),
(251,0,o),
(372,75,o),
(406,246,cs),
(439,409,o),
(337,470,o),
(216,470,cs),
(99,470,l)
);
},
{
closed = 1;
nodes = (
(58,38,l),
(137,432,l),
(183,432,ls),
(323,432,o),
(382,370,o),
(357,243,cs),
(321,65,o),
(192,38,o),
(105,38,cs)
);
}
);
width = 447;
}
);
unicode = 7429;
},
{
glyphname = E;
layers = (
{
layerId = "5B161561-7DB5-4139-A0CA-38E113D4AFAB";
shapes = (
{
closed = 1;
nodes = (
(0,0,l),
(425,0,l),
(450,126,l),
(189,126,l),
(217,265,l),
(449,265,l),
(474,390,l),
(242,390,l),
(265,504,l),
(522,504,l),
(548,630,l),
(126,630,l)
);
}
);
width = 511;
},
{
layerId = "613EF1C7-735E-4737-B49D-EADCFD002D35";
shapes = (
{
closed = 1;
nodes = (
(3,0,l),
(418,0,l),
(441,116,l),
(175,116,l),
(206,270,l),
(443,270,l),
(466,385,l),
(229,385,l),
(255,514,l),
(517,514,l),
(541,630,l),
(129,630,l)
);
}
);
width = 505;
},
{
layerId = "06ABBA72-70F7-4001-AF7B-C55F8F698FE5";
shapes = (
{
closed = 1;
nodes = (
(16,0,l),
(391,0,l),
(406,76,l),
(121,76,l),
(164,290,l),
(421,290,l),
(436,365,l),
(179,365,l),
(217,554,l),
(499,554,l),
(514,630,l),
(142,630,l)
);
}
);
width = 482;
},
{
layerId = "DC8CD3C6-3F63-4C25-A479-02CA28197BED";
shapes = (
{
closed = 1;
nodes = (
(16,0,l),
(372,0,l),
(380,42,l),
(75,42,l),
(127,303,l),
(404,303,l),
(412,345,l),
(136,345,l),
(184,588,l),
(486,588,l),
(494,630,l),
(142,630,l)
);
}
);
width = 468;
}
);
leftKerningGroup = public.kern2._E;
rightKerningGroup = public.kern1._E;
unicode = 69;
},
{
glyphname = Eacute;
layers = (
{
layerId = "5B161561-7DB5-4139-A0CA-38E113D4AFAB";
shapes = (
{
closed = 1;
nodes = (
(0,0,l),
(425,0,l),
(450,126,l),
(189,126,l),
(217,265,l),
(449,265,l),
(474,390,l),
(242,390,l),
(265,504,l),
(522,504,l),
(548,630,l),
(126,630,l)
);
},
{
closed = 1;
nodes = (
(222,685,l),
(354,685,l),
(494,809,l),
(325,809,l)
);
}
);
width = 511;
},
{
layerId = "613EF1C7-735E-4737-B49D-EADCFD002D35";
shapes = (
{
closed = 1;
nodes = (
(3,0,l),
(418,0,l),
(441,116,l),
(175,116,l),
(206,270,l),
(443,270,l),
(466,385,l),
(229,385,l),
(255,514,l),
(517,514,l),
(541,630,l),
(129,630,l)
);
},
{
closed = 1;
nodes = (
(233,690,l),
(353,690,l),
(491,814,l),
(336,814,l)
);
}
);
width = 505;
},
{
layerId = "06ABBA72-70F7-4001-AF7B-C55F8F698FE5";
shapes = (
{
closed = 1;
nodes = (
(16,0,l),
(391,0,l),
(406,76,l),
(121,76,l),
(164,290,l),
(421,290,l),
(436,365,l),
(179,365,l),
(217,554,l),
(499,554,l),
(514,630,l),
(142,630,l)
);
},
{
closed = 1;
nodes = (
(277,710,l),
(348,710,l),
(481,834,l),
(380,834,l)
);
}
);
width = 482;
},
{
layerId = "DC8CD3C6-3F63-4C25-A479-02CA28197BED";
shapes = (
{
closed = 1;
nodes = (
(16,0,l),
(372,0,l),
(380,42,l),
(75,42,l),
(127,303,l),
(404,303,l),
(412,345,l),
(136,345,l),
(184,588,l),
(486,588,l),
(494,630,l),
(142,630,l)
);
},
{
closed = 1;
nodes = (
(274,710,l),
(315,710,l),
(449,834,l),
(387,834,l)
);
}
);
width = 468;
}
);
leftKerningGroup = public.kern2._E;
rightKerningGroup = public.kern1._E;
unicode = 201;
},
{
glyphname = Ebreve;
layers = (
{
layerId = "5B161561-7DB5-4139-A0CA-38E113D4AFAB";
shapes = (
{
closed = 1;
nodes = (
(0,0,l),
(425,0,l),
(450,126,l),
(189,126,l),
(217,265,l),
(449,265,l),
(474,390,l),
(242,390,l),
(265,504,l),
(522,504,l),
(548,630,l),
(126,630,l)
);
},
{
closed = 1;
nodes = (
(242,806,l),
(228,734,o),
(256,676,o),
(349,676,cs),
(433,676,o),
(490,723,o),
(506,806,c),
(420,806,l),
(414,776,o),
(394,761,o),
(366,761,cs),
(336,761,o),
(323,779,o),
(328,806,c)
);
}
);
width = 511;
},
{
layerId = "613EF1C7-735E-4737-B49D-EADCFD002D35";
shapes = (
{
closed = 1;
nodes = (
(3,0,l),
(418,0,l),
(441,116,l),
(175,116,l),
(206,270,l),
(443,270,l),
(466,385,l),
(229,385,l),
(255,514,l),
(517,514,l),
(541,630,l),
(129,630,l)
);
},
{
closed = 1;
nodes = (
(243,814,l),
(229,744,o),
(257,685,o),
(350,685,cs),
(434,685,o),
(491,733,o),
(507,814,c),
(426,814,l),
(418,781,o),
(397,764,o),
(366,764,cs),
(331,764,o),
(319,784,o),
(324,814,c)
);
}
);
width = 505;
},
{
layerId = "06ABBA72-70F7-4001-AF7B-C55F8F698FE5";
shapes = (
{
closed = 1;
nodes = (
(16,0,l),
(391,0,l),
(406,76,l),
(121,76,l),
(164,290,l),
(421,290,l),
(436,365,l),
(179,365,l),
(217,554,l),
(499,554,l),
(514,630,l),
(142,630,l)
);
},
{
closed = 1;
nodes = (
(249,846,l),
(237,784,o),
(263,722,o),
(356,722,cs),
(440,722,o),
(498,774,o),
(512,846,c),
(451,846,l),
(437,801,o),
(412,776,o),
(367,776,cs),
(314,776,o),
(306,803,o),
(310,846,c)
);
}
);
width = 482;
},
{
layerId = "DC8CD3C6-3F63-4C25-A479-02CA28197BED";
shapes = (
{
closed = 1;
nodes = (
(16,0,l),
(372,0,l),
(380,42,l),
(75,42,l),
(127,303,l),
(404,303,l),
(412,345,l),
(136,345,l),
(184,588,l),
(486,588,l),
(494,630,l),
(142,630,l)
);
},
{
closed = 1;
nodes = (
(229,834,l),
(216,769,o),
(245,710,o),
(338,710,cs),
(422,710,o),
(479,762,o),
(493,834,c),
(446,834,l),
(434,781,o),
(397,750,o),
(346,750,cs),
(285,750,o),
(268,784,o),
(277,834,c)
);
}
);
width = 468;
}
);
leftKerningGroup = public.kern2._E;
rightKerningGroup = public.kern1._E;
unicode = 276;
},
{
glyphname = Ecaron;
layers = (
{
layerId = "5B161561-7DB5-4139-A0CA-38E113D4AFAB";
shapes = (
{
closed = 1;
nodes = (
(0,0,l),
(425,0,l),
(450,126,l),
(189,126,l),
(217,265,l),
(449,265,l),
(474,390,l),
(242,390,l),
(265,504,l),
(522,504,l),
(548,630,l),
(126,630,l)
);
},
{
closed = 1;
nodes = (
(290,685,l),
(407,685,l),
(537,806,l),
(426,806,l),
(361,748,l),
(318,806,l),
(203,806,l)
);
}
);
width = 511;
},
{
layerId = "613EF1C7-735E-4737-B49D-EADCFD002D35";
shapes = (
{
closed = 1;
nodes = (
(3,0,l),
(418,0,l),
(441,116,l),
(175,116,l),
(206,270,l),
(443,270,l),
(466,385,l),
(229,385,l),
(255,514,l),
(517,514,l),
(541,630,l),
(129,630,l)
);
},
{
closed = 1;
nodes = (
(296,690,l),
(403,690,l),
(537,814,l),
(433,814,l),
(362,750,l),
(316,814,l),
(208,814,l)
);
}
);
width = 505;
},
{
layerId = "06ABBA72-70F7-4001-AF7B-C55F8F698FE5";
shapes = (
{
closed = 1;
nodes = (
(16,0,l),
(391,0,l),
(406,76,l),
(121,76,l),
(164,290,l),
(421,290,l),
(436,365,l),
(179,365,l),
(217,554,l),
(499,554,l),
(514,630,l),
(142,630,l)
);
},
{
closed = 1;
nodes = (
(322,711,l),
(389,711,l),
(538,845,l),
(461,845,l),
(366,758,l),
(307,845,l),
(229,845,l)
);
}
);
width = 482;
},
{
layerId = "DC8CD3C6-3F63-4C25-A479-02CA28197BED";
shapes = (
{
closed = 1;
nodes = (
(16,0,l),
(372,0,l),
(380,42,l),
(75,42,l),
(127,303,l),
(404,303,l),
(412,345,l),
(136,345,l),
(184,588,l),
(486,588,l),
(494,630,l),
(142,630,l)
);
},
{
closed = 1;
nodes = (
(315,711,l),
(363,711,l),
(512,845,l),
(453,845,l),
(345,746,l),
(277,845,l),
(222,845,l)
);
}
);
width = 468;
}
);
leftKerningGroup = public.kern2._E;
rightKerningGroup = public.kern1._E;
unicode = 282;
},
{
glyphname = Ecircumflex;
layers = (
{
layerId = "5B161561-7DB5-4139-A0CA-38E113D4AFAB";
shapes = (
{
closed = 1;
nodes = (
(0,0,l),
(425,0,l),
(450,126,l),
(189,126,l),
(217,265,l),
(449,265,l),
(474,390,l),
(242,390,l),
(265,504,l),
(522,504,l),
(548,630,l),
(126,630,l)
);
},
{
closed = 1;
nodes = (
(176,685,l),
(287,685,l),
(353,744,l),
(395,685,l),
(509,685,l),
(425,807,l),
(308,807,l)
);
}
);
width = 511;
},
{
layerId = "613EF1C7-735E-4737-B49D-EADCFD002D35";
shapes = (
{
closed = 1;
nodes = (
(3,0,l),
(418,0,l),
(441,116,l),
(175,116,l),
(206,270,l),
(443,270,l),
(466,385,l),
(229,385,l),
(255,514,l),
(517,514,l),
(541,630,l),
(129,630,l)
);
},
{
closed = 1;
nodes = (
(177,690,l),
(281,690,l),
(353,754,l),
(399,690,l),
(506,690,l),
(419,814,l),
(312,814,l)
);
}
);
width = 505;
},
{
layerId = "06ABBA72-70F7-4001-AF7B-C55F8F698FE5";
shapes = (
{
closed = 1;
nodes = (
(16,0,l),
(391,0,l),
(406,76,l),
(121,76,l),
(164,290,l),
(421,290,l),
(436,365,l),
(179,365,l),
(217,554,l),
(499,554,l),
(514,630,l),
(142,630,l)
);
},
{
closed = 1;
nodes = (
(183,710,l),
(258,710,l),
(353,794,l),
(414,710,l),
(493,710,l),
(397,844,l),
(329,844,l)
);
}
);
width = 482;
},
{
layerId = "DC8CD3C6-3F63-4C25-A479-02CA28197BED";
shapes = (
{
closed = 1;
nodes = (
(16,0,l),
(372,0,l),
(380,42,l),
(75,42,l),
(127,303,l),
(404,303,l),
(412,345,l),
(136,345,l),
(184,588,l),
(486,588,l),
(494,630,l),
(142,630,l)
);
},
{
closed = 1;
nodes = (
(195,710,l),
(250,710,l),
(358,809,l),
(426,710,l),
(485,710,l),
(389,844,l),
(341,844,l)
);
}
);
width = 468;
}
);
leftKerningGroup = public.kern2._E;
rightKerningGroup = public.kern1._E;
unicode = 202;
},
{
glyphname = Edieresis;
layers = (
{
layerId = "5B161561-7DB5-4139-A0CA-38E113D4AFAB";
shapes = (
{
closed = 1;
nodes = (
(0,0,l),
(425,0,l),
(450,126,l),
(189,126,l),
(217,265,l),
(449,265,l),
(474,390,l),
(242,390,l),
(265,504,l),
(522,504,l),
(548,630,l),
(126,630,l)
);
},
{
closed = 1;
nodes = (
(172,703,o),
(198,671,o),
(238,671,cs),
(278,671,o),
(313,703,o),
(322,745,cs),
(330,785,o),
(307,815,o),
(267,815,cs),
(227,815,o),
(189,785,o),
(181,745,cs)
);
},
{
closed = 1;
nodes = (
(383,703,o),
(408,671,o),
(448,671,cs),
(488,671,o),
(523,703,o),
(532,745,cs),
(540,785,o),
(516,815,o),
(476,815,cs),
(436,815,o),
(400,785,o),
(392,745,cs)
);
}
);
width = 511;
},
{
layerId = "613EF1C7-735E-4737-B49D-EADCFD002D35";
shapes = (
{
closed = 1;
nodes = (
(3,0,l),
(418,0,l),
(441,116,l),
(175,116,l),
(206,270,l),
(443,270,l),
(466,385,l),
(229,385,l),
(255,514,l),
(517,514,l),
(541,630,l),
(129,630,l)
);
},
{
closed = 1;
nodes = (
(182,709,o),
(206,679,o),
(243,679,cs),
(280,679,o),
(314,709,o),
(322,748,cs),
(329,785,o),
(307,814,o),
(270,814,cs),
(233,814,o),
(197,785,o),
(190,748,cs)
);
},
{
closed = 1;
nodes = (
(383,709,o),
(407,679,o),
(444,679,cs),
(481,679,o),
(515,709,o),
(523,748,cs),
(530,785,o),
(507,814,o),
(470,814,cs),
(433,814,o),
(398,785,o),
(391,748,cs)
);
}
);
width = 505;
},
{
layerId = "06ABBA72-70F7-4001-AF7B-C55F8F698FE5";
shapes = (
{
closed = 1;
nodes = (
(16,0,l),
(391,0,l),
(406,76,l),
(121,76,l),
(164,290,l),
(421,290,l),
(436,365,l),
(179,365,l),
(217,554,l),
(499,554,l),
(514,630,l),
(142,630,l)
);
},
{
closed = 1;
nodes = (
(221,734,o),
(238,710,o),
(264,710,cs),
(290,710,o),
(319,734,o),
(324,761,cs),
(329,786,o),
(310,810,o),
(284,810,cs),
(258,810,o),
(231,786,o),
(226,761,cs)
);
},
{
closed = 1;
nodes = (
(383,734,o),
(401,710,o),
(427,710,cs),
(453,710,o),
(481,734,o),
(486,761,cs),
(491,786,o),
(473,810,o),
(447,810,cs),
(421,810,o),
(393,786,o),
(388,761,cs)
);
}
);
width = 482;
},
{
layerId = "DC8CD3C6-3F63-4C25-A479-02CA28197BED";
shapes = (
{
closed = 1;
nodes = (
(16,0,l),
(372,0,l),
(380,42,l),
(75,42,l),
(127,303,l),
(404,303,l),
(412,345,l),
(136,345,l),
(184,588,l),
(486,588,l),
(494,630,l),
(142,630,l)
);
},
{
closed = 1;
nodes = (
(221,738,o),
(234,722,o),
(257,722,cs),
(279,722,o),
(299,738,o),
(305,766,cs),
(310,792,o),
(297,810,o),
(275,810,cs),
(252,810,o),
(232,792,o),
(227,766,cs)
);
},
{
closed = 1;
nodes = (
(387,738,o),
(401,722,o),
(424,722,cs),
(446,722,o),
(466,738,o),
(472,766,cs),
(477,792,o),
(463,810,o),
(441,810,cs),
(418,810,o),
(398,792,o),
(393,766,cs)
);
}
);
width = 468;
}
);
leftKerningGroup = public.kern2._E;
rightKerningGroup = public.kern1._E;
unicode = 203;
},
{
glyphname = Edotaccent;
layers = (
{
layerId = "5B161561-7DB5-4139-A0CA-38E113D4AFAB";
shapes = (
{
closed = 1;
nodes = (
(0,0,l),
(425,0,l),
(450,126,l),
(189,126,l),
(217,265,l),
(449,265,l),
(474,390,l),
(242,390,l),
(265,504,l),
(522,504,l),
(548,630,l),
(126,630,l)
);
},
{
closed = 1;
nodes = (
(286,702,o),
(309,671,o),
(348,671,cs),
(387,671,o),
(423,702,o),
(431,743,cs),
(438,782,o),
(415,812,o),
(376,812,cs),
(337,812,o),
(301,782,o),
(294,743,cs)
);
}
);
width = 511;
},
{
layerId = "613EF1C7-735E-4737-B49D-EADCFD002D35";
shapes = (
{
closed = 1;
nodes = (
(3,0,l),
(418,0,l),
(441,116,l),
(175,116,l),
(206,270,l),
(443,270,l),
(466,385,l),
(229,385,l),
(255,514,l),
(517,514,l),
(541,630,l),
(129,630,l)
);
},
{
closed = 1;
nodes = (
(290,709,o),
(313,679,o),
(350,679,cs),
(387,679,o),
(422,709,o),
(430,748,cs),
(437,785,o),
(414,814,o),
(377,814,cs),
(340,814,o),
(305,785,o),
(298,748,cs)
);
}
);
width = 505;
},
{
layerId = "06ABBA72-70F7-4001-AF7B-C55F8F698FE5";
shapes = (
{
closed = 1;
nodes = (
(16,0,l),
(391,0,l),
(406,76,l),
(121,76,l),
(164,290,l),
(421,290,l),
(436,365,l),
(179,365,l),
(217,554,l),
(499,554,l),
(514,630,l),
(142,630,l)
);
},
{
closed = 1;
nodes = (
(309,736,o),
(331,710,o),
(359,710,cs),
(389,710,o),
(419,736,o),
(425,767,cs),
(431,795,o),
(411,822,o),
(381,822,cs),
(353,822,o),
(321,795,o),
(315,767,cs)
);
}
);
width = 482;
},
{
layerId = "DC8CD3C6-3F63-4C25-A479-02CA28197BED";
shapes = (
{
closed = 1;
nodes = (
(16,0,l),
(372,0,l),
(380,42,l),
(75,42,l),
(127,303,l),
(404,303,l),
(412,345,l),
(136,345,l),
(184,588,l),
(486,588,l),
(494,630,l),
(142,630,l)
);
},
{
closed = 1;
nodes = (
(306,750,o),
(320,734,o),
(343,734,cs),
(365,734,o),
(385,750,o),
(391,778,cs),
(396,804,o),
(382,822,o),
(360,822,cs),
(337,822,o),
(317,804,o),
(312,778,cs)
);
}
);
width = 468;
}
);
leftKerningGroup = public.kern2._E;
rightKerningGroup = public.kern1._E;
unicode = 278;
},
{
glyphname = Egrave;
layers = (
{
layerId = "5B161561-7DB5-4139-A0CA-38E113D4AFAB";
shapes = (
{
closed = 1;
nodes = (
(0,0,l),
(425,0,l),
(450,126,l),
(189,126,l),
(217,265,l),
(449,265,l),
(474,390,l),
(242,390,l),
(265,504,l),
(522,504,l),
(548,630,l),
(126,630,l)
);
},
{
closed = 1;
nodes = (
(255,809,l),
(345,685,l),
(476,685,l),
(423,809,l)
);
}
);
width = 509;
},
{
layerId = "613EF1C7-735E-4737-B49D-EADCFD002D35";
shapes = (
{
closed = 1;
nodes = (
(3,0,l),
(418,0,l),
(441,116,l),
(175,116,l),
(206,270,l),
(443,270,l),
(466,385,l),
(229,385,l),
(255,514,l),
(517,514,l),
(541,630,l),
(129,630,l)
);
},
{
closed = 1;
nodes = (
(258,814,l),
(347,690,l),
(466,690,l),
(413,814,l)
);
}
);
width = 505;
},
{
layerId = "06ABBA72-70F7-4001-AF7B-C55F8F698FE5";
shapes = (
{
closed = 1;
nodes = (
(16,0,l),
(391,0,l),
(406,76,l),
(121,76,l),
(164,290,l),
(421,290,l),
(436,365,l),
(179,365,l),
(217,554,l),
(499,554,l),
(514,630,l),
(142,630,l)
);
},
{
closed = 1;
nodes = (
(271,834,l),
(355,710,l),
(425,710,l),
(372,834,l)
);
}
);
width = 488;
},
{
layerId = "DC8CD3C6-3F63-4C25-A479-02CA28197BED";
shapes = (
{
closed = 1;
nodes = (
(16,0,l),
(372,0,l),
(380,42,l),
(75,42,l),
(127,303,l),
(404,303,l),
(412,345,l),
(136,345,l),
(184,588,l),
(486,588,l),
(494,630,l),
(142,630,l)
);
},
{
closed = 1;
nodes = (
(291,834,l),
(375,710,l),
(416,710,l),
(353,834,l)
);
}
);
width = 468;
}
);
leftKerningGroup = public.kern2._E;
rightKerningGroup = public.kern1._E;
unicode = 200;
},
{
glyphname = Emacron;
layers = (
{
layerId = "5B161561-7DB5-4139-A0CA-38E113D4AFAB";
shapes = (
{
closed = 1;
nodes = (
(0,0,l),
(425,0,l),
(450,126,l),
(189,126,l),
(217,265,l),
(449,265,l),
(474,390,l),
(242,390,l),
(265,504,l),
(522,504,l),
(548,630,l),
(126,630,l)
);
},
{
closed = 1;
nodes = (
(210,685,l),
(469,685,l),
(487,772,l),
(228,772,l)
);
}
);
width = 511;
},
{
layerId = "613EF1C7-735E-4737-B49D-EADCFD002D35";
shapes = (
{
closed = 1;
nodes = (
(3,0,l),
(418,0,l),
(441,116,l),
(175,116,l),
(206,270,l),
(443,270,l),
(466,385,l),
(229,385,l),
(255,514,l),
(517,514,l),
(541,630,l),
(129,630,l)
);
},
{
closed = 1;
nodes = (
(213,690,l),
(468,690,l),
(485,772,l),
(230,772,l)
);
}
);
width = 505;
},
{
layerId = "06ABBA72-70F7-4001-AF7B-C55F8F698FE5";
shapes = (
{
closed = 1;
nodes = (
(16,0,l),
(391,0,l),
(406,76,l),
(121,76,l),
(164,290,l),
(421,290,l),
(436,365,l),
(179,365,l),
(217,554,l),
(499,554,l),
(514,630,l),
(142,630,l)
);
},
{
closed = 1;
nodes = (
(224,710,l),
(464,710,l),
(477,772,l),
(237,772,l)
);
}
);
width = 482;
},
{
layerId = "DC8CD3C6-3F63-4C25-A479-02CA28197BED";
shapes = (
{
closed = 1;
nodes = (
(16,0,l),
(372,0,l),
(380,42,l),
(75,42,l),
(127,303,l),
(404,303,l),
(412,345,l),
(136,345,l),
(184,588,l),
(486,588,l),
(494,630,l),
(142,630,l)
);
},
{
closed = 1;
nodes = (
(222,730,l),
(463,730,l),
(471,772,l),
(231,772,l)
);
}
);
width = 468;
}
);
leftKerningGroup = public.kern2._E;
rightKerningGroup = public.kern1._E;
unicode = 274;
},
{
glyphname = Eng;
layers = (
{
layerId = "5B161561-7DB5-4139-A0CA-38E113D4AFAB";
shapes = (
{
closed = 1;
nodes = (
(0,0,l),
(149,0,l),
(183,169,ls),
(200,255,o),
(217,335,o),
(227,425,c),
(229,425,l),
(240,333,o),
(268,251,o),
(306,170,c),
(377,0,l),
(348,-65,o),
(295,-110,o),
(239,-144,c),
(284,-251,l),
(450,-182,o),
(523,-56,o),
(555,105,cs),
(659,630,l),
(510,630,l),
(476,462,ls),
(459,376,o),
(441,289,o),
(432,204,c),
(430,204,l),
(419,279,o),
(381,382,o),
(344,471,cs),
(278,630,l),
(126,630,l)
);
}
);
width = 647;
},
{
layerId = "613EF1C7-735E-4737-B49D-EADCFD002D35";
shapes = (
{
closed = 1;
nodes = (
(3,0,l),
(140,0,l),
(180,200,ls),
(196,280,o),
(211,356,o),
(221,439,c),
(223,439,l),
(234,358,o),
(260,285,o),
(293,215,c),
(387,-1,l),
(358,-71,o),
(308,-115,o),
(248,-150,c),
(289,-249,l),
(450,-182,o),
(518,-62,o),
(550,97,cs),
(656,630,l),
(519,630,l),
(478,426,ls),
(462,346,o),
(446,264,o),
(437,185,c),
(435,185,l),
(424,251,o),
(391,341,o),
(359,419,c),
(266,630,l),
(129,630,l)
);
}
);
width = 647;
},
{
layerId = "06ABBA72-70F7-4001-AF7B-C55F8F698FE5";
shapes = (
{
closed = 1;
nodes = (
(16,0,l),
(104,0,l),
(169,326,ls),
(180,382,o),
(191,438,o),
(199,494,c),
(201,494,l),
(212,459,o),
(227,422,o),
(241,394,cs),
(429,-5,l),
(402,-94,o),
(361,-137,o),
(284,-174,c),
(311,-240,l),
(454,-181,o),
(502,-86,o),
(532,66,cs),
(644,630,l),
(556,630,l),
(486,281,ls),
(475,225,o),
(465,167,o),
(457,111,c),
(455,111,l),
(446,143,o),
(432,179,o),
(418,211,c),
(220,630,l),
(142,630,l)
);
}
);
width = 647;
},
{
layerId = "DC8CD3C6-3F63-4C25-A479-02CA28197BED";
shapes = (
{
closed = 1;
nodes = (
(16,0,l),
(65,0,l),
(140,376,ls),
(152,438,o),
(164,500,o),
(174,562,c),
(176,562,l),
(193,507,o),
(215,450,o),
(239,396,cs),
(417,-7,l),
(397,-80,o),
(354,-130,o),
(274,-174,c),
(291,-215,l),
(404,-162,o),
(452,-89,o),
(481,57,cs),
(595,630,l),
(546,630,l),
(466,226,ls),
(456,175,o),
(445,123,o),
(437,72,c),
(435,72,l),
(417,117,o),
(395,161,o),
(375,206,cs),
(191,630,l),
(142,630,l)
);
}
);
width = 599;
}
);
leftKerningGroup = public.kern2._N;
rightKerningGroup = public.kern1._N;
unicode = 330;
},
{
glyphname = Eogonek;
layers = (
{
layerId = "5B161561-7DB5-4139-A0CA-38E113D4AFAB";
shapes = (
{
closed = 1;
nodes = (
(0,0,l),
(333,0,l),
(333,-3,l),
(312,-25,o),
(290,-57,o),
(281,-103,cs),
(269,-165,o),
(306,-206,o),
(366,-206,cs),
(400,-206,o),
(436,-197,o),
(458,-184,c),
(452,-101,l),
(441,-105,o),
(432,-109,o),
(415,-109,cs),
(392,-109,o),
(381,-93,o),
(386,-70,c),
(390,-47,o),
(407,-22,o),
(425,0,c),
(450,126,l),
(189,126,l),
(217,265,l),
(449,265,l),
(474,390,l),
(242,390,l),
(265,504,l),
(522,504,l),
(548,630,l),
(126,630,l)
);
}
);
width = 516;
},
{
layerId = "613EF1C7-735E-4737-B49D-EADCFD002D35";
shapes = (
{
closed = 1;
nodes = (
(3,0,l),
(327,0,l),
(327,-3,l),
(301,-24,o),
(274,-57,o),
(265,-104,cs),
(253,-166,o),
(290,-206,o),
(350,-206,cs),
(383,-206,o),
(417,-197,o),
(440,-184,c),
(435,-108,l),
(423,-112,o),
(412,-116,o),
(395,-116,cs),
(370,-116,o),
(358,-100,o),
(363,-75,cs),
(368,-48,o),
(391,-23,o),
(418,0,c),
(441,116,l),
(175,116,l),
(206,270,l),
(443,270,l),
(466,385,l),
(229,385,l),
(255,514,l),
(517,514,l),
(541,630,l),
(129,630,l)
);
}
);
width = 509;
},
{
layerId = "06ABBA72-70F7-4001-AF7B-C55F8F698FE5";
shapes = (
{
closed = 1;
nodes = (
(16,0,l),
(303,0,l),
(303,-2,l),
(258,-21,o),
(212,-59,o),
(202,-109,cs),
(190,-171,o),
(227,-206,o),
(287,-206,cs),
(316,-206,o),
(345,-199,o),
(370,-185,c),
(367,-138,l),
(353,-143,o),
(335,-146,o),
(316,-146,cs),
(285,-146,o),
(266,-127,o),
(272,-95,cs),
(280,-54,o),
(327,-26,o),
(391,0,c),
(406,76,l),
(121,76,l),
(164,290,l),
(421,290,l),
(436,365,l),
(179,365,l),
(217,554,l),
(499,554,l),
(514,630,l),
(142,630,l)
);
}
);
width = 483;
},
{
layerId = "DC8CD3C6-3F63-4C25-A479-02CA28197BED";
shapes = (
{
closed = 1;
nodes = (
(16,0,l),
(303,0,l),
(303,-2,l),
(254,-19,o),
(213,-58,o),
(203,-109,cs),
(191,-171,o),
(228,-206,o),
(288,-206,cs),
(317,-206,o),
(346,-199,o),
(371,-185,c),
(368,-154,l),
(354,-160,o),
(333,-166,o),
(311,-166,cs),
(265,-166,o),
(243,-144,o),
(251,-106,cs),
(259,-64,o),
(302,-23,o),
(372,0,c),
(380,42,l),
(75,42,l),
(127,303,l),
(404,303,l),
(412,345,l),
(136,345,l),
(184,588,l),
(486,588,l),
(494,630,l),
(142,630,l)
);
}
);
width = 471;
}
);
leftKerningGroup = public.kern2._E;
rightKerningGroup = public.kern1._E;
unicode = 280;
},
{
glyphname = Esmall;
layers = (
{
layerId = "5B161561-7DB5-4139-A0CA-38E113D4AFAB";
shapes = (
{
closed = 1;
nodes = (
(-9,0,l),
(329,0,l),
(353,118,l),
(167,118,l),
(180,184,l),
(343,184,l),
(367,301,l),
(204,301,l),
(217,365,l),
(401,365,l),
(424,483,l),
(88,483,l)
);
}
);
width = 426;
},
{
layerId = "613EF1C7-735E-4737-B49D-EADCFD002D35";
shapes = (
{
closed = 1;
nodes = (
(-4,0,l),
(327,0,l),
(349,108,l),
(156,108,l),
(172,189,l),
(342,189,l),
(364,296,l),
(194,296,l),
(209,372,l),
(400,372,l),
(421,480,l),
(92,480,l)
);
}
);
width = 424;
},
{
layerId = "06ABBA72-70F7-4001-AF7B-C55F8F698FE5";
shapes = (
{
closed = 1;
nodes = (
(16,0,l),
(319,0,l),
(332,68,l),
(111,68,l),
(139,209,l),
(338,209,l),
(351,276,l),
(153,276,l),
(178,402,l),
(397,402,l),
(411,470,l),
(110,470,l)
);
}
);
width = 415;
},
{
layerId = "DC8CD3C6-3F63-4C25-A479-02CA28197BED";
shapes = (
{
closed = 1;
nodes = (
(5,0,l),
(279,0,l),
(287,38,l),
(58,38,l),
(95,225,l),
(306,225,l),
(314,262,l),
(103,262,l),
(137,432,l),
(364,432,l),
(371,470,l),
(99,470,l)
);
}
);
width = 368;
}
);
unicode = 7431;
},
{
glyphname = Eth;
layers = (
{
layerId = "5B161561-7DB5-4139-A0CA-38E113D4AFAB";
shapes = (
{
closed = 1;
nodes = (
(44,0,l),
(248,0,ls),
(443,0,o),
(621,110,o),
(665,328,cs),
(705,528,o),
(598,630,o),
(396,630,cs),
(170,630,l),
(119,373,l),
(33,373,l),
(11,261,l),
(97,261,l)
);
},
{
closed = 1;
nodes = (
(234,126,l),
(261,261,l),
(367,261,l),
(389,373,l),
(282,373,l),
(309,504,l),
(353,504,ls),
(460,504,o),
(516,442,o),
(493,328,cs),
(462,176,o),
(366,126,o),
(265,126,cs)
);
}
);
width = 687;
},
{
layerId = "613EF1C7-735E-4737-B49D-EADCFD002D35";
shapes = (
{
closed = 1;
nodes = (
(45,0,l),
(241,0,ls),
(433,0,o),
(611,105,o),
(656,328,cs),
(696,528,o),
(588,630,o),
(392,630,cs),
(171,630,l),
(119,370,l),
(35,370,l),
(15,268,l),
(99,268,l)
);
},
{
closed = 1;
nodes = (
(218,116,l),
(248,268,l),
(358,268,l),
(378,370,l),
(268,370,l),
(297,514,l),
(351,514,ls),
(464,514,o),
(523,448,o),
(499,328,cs),
(466,165,o),
(362,116,o),
(256,116,cs)
);
}
);
width = 680;
},
{
layerId = "06ABBA72-70F7-4001-AF7B-C55F8F698FE5";
shapes = (
{
closed = 1;
nodes = (
(49,0,l),
(215,0,ls),
(397,0,o),
(571,86,o),
(620,329,cs),
(660,529,o),
(549,630,o),
(375,630,c),
(175,630,l),
(121,360,l),
(42,360,l),
(30,298,l),
(108,298,l)
);
},
{
closed = 1;
nodes = (
(154,76,l),
(198,298,l),
(324,298,l),
(336,360,l),
(211,360,l),
(250,554,l),
(343,554,ls),
(479,554,o),
(551,474,o),
(522,329,cs),
(481,124,o),
(347,76,o),
(222,76,c)
);
}
);
width = 653;
},
{
layerId = "DC8CD3C6-3F63-4C25-A479-02CA28197BED";
shapes = (
{
closed = 1;
nodes = (
(49,0,l),
(196,0,ls),
(368,0,o),
(532,86,o),
(581,329,cs),
(621,529,o),
(519,630,o),
(356,630,cs),
(175,630,l),
(119,350,l),
(40,350,l),
(32,308,l),
(110,308,l)
);
},
{
closed = 1;
nodes = (
(108,42,l),
(161,308,l),
(326,308,l),
(334,350,l),
(170,350,l),
(217,588,l),
(330,588,ls),
(478,588,o),
(561,492,o),
(528,329,cs),
(482,100,o),
(330,42,o),
(195,42,cs)
);
}
);
width = 614;
}
);
leftKerningGroup = public.kern2._D;
rightKerningGroup = public.kern1._D;
unicode = 208;
},
{
glyphname = Euro;
layers = (
{
layerId = "5B161561-7DB5-4139-A0CA-38E113D4AFAB";
shapes = (
{
closed = 1;
nodes = (
(-12,204,l),
(57,204,l),
(67,65,o),
(158,-12,o),
(305,-12,cs),
(391,-12,o),
(460,11,o),
(485,25,c),
(477,143,l),
(450,127,o),
(407,115,o),
(348,115,cs),
(291,115,o),
(248,141,o),
(233,204,c),
(439,204,l),
(454,280,l),
(232,280,l),
(232,288,o),
(236,302,o),
(239,316,c),
(241,328,l),
(464,328,l),
(478,404,l),
(264,404,l),
(307,494,o),
(362,517,o),
(428,517,cs),
(478,517,o),
(520,500,o),
(541,484,c),
(600,605,l),
(575,621,o),
(524,643,o),
(438,643,cs),
(276,643,o),
(149,557,o),
(90,404,c),
(28,404,l),
(13,328,l),
(68,328,l),
(67,316,l),
(64,303,o),
(60,289,o),
(60,280,c),
(3,280,l)
);
}
);
width = 566;
},
{
layerId = "613EF1C7-735E-4737-B49D-EADCFD002D35";
shapes = (
{
closed = 1;
nodes = (
(-11,208,l),
(58,208,l),
(65,66,o),
(157,-11,o),
(301,-11,cs),
(385,-11,o),
(449,9,o),
(479,25,c),
(471,134,l),
(440,117,o),
(398,105,o),
(340,105,cs),
(277,105,o),
(229,135,o),
(218,208,c),
(436,208,l),
(450,279,l),
(218,279,l),
(219,291,o),
(222,303,o),
(225,317,c),
(227,329,l),
(460,329,l),
(474,400,l),
(249,400,l),
(290,495,o),
(354,526,o),
(425,526,cs),
(474,526,o),
(514,510,o),
(540,493,c),
(595,604,l),
(567,621,o),
(519,642,o),
(434,642,cs),
(274,642,o),
(149,554,o),
(91,400,c),
(27,400,l),
(13,329,l),
(70,329,l),
(68,316,l),
(65,303,o),
(62,291,o),
(61,279,c),
(3,279,l)
);
}
);
width = 558;
},
{
layerId = "06ABBA72-70F7-4001-AF7B-C55F8F698FE5";
shapes = (
{
closed = 1;
nodes = (
(-8,223,l),
(64,223,l),
(59,69,o),
(152,-9,o),
(284,-9,cs),
(361,-9,o),
(405,2,o),
(455,24,c),
(449,98,l),
(404,78,o),
(364,67,o),
(309,67,cs),
(224,67,o),
(154,109,o),
(159,223,c),
(424,223,l),
(434,274,l),
(161,274,l),
(165,301,o),
(167,309,o),
(170,322,c),
(172,334,l),
(446,334,l),
(457,385,l),
(190,385,l),
(223,501,o),
(325,563,o),
(415,563,cs),
(462,563,o),
(494,553,o),
(538,530,c),
(574,602,l),
(534,625,o),
(498,639,o),
(418,639,cs),
(266,639,o),
(151,542,o),
(97,385,c),
(24,385,l),
(14,334,l),
(78,334,l),
(74,316,l),
(72,305,o),
(71,299,o),
(67,274,c),
(2,274,l)
);
}
);
width = 528;
},
{
layerId = "DC8CD3C6-3F63-4C25-A479-02CA28197BED";
shapes = (
{
closed = 1;
nodes = (
(-6,234,l),
(64,234,l),
(60,75,o),
(152,-8,o),
(293,-8,cs),
(364,-8,o),
(412,4,o),
(455,24,c),
(452,66,l),
(415,48,o),
(371,34,o),
(308,34,cs),
(207,34,o),
(115,87,o),
(118,234,c),
(426,234,l),
(434,274,l),
(121,274,l),
(122,284,o),
(125,304,o),
(128,318,c),
(133,345,l),
(449,345,l),
(457,385,l),
(146,385,l),
(199,533,o),
(309,596,o),
(422,596,cs),
(475,596,o),
(515,585,o),
(554,563,c),
(574,602,l),
(537,625,o),
(495,638,o),
(420,638,cs),
(273,638,o),
(149,547,o),
(93,385,c),
(24,385,l),
(16,345,l),
(80,345,l),
(75,317,l),
(72,303,o),
(70,293,o),
(68,274,c),
(2,274,l)
);
}
);
width = 528;
}
);
unicode = 8364;
},
{
glyphname = F;
layers = (
{
layerId = "5B161561-7DB5-4139-A0CA-38E113D4AFAB";
shapes = (
{
closed = 1;
nodes = (
(0,0,l),
(164,0,l),
(211,238,l),
(437,238,l),
(462,363,l),
(236,363,l),
(265,504,l),
(513,504,l),
(538,630,l),
(126,630,l)
);
}
);
width = 488;
},
{
layerId = "613EF1C7-735E-4737-B49D-EADCFD002D35";
shapes = (
{
closed = 1;
nodes = (
(3,0,l),
(152,0,l),
(201,245,l),
(432,245,l),
(455,360,l),
(224,360,l),
(255,514,l),
(508,514,l),
(531,630,l),
(129,630,l)
);
}
);
width = 484;
},
{
layerId = "06ABBA72-70F7-4001-AF7B-C55F8F698FE5";
shapes = (
{
closed = 1;
nodes = (
(16,0,l),
(106,0,l),
(161,275,l),
(412,275,l),
(427,350,l),
(176,350,l),
(217,554,l),
(489,554,l),
(504,630,l),
(142,630,l)
);
}
);
width = 467;
},
{
layerId = "DC8CD3C6-3F63-4C25-A479-02CA28197BED";
shapes = (
{
closed = 1;
nodes = (
(16,0,l),
(67,0,l),
(126,295,l),
(396,295,l),
(404,336,l),
(134,336,l),
(184,588,l),
(476,588,l),
(485,630,l),
(142,630,l)
);
}
);
width = 447;
}
);
unicode = 70;
},
{
glyphname = Fsmall;
layers = (
{
layerId = "5B161561-7DB5-4139-A0CA-38E113D4AFAB";
shapes = (
{
closed = 1;
nodes = (
(-9,0,l),
(145,0,l),
(178,160,l),
(334,160,l),
(358,278,l),
(201,278,l),
(219,365,l),
(392,365,l),
(416,483,l),
(88,483,l)
);
}
);
width = 407;
},
{
layerId = "613EF1C7-735E-4737-B49D-EADCFD002D35";
shapes = (
{
closed = 1;
nodes = (
(-4,0,l),
(136,0,l),
(170,167,l),
(333,167,l),
(355,275,l),
(191,275,l),
(211,372,l),
(391,372,l),
(413,480,l),
(92,480,l)
);
}
);
width = 405;
},
{
layerId = "06ABBA72-70F7-4001-AF7B-C55F8F698FE5";
shapes = (
{
closed = 1;
nodes = (
(16,0,l),
(99,0,l),
(139,197,l),
(331,197,l),
(344,265,l),
(152,265,l),
(180,402,l),
(389,402,l),
(402,470,l),
(110,470,l)
);
}
);
width = 397;
},
{
layerId = "DC8CD3C6-3F63-4C25-A479-02CA28197BED";
shapes = (
{
closed = 1;
nodes = (
(5,0,l),
(50,0,l),
(94,217,l),
(286,217,l),
(293,255,l),
(101,255,l),
(137,432,l),
(346,432,l),
(353,470,l),
(99,470,l)
);
}
);
width = 348;
}
);
unicode = 42800;
},
{
glyphname = G;
layers = (
{
layerId = "5B161561-7DB5-4139-A0CA-38E113D4AFAB";
shapes = (
{
closed = 1;
nodes = (
(-4,104,o),
(123,-12,o),
(314,-12,cs),
(400,-12,o),
(474,6,o),
(529,28,c),
(595,357,l),
(345,357,l),
(320,235,l),
(412,235,l),
(387,108,l),
(380,105,o),
(358,102,o),
(337,102,cs),
(228,102,o),
(183,179,o),
(210,314,cs),
(240,460,o),
(335,530,o),
(436,530,cs),
(479,530,o),
(531,521,o),
(570,499,c),
(623,606,l),
(581,627,o),
(522,643,o),
(444,643,cs),
(254,643,o),
(80,526,o),
(38,314,cs)
);
}
);
width = 622;
},
{
layerId = "613EF1C7-735E-4737-B49D-EADCFD002D35";
shapes = (
{
closed = 1;
nodes = (
(-2,104,o),
(121,-11,o),
(308,-11,cs),
(394,-11,o),
(467,6,o),
(522,28,c),
(587,352,l),
(347,352,l),
(324,240,l),
(421,240,l),
(394,103,l),
(381,98,o),
(357,95,o),
(330,95,cs),
(217,95,o),
(169,174,o),
(197,314,cs),
(228,468,o),
(327,537,o),
(431,537,cs),
(476,537,o),
(526,527,o),
(566,505,c),
(616,605,l),
(573,627,o),
(515,642,o),
(438,642,cs),
(251,642,o),
(82,526,o),
(40,314,cs)
);
}
);
width = 617;
},
{
layerId = "06ABBA72-70F7-4001-AF7B-C55F8F698FE5";
shapes = (
{
closed = 1;
nodes = (
(5,104,o),
(116,-9,o),
(286,-9,cs),
(373,-9,o),
(438,7,o),
(494,28,c),
(555,332,l),
(354,332,l),
(340,260,l),
(456,260,l),
(421,85,l),
(385,72,o),
(351,67,o),
(301,67,cs),
(171,67,o),
(113,154,o),
(145,314,cs),
(182,500,o),
(296,564,o),
(411,564,cs),
(464,564,o),
(508,554,o),
(551,531,c),
(587,603,l),
(542,629,o),
(487,639,o),
(415,639,cs),
(240,639,o),
(89,526,o),
(47,314,cs)
);
}
);
width = 598;
},
{
layerId = "DC8CD3C6-3F63-4C25-A479-02CA28197BED";
shapes = (
{
closed = 1;
nodes = (
(5,104,o),
(120,-8,o),
(285,-8,cs),
(359,-8,o),
(409,4,o),
(456,23,c),
(515,317,l),
(331,317,l),
(323,276,l),
(456,276,l),
(411,52,l),
(393,43,o),
(349,34,o),
(298,34,cs),
(154,34,o),
(62,136,o),
(98,314,cs),
(139,521,o),
(277,596,o),
(411,596,cs),
(460,596,o),
(506,583,o),
(546,560,c),
(567,602,l),
(525,628,o),
(476,638,o),
(408,638,cs),
(238,638,o),
(89,526,o),
(47,314,cs)
);
}
);
width = 561;
}
);
leftKerningGroup = public.kern2._G;
rightKerningGroup = public.kern1._G;
unicode = 71;
},
{
glyphname = Gbreve;
layers = (
{
layerId = "5B161561-7DB5-4139-A0CA-38E113D4AFAB";
shapes = (
{
closed = 1;
nodes = (
(-4,104,o),
(123,-12,o),
(314,-12,cs),
(400,-12,o),
(474,6,o),
(529,28,c),
(595,357,l),
(345,357,l),
(320,235,l),
(412,235,l),
(387,108,l),
(380,105,o),
(358,102,o),
(337,102,cs),
(228,102,o),
(183,179,o),
(210,314,cs),
(240,460,o),
(335,530,o),
(436,530,cs),
(479,530,o),
(531,521,o),
(570,499,c),
(623,606,l),
(581,627,o),
(522,643,o),
(444,643,cs),
(254,643,o),
(80,526,o),
(38,314,cs)
);
},
{
closed = 1;
nodes = (
(342,806,l),
(328,734,o),
(356,676,o),
(449,676,cs),
(533,676,o),
(590,723,o),
(606,806,c),
(520,806,l),
(514,776,o),
(494,761,o),
(466,761,cs),
(436,761,o),
(424,779,o),
(429,806,c)
);
}
);
width = 622;
},
{
layerId = "613EF1C7-735E-4737-B49D-EADCFD002D35";
shapes = (
{
closed = 1;
nodes = (
(-2,104,o),
(121,-11,o),
(308,-11,cs),
(394,-11,o),
(467,6,o),
(522,28,c),
(587,352,l),
(347,352,l),
(324,240,l),
(421,240,l),
(394,103,l),
(381,98,o),
(357,95,o),
(330,95,cs),
(217,95,o),
(169,174,o),
(197,314,cs),
(228,468,o),
(327,537,o),
(431,537,cs),
(476,537,o),
(526,527,o),
(566,505,c),
(616,605,l),
(573,627,o),
(515,642,o),
(438,642,cs),
(251,642,o),
(82,526,o),
(40,314,cs)
);
},
{
closed = 1;
nodes = (
(339,814,l),
(325,744,o),
(353,685,o),
(446,685,cs),
(530,685,o),
(587,733,o),
(603,814,c),
(522,814,l),
(514,781,o),
(493,764,o),
(462,764,cs),
(427,764,o),
(416,784,o),
(421,814,c)
);
}
);
width = 617;
},
{
layerId = "06ABBA72-70F7-4001-AF7B-C55F8F698FE5";
shapes = (
{
closed = 1;
nodes = (
(5,104,o),
(116,-9,o),
(286,-9,cs),
(373,-9,o),
(438,7,o),
(494,28,c),
(555,332,l),
(354,332,l),
(340,260,l),
(456,260,l),
(421,85,l),
(385,72,o),
(351,67,o),
(301,67,cs),
(171,67,o),
(113,154,o),
(145,314,cs),
(182,500,o),
(296,564,o),
(411,564,cs),
(464,564,o),
(508,554,o),
(551,531,c),
(587,603,l),
(542,629,o),
(487,639,o),
(415,639,cs),
(240,639,o),
(89,526,o),
(47,314,cs)
);
},
{
closed = 1;
nodes = (
(328,846,l),
(316,784,o),
(343,722,o),
(436,722,cs),
(520,722,o),
(578,774,o),
(592,846,c),
(531,846,l),
(517,801,o),
(492,776,o),
(447,776,cs),
(394,776,o),
(386,803,o),
(390,846,c)
);
}
);
width = 598;
},
{
layerId = "DC8CD3C6-3F63-4C25-A479-02CA28197BED";
shapes = (
{
closed = 1;
nodes = (
(5,104,o),
(120,-8,o),
(285,-8,cs),
(359,-8,o),
(409,4,o),
(456,23,c),
(515,317,l),
(331,317,l),
(323,276,l),
(456,276,l),
(411,52,l),
(393,43,o),
(349,34,o),
(298,34,cs),
(154,34,o),
(62,136,o),
(98,314,cs),
(139,521,o),
(277,596,o),
(411,596,cs),
(460,596,o),
(506,583,o),
(546,560,c),
(567,602,l),
(525,628,o),
(476,638,o),
(408,638,cs),
(238,638,o),
(89,526,o),
(47,314,cs)
);
},
{
closed = 1;
nodes = (
(318,846,l),
(305,781,o),
(333,722,o),
(426,722,cs),
(510,722,o),
(567,774,o),
(581,846,c),
(534,846,l),
(522,793,o),
(485,762,o),
(434,762,cs),
(373,762,o),
(356,796,o),
(365,846,c)
);
}
);
width = 561;
}
);
leftKerningGroup = public.kern2._G;
rightKerningGroup = public.kern1._G;
unicode = 286;
},
{
glyphname = Gcircumflex;
layers = (
{
layerId = "5B161561-7DB5-4139-A0CA-38E113D4AFAB";
shapes = (
{
closed = 1;
nodes = (
(-4,104,o),
(123,-12,o),
(314,-12,cs),
(400,-12,o),
(474,6,o),
(529,28,c),
(595,357,l),
(345,357,l),
(320,235,l),
(412,235,l),
(387,108,l),
(380,105,o),
(358,102,o),
(337,102,cs),
(228,102,o),
(183,179,o),
(210,314,cs),
(240,460,o),
(335,530,o),
(436,530,cs),
(479,530,o),
(531,521,o),
(570,499,c),
(623,606,l),
(581,627,o),
(522,643,o),
(444,643,cs),
(254,643,o),
(80,526,o),
(38,314,cs)
);
},
{
closed = 1;
nodes = (
(255,685,l),
(365,685,l),
(431,744,l),
(473,685,l),
(588,685,l),
(502,807,l),
(386,807,l)
);
}
);
width = 622;
},
{
layerId = "613EF1C7-735E-4737-B49D-EADCFD002D35";
shapes = (
{
closed = 1;
nodes = (
(-2,104,o),
(121,-11,o),
(308,-11,cs),
(394,-11,o),
(467,6,o),
(522,28,c),
(587,352,l),
(347,352,l),
(324,240,l),
(421,240,l),
(394,103,l),
(381,98,o),
(357,95,o),
(330,95,cs),
(217,95,o),
(169,174,o),
(197,314,cs),
(228,468,o),
(327,537,o),
(431,537,cs),
(476,537,o),
(526,527,o),
(566,505,c),
(616,605,l),
(573,627,o),
(515,642,o),
(438,642,cs),
(251,642,o),
(82,526,o),
(40,314,cs)
);
},
{
closed = 1;
nodes = (
(256,690,l),
(359,690,l),
(431,754,l),
(477,690,l),
(585,690,l),
(497,814,l),
(390,814,l)
);
}
);
width = 617;
},
{
layerId = "06ABBA72-70F7-4001-AF7B-C55F8F698FE5";
shapes = (
{
closed = 1;
nodes = (
(5,104,o),
(116,-9,o),
(286,-9,cs),
(373,-9,o),
(438,7,o),
(494,28,c),
(555,332,l),
(354,332,l),
(340,260,l),
(456,260,l),
(421,85,l),
(385,72,o),
(351,67,o),
(301,67,cs),
(171,67,o),
(113,154,o),
(145,314,cs),
(182,500,o),
(296,564,o),
(411,564,cs),
(464,564,o),
(508,554,o),
(551,531,c),
(587,603,l),
(542,629,o),
(487,639,o),
(415,639,cs),
(240,639,o),
(89,526,o),
(47,314,cs)
);
},
{
closed = 1;
nodes = (
(262,710,l),
(337,710,l),
(432,794,l),
(493,710,l),
(572,710,l),
(476,844,l),
(408,844,l)
);
}
);
width = 598;
},
{
layerId = "DC8CD3C6-3F63-4C25-A479-02CA28197BED";
shapes = (
{
closed = 1;
nodes = (
(5,104,o),
(120,-8,o),
(285,-8,cs),
(359,-8,o),
(409,4,o),
(456,23,c),
(515,317,l),
(331,317,l),
(323,276,l),
(456,276,l),
(411,52,l),
(393,43,o),
(349,34,o),
(298,34,cs),
(154,34,o),
(62,136,o),
(98,314,cs),
(139,521,o),
(277,596,o),
(411,596,cs),
(460,596,o),
(506,583,o),
(546,560,c),
(567,602,l),
(525,628,o),
(476,638,o),
(408,638,cs),
(238,638,o),
(89,526,o),
(47,314,cs)
);
},
{
closed = 1;
nodes = (
(280,710,l),
(335,710,l),
(443,809,l),
(511,710,l),
(570,710,l),
(474,844,l),
(426,844,l)
);
}
);
width = 561;
}
);
leftKerningGroup = public.kern2._G;
rightKerningGroup = public.kern1._G;
unicode = 284;
},
{
glyphname = Gcommaaccent;
layers = (
{
layerId = "5B161561-7DB5-4139-A0CA-38E113D4AFAB";
shapes = (
{
closed = 1;
nodes = (
(-4,104,o),
(123,-12,o),
(314,-12,cs),
(400,-12,o),
(474,6,o),
(529,28,c),
(595,357,l),
(345,357,l),
(320,235,l),
(412,235,l),
(387,108,l),
(380,105,o),
(358,102,o),
(337,102,cs),
(228,102,o),
(183,179,o),
(210,314,cs),
(240,460,o),
(335,530,o),
(436,530,cs),
(479,530,o),
(531,521,o),
(570,499,c),
(623,606,l),
(581,627,o),
(522,643,o),
(444,643,cs),
(254,643,o),
(80,526,o),
(38,314,cs)
);
},
{
closed = 1;
nodes = (
(221,-346,l),
(279,-320,o),
(351,-251,o),
(368,-169,cs),
(384,-93,o),
(341,-64,o),
(306,-64,cs),
(260,-64,o),
(227,-98,o),
(220,-135,cs),
(213,-173,o),
(229,-200,o),
(268,-208,cs),
(284,-211,l),
(269,-250,o),
(233,-282,o),
(197,-300,c)
);
}
);
width = 622;
},
{
layerId = "613EF1C7-735E-4737-B49D-EADCFD002D35";
shapes = (
{
closed = 1;
nodes = (
(-2,104,o),
(121,-11,o),
(308,-11,cs),
(394,-11,o),
(467,6,o),
(522,28,c),
(587,352,l),
(347,352,l),
(324,240,l),
(421,240,l),
(394,103,l),
(381,98,o),
(357,95,o),
(330,95,cs),
(217,95,o),
(169,174,o),
(197,314,cs),
(228,468,o),
(327,537,o),
(431,537,cs),
(476,537,o),
(526,527,o),
(566,505,c),
(616,605,l),
(573,627,o),
(515,642,o),
(438,642,cs),
(251,642,o),
(82,526,o),
(40,314,cs)
);
},
{
closed = 1;
nodes = (
(212,-340,l),
(272,-312,o),
(342,-244,o),
(358,-166,cs),
(373,-92,o),
(332,-64,o),
(298,-64,cs),
(254,-64,o),
(222,-97,o),
(215,-133,cs),
(208,-170,o),
(226,-196,o),
(261,-203,cs),
(277,-206,l),
(263,-244,o),
(226,-277,o),
(189,-296,c)
);
}
);
width = 617;
},
{
layerId = "06ABBA72-70F7-4001-AF7B-C55F8F698FE5";
shapes = (
{
closed = 1;
nodes = (
(5,104,o),
(116,-9,o),
(286,-9,cs),
(373,-9,o),
(438,7,o),
(494,28,c),
(555,332,l),
(354,332,l),
(340,260,l),
(456,260,l),
(421,85,l),
(385,72,o),
(351,67,o),
(301,67,cs),
(171,67,o),
(113,154,o),
(145,314,cs),
(182,500,o),
(296,564,o),
(411,564,cs),
(465,564,o),
(507,554,o),
(551,531,c),
(587,603,l),
(542,629,o),
(487,639,o),
(415,639,cs),
(240,639,o),
(89,526,o),
(47,314,cs)
);
},
{
closed = 1;
nodes = (
(176,-317,l),
(246,-282,o),
(305,-214,o),
(317,-153,cs),
(330,-89,o),
(296,-65,o),
(266,-65,cs),
(230,-65,o),
(202,-92,o),
(196,-124,cs),
(189,-159,o),
(215,-178,o),
(234,-182,c),
(251,-186,l),
(241,-220,o),
(200,-260,o),
(159,-282,c)
);
}
);
width = 598;
},
{
layerId = "DC8CD3C6-3F63-4C25-A479-02CA28197BED";
shapes = (
{
closed = 1;
nodes = (
(5,104,o),
(120,-8,o),
(285,-8,cs),
(359,-8,o),
(409,4,o),
(456,23,c),
(515,317,l),
(331,317,l),
(323,276,l),
(456,276,l),
(411,52,l),
(393,43,o),
(349,34,o),
(298,34,cs),
(154,34,o),
(62,136,o),
(98,314,cs),
(139,521,o),
(277,596,o),
(411,596,cs),
(460,596,o),
(506,583,o),
(546,560,c),
(567,602,l),
(525,628,o),
(476,638,o),
(408,638,cs),
(238,638,o),
(89,526,o),
(47,314,cs)
);
},
{
closed = 1;
nodes = (
(173,-303,l),
(228,-277,o),
(285,-222,o),
(297,-162,cs),
(307,-110,o),
(284,-96,o),
(263,-96,cs),
(239,-96,o),
(219,-114,o),
(214,-138,cs),
(208,-166,o),
(223,-182,o),
(244,-186,c),
(248,-187,l),
(236,-220,o),
(202,-255,o),
(159,-275,c)
);
}
);
width = 561;
}
);
leftKerningGroup = public.kern2._G;
rightKerningGroup = public.kern1._G;
unicode = 290;
},
{
glyphname = Gdotaccent;
layers = (
{
layerId = "5B161561-7DB5-4139-A0CA-38E113D4AFAB";
shapes = (
{
closed = 1;
nodes = (
(-4,104,o),
(123,-12,o),
(314,-12,cs),
(400,-12,o),
(474,6,o),
(529,28,c),
(595,357,l),
(345,357,l),
(320,235,l),
(412,235,l),
(387,108,l),
(380,105,o),
(358,102,o),
(337,102,cs),
(228,102,o),
(183,179,o),
(210,314,cs),
(240,460,o),
(335,530,o),
(436,530,cs),
(479,530,o),
(531,521,o),
(570,499,c),
(623,606,l),
(581,627,o),
(522,643,o),
(444,643,cs),
(254,643,o),
(80,526,o),
(38,314,cs)
);
},
{
closed = 1;
nodes = (
(387,702,o),
(410,671,o),
(449,671,cs),
(488,671,o),
(524,702,o),
(532,743,cs),
(539,782,o),
(516,812,o),
(477,812,cs),
(438,812,o),
(402,782,o),
(395,743,cs)
);
}
);
width = 622;
},
{
layerId = "613EF1C7-735E-4737-B49D-EADCFD002D35";
shapes = (
{
closed = 1;
nodes = (
(-2,104,o),
(121,-11,o),
(308,-11,cs),
(394,-11,o),
(467,6,o),
(522,28,c),
(587,352,l),
(347,352,l),
(324,240,l),
(421,240,l),
(394,103,l),
(381,98,o),
(357,95,o),
(330,95,cs),
(217,95,o),
(169,174,o),
(197,314,cs),
(228,468,o),
(327,537,o),
(431,537,cs),
(476,537,o),
(526,527,o),
(566,505,c),
(616,605,l),
(573,627,o),
(515,642,o),
(438,642,cs),
(251,642,o),
(82,526,o),
(40,314,cs)
);
},
{
closed = 1;
nodes = (
(385,709,o),
(408,679,o),
(445,679,cs),
(482,679,o),
(517,709,o),
(525,748,cs),
(532,785,o),
(509,814,o),
(472,814,cs),
(435,814,o),
(400,785,o),
(393,748,cs)
);
}
);
width = 617;
},
{
layerId = "06ABBA72-70F7-4001-AF7B-C55F8F698FE5";
shapes = (
{
closed = 1;
nodes = (
(5,104,o),
(116,-9,o),
(286,-9,cs),
(373,-9,o),
(438,7,o),
(494,28,c),
(555,332,l),
(354,332,l),
(340,260,l),
(456,260,l),
(421,85,l),
(385,72,o),
(351,67,o),
(301,67,cs),
(171,67,o),
(113,154,o),
(145,314,cs),
(182,500,o),
(296,564,o),
(411,564,cs),
(464,564,o),
(508,554,o),
(551,531,c),
(587,603,l),
(542,629,o),
(487,639,o),
(415,639,cs),
(240,639,o),
(89,526,o),
(47,314,cs)
);
},
{
closed = 1;
nodes = (
(380,736,o),
(402,710,o),
(430,710,cs),
(460,710,o),
(490,736,o),
(496,767,cs),
(502,795,o),
(482,822,o),
(452,822,cs),
(424,822,o),
(392,795,o),
(386,767,cs)
);
}
);
width = 598;
},
{
layerId = "DC8CD3C6-3F63-4C25-A479-02CA28197BED";
shapes = (
{
closed = 1;
nodes = (
(5,104,o),
(120,-8,o),
(285,-8,cs),
(359,-8,o),
(409,4,o),
(456,23,c),
(515,317,l),
(331,317,l),
(323,276,l),
(456,276,l),
(411,52,l),
(393,43,o),
(349,34,o),
(298,34,cs),
(154,34,o),
(62,136,o),
(98,314,cs),
(139,521,o),
(277,596,o),
(411,596,cs),
(460,596,o),
(506,583,o),
(546,560,c),
(567,602,l),
(525,628,o),
(476,638,o),
(408,638,cs),
(238,638,o),
(89,526,o),
(47,314,cs)
);
},
{
closed = 1;
nodes = (
(393,750,o),
(407,734,o),
(430,734,cs),
(452,734,o),
(472,750,o),
(478,778,cs),
(483,804,o),
(469,822,o),
(447,822,cs),
(424,822,o),
(404,804,o),
(399,778,cs)
);
}
);
width = 561;
}
);
leftKerningGroup = public.kern2._G;
rightKerningGroup = public.kern1._G;
unicode = 288;
},
{
glyphname = Germandbls;
layers = (
{
layerId = "5B161561-7DB5-4139-A0CA-38E113D4AFAB";
shapes = (
{
closed = 1;
nodes = (
(0,0,l),
(164,0,l),
(265,504,l),
(602,504,l),
(627,630,l),
(126,630,l)
);
},
{
closed = 1;
nodes = (
(456,544,l),
(397,530,o),
(306,434,o),
(295,380,cs),
(282,314,o),
(303,275,o),
(348,238,cs),
(389,204,o),
(408,189,o),
(401,154,cs),
(396,131,o),
(371,107,o),
(332,107,cs),
(302,107,o),
(275,113,o),
(250,125,c),
(196,15,l),
(219,-2,o),
(280,-12,o),
(320,-12,cs),
(460,-12,o),
(541,54,o),
(559,143,cs),
(572,206,o),
(548,247,o),
(495,295,cs),
(464,323,o),
(448,351,o),
(455,387,cs),
(462,422,o),
(539,491,o),
(602,504,c)
);
}
);
width = 714;
},
{
layerId = "613EF1C7-735E-4737-B49D-EADCFD002D35";
shapes = (
{
closed = 1;
nodes = (
(3,0,l),
(152,0,l),
(255,514,l),
(590,514,l),
(613,630,l),
(129,630,l)
);
},
{
closed = 1;
nodes = (
(461,554,l),
(398,538,o),
(305,435,o),
(294,380,cs),
(281,314,o),
(303,275,o),
(347,238,cs),
(387,204,o),
(407,187,o),
(400,151,cs),
(394,123,o),
(366,97,o),
(322,97,cs),
(292,97,o),
(265,103,o),
(240,115,c),
(190,14,l),
(213,-2,o),
(272,-11,o),
(311,-11,cs),
(445,-11,o),
(525,54,o),
(543,143,cs),
(556,208,o),
(531,249,o),
(480,295,cs),
(450,322,o),
(432,349,o),
(439,386,cs),
(446,423,o),
(525,500,o),
(590,514,c)
);
}
);
width = 681;
},
{
layerId = "06ABBA72-70F7-4001-AF7B-C55F8F698FE5";
shapes = (
{
closed = 1;
nodes = (
(16,0,l),
(106,0,l),
(217,554,l),
(543,554,l),
(558,630,l),
(142,630,l)
);
},
{
closed = 1;
nodes = (
(482,594,l),
(404,570,o),
(303,440,o),
(291,380,cs),
(278,314,o),
(303,277,o),
(344,238,cs),
(381,203,o),
(403,181,o),
(395,141,cs),
(386,94,o),
(345,59,o),
(282,59,cs),
(252,59,o),
(225,65,o),
(200,77,c),
(167,12,l),
(189,-1,o),
(239,-9,o),
(275,-9,cs),
(387,-9,o),
(463,54,o),
(481,143,cs),
(495,215,o),
(463,258,o),
(419,295,cs),
(392,318,o),
(369,342,o),
(377,383,cs),
(386,428,o),
(471,538,o),
(543,554,c)
);
}
);
width = 550;
},
{
layerId = "DC8CD3C6-3F63-4C25-A479-02CA28197BED";
shapes = (
{
closed = 1;
nodes = (
(16,0,l),
(67,0,l),
(184,588,l),
(525,588,l),
(534,630,l),
(142,630,l)
);
},
{
closed = 1;
nodes = (
(492,622,l),
(389,604,o),
(307,519,o),
(285,410,cs),
(273,352,o),
(301,288,o),
(352,243,c),
(394,201,o),
(420,179,o),
(410,131,cs),
(398,72,o),
(351,32,o),
(275,32,cs),
(244,32,o),
(210,39,o),
(185,50,c),
(165,13,l),
(185,0,o),
(236,-8,o),
(269,-8,cs),
(375,-8,o),
(447,50,o),
(464,133,cs),
(478,205,o),
(434,241,o),
(391,284,c),
(354,317,o),
(329,371,o),
(337,413,cs),
(356,506,o),
(432,577,o),
(525,588,c)
);
}
);
width = 547;
}
);
unicode = 7838;
},
{
glyphname = Grave;
layers = (
{
layerId = "5B161561-7DB5-4139-A0CA-38E113D4AFAB";
shapes = (
{
closed = 1;
nodes = (
(110,809,l),
(201,685,l),
(332,685,l),
(279,809,l)
);
}
);
width = 253;
},
{
layerId = "613EF1C7-735E-4737-B49D-EADCFD002D35";
shapes = (
{
closed = 1;
nodes = (
(115,814,l),
(204,690,l),
(323,690,l),
(270,814,l)
);
}
);
width = 251;
},
{
layerId = "06ABBA72-70F7-4001-AF7B-C55F8F698FE5";
shapes = (
{
closed = 1;
nodes = (
(134,834,l),
(218,710,l),
(289,710,l),
(235,834,l)
);
}
);
width = 243;
},
{
layerId = "DC8CD3C6-3F63-4C25-A479-02CA28197BED";
shapes = (
{
closed = 1;
nodes = (
(134,834,l),
(218,710,l),
(259,710,l),
(196,834,l)
);
}
);
width = 192;
}
);
},
{
glyphname = Gsmall;
layers = (
{
layerId = "5B161561-7DB5-4139-A0CA-38E113D4AFAB";
shapes = (
{
closed = 1;
nodes = (
(-8,72,o),
(83,-12,o),
(224,-12,cs),
(287,-12,o),
(352,-1,o),
(401,17,c),
(454,281,l),
(256,281,l),
(233,166,l),
(290,166,l),
(279,112,l),
(277,109,o),
(263,107,o),
(255,107,cs),
(204,107,o),
(162,140,o),
(181,237,cs),
(198,324,o),
(247,378,o),
(325,378,cs),
(361,378,o),
(397,367,o),
(425,350,c),
(476,458,l),
(433,484,o),
(386,495,o),
(329,495,cs),
(181,495,o),
(55,392,o),
(24,234,cs)
);
}
);
width = 485;
},
{
layerId = "613EF1C7-735E-4737-B49D-EADCFD002D35";
shapes = (
{
closed = 1;
nodes = (
(-7,72,o),
(83,-11,o),
(223,-11,cs),
(284,-11,o),
(347,-1,o),
(395,17,c),
(447,275,l),
(256,275,l),
(235,170,l),
(299,170,l),
(286,103,l),
(280,99,o),
(263,97,o),
(252,97,cs),
(195,97,o),
(147,132,o),
(168,237,cs),
(186,328,o),
(240,384,o),
(322,384,cs),
(358,384,o),
(395,374,o),
(423,357,c),
(470,457,l),
(427,482,o),
(379,491,o),
(326,491,cs),
(179,491,o),
(56,390,o),
(25,234,cs)
);
}
);
width = 483;
},
{
layerId = "06ABBA72-70F7-4001-AF7B-C55F8F698FE5";
shapes = (
{
closed = 1;
nodes = (
(-1,72,o),
(86,-9,o),
(220,-9,cs),
(273,-9,o),
(329,1,o),
(372,19,c),
(419,250,l),
(258,250,l),
(245,185,l),
(336,185,l),
(313,69,l),
(290,62,o),
(265,59,o),
(240,59,cs),
(159,59,o),
(90,102,o),
(117,237,cs),
(139,346,o),
(214,410,o),
(311,410,cs),
(347,410,o),
(387,404,o),
(414,386,c),
(446,453,l),
(402,475,o),
(355,477,o),
(316,477,cs),
(174,477,o),
(61,384,o),
(31,234,cs)
);
}
);
width = 475;
},
{
layerId = "DC8CD3C6-3F63-4C25-A479-02CA28197BED";
shapes = (
{
closed = 1;
nodes = (
(-7,72,o),
(82,-8,o),
(210,-8,cs),
(259,-8,o),
(308,2,o),
(348,20,c),
(392,240,l),
(241,240,l),
(234,205,l),
(344,205,l),
(313,46,l),
(289,36,o),
(250,30,o),
(220,30,cs),
(125,30,o),
(41,78,o),
(73,237,cs),
(98,364,o),
(187,437,o),
(301,437,cs),
(343,437,o),
(371,431,o),
(401,418,c),
(419,455,l),
(385,472,o),
(343,476,o),
(304,476,cs),
(168,476,o),
(55,384,o),
(25,234,cs)
);
}
);
width = 446;
}
);
unicode = 610;
},
{
glyphname = H;
layers = (
{
layerId = "5B161561-7DB5-4139-A0CA-38E113D4AFAB";
shapes = (
{
closed = 1;
nodes = (
(0,0,l),
(164,0,l),
(216,262,l),
(411,262,l),
(359,0,l),
(523,0,l),
(648,630,l),
(485,630,l),
(437,390,l),
(242,390,l),
(290,630,l),
(126,630,l)
);
}
);
width = 636;
},
{
layerId = "613EF1C7-735E-4737-B49D-EADCFD002D35";
shapes = (
{
closed = 1;
nodes = (
(3,0,l),
(152,0,l),
(205,267,l),
(420,267,l),
(367,0,l),
(516,0,l),
(641,630,l),
(493,630,l),
(444,385,l),
(229,385,l),
(278,630,l),
(129,630,l)
);
}
);
width = 632;
},
{
layerId = "06ABBA72-70F7-4001-AF7B-C55F8F698FE5";
shapes = (
{
closed = 1;
nodes = (
(16,0,l),
(106,0,l),
(163,287,l),
(456,287,l),
(399,0,l),
(489,0,l),
(615,630,l),
(525,630,l),
(472,365,l),
(179,365,l),
(232,630,l),
(142,630,l)
);
}
);
width = 618;
},
{
layerId = "DC8CD3C6-3F63-4C25-A479-02CA28197BED";
shapes = (
{
closed = 1;
nodes = (
(16,0,l),
(67,0,l),
(128,305,l),
(460,305,l),
(399,0,l),
(450,0,l),
(576,630,l),
(525,630,l),
(468,347,l),
(136,347,l),
(193,630,l),
(142,630,l)
);
}
);
width = 579;
}
);
leftKerningGroup = public.kern2._H;
rightKerningGroup = public.kern1._H;
unicode = 72;
},
{
glyphname = Hbar;
layers = (
{
layerId = "5B161561-7DB5-4139-A0CA-38E113D4AFAB";
shapes = (
{
closed = 1;
nodes = (
(20,0,l),
(184,0,l),
(236,262,l),
(431,262,l),
(379,0,l),
(543,0,l),
(635,463,l),
(694,463,l),
(713,563,l),
(654,563,l),
(668,630,l),
(504,630,l),
(491,563,l),
(296,563,l),
(310,630,l),
(146,630,l),
(133,563,l),
(74,563,l),
(54,463,l),
(113,463,l)
);
},
{
closed = 1;
nodes = (
(262,390,l),
(276,463,l),
(471,463,l),
(457,390,l)
);
}
);
width = 676;
},
{
layerId = "613EF1C7-735E-4737-B49D-EADCFD002D35";
shapes = (
{
closed = 1;
nodes = (
(20,0,l),
(169,0,l),
(222,267,l),
(437,267,l),
(384,0,l),
(533,0,l),
(626,468,l),
(685,468,l),
(703,560,l),
(644,560,l),
(658,630,l),
(509,630,l),
(495,560,l),
(281,560,l),
(295,630,l),
(146,630,l),
(132,560,l),
(73,560,l),
(55,468,l),
(114,468,l)
);
},
{
closed = 1;
nodes = (
(246,385,l),
(262,468,l),
(477,468,l),
(461,385,l)
);
}
);
width = 666;
},
{
layerId = "06ABBA72-70F7-4001-AF7B-C55F8F698FE5";
shapes = (
{
closed = 1;
nodes = (
(20,0,l),
(110,0,l),
(168,287,l),
(461,287,l),
(403,0,l),
(493,0,l),
(591,488,l),
(650,488,l),
(662,550,l),
(603,550,l),
(619,630,l),
(529,630,l),
(513,550,l),
(220,550,l),
(236,630,l),
(146,630,l),
(130,550,l),
(71,550,l),
(59,488,l),
(118,488,l)
);
},
{
closed = 1;
nodes = (
(183,365,l),
(208,488,l),
(501,488,l),
(476,365,l)
);
}
);
width = 626;
},
{
layerId = "DC8CD3C6-3F63-4C25-A479-02CA28197BED";
shapes = (
{
closed = 1;
nodes = (
(40,0,l),
(91,0,l),
(152,305,l),
(484,305,l),
(423,0,l),
(474,0,l),
(571,488,l),
(650,488,l),
(658,530,l),
(580,530,l),
(600,630,l),
(549,630,l),
(529,530,l),
(196,530,l),
(216,630,l),
(165,630,l),
(146,530,l),
(67,530,l),
(59,488,l),
(137,488,l)
);
},
{
closed = 1;
nodes = (
(160,347,l),
(188,488,l),
(520,488,l),
(492,347,l)
);
}
);
width = 627;
}
);
leftKerningGroup = public.kern2._H;
rightKerningGroup = public.kern1._H;
unicode = 294;
},
{
glyphname = Hcircumflex;
layers = (
{
layerId = "5B161561-7DB5-4139-A0CA-38E113D4AFAB";
shapes = (
{
closed = 1;
nodes = (
(0,0,l),
(164,0,l),
(216,262,l),
(411,262,l),
(359,0,l),
(523,0,l),
(648,630,l),
(485,630,l),
(437,390,l),
(242,390,l),
(290,630,l),
(126,630,l)
);
},
{
closed = 1;
nodes = (
(237,685,l),
(348,685,l),
(413,744,l),
(455,685,l),
(571,685,l),
(485,807,l),
(368,807,l)
);
}
);
width = 636;
},
{
layerId = "613EF1C7-735E-4737-B49D-EADCFD002D35";
shapes = (
{
closed = 1;
nodes = (
(3,0,l),
(152,0,l),
(205,267,l),
(420,267,l),
(367,0,l),
(516,0,l),
(641,630,l),
(493,630,l),
(444,385,l),
(229,385,l),
(278,630,l),
(129,630,l)
);
},
{
closed = 1;
nodes = (
(238,690,l),
(342,690,l),
(413,754,l),
(459,690,l),
(567,690,l),
(479,814,l),
(372,814,l)
);
}
);
width = 632;
},
{
layerId = "06ABBA72-70F7-4001-AF7B-C55F8F698FE5";
shapes = (
{
closed = 1;
nodes = (
(16,0,l),
(106,0,l),
(163,287,l),
(456,287,l),
(399,0,l),
(489,0,l),
(615,630,l),
(525,630,l),
(472,365,l),
(179,365,l),
(232,630,l),
(142,630,l)
);
},
{
closed = 1;
nodes = (
(243,710,l),
(317,710,l),
(413,794,l),
(474,710,l),
(553,710,l),
(457,844,l),
(389,844,l)
);
}
);
width = 618;
},
{
layerId = "DC8CD3C6-3F63-4C25-A479-02CA28197BED";
shapes = (
{
closed = 1;
nodes = (
(16,0,l),
(67,0,l),
(128,305,l),
(460,305,l),
(399,0,l),
(450,0,l),
(576,630,l),
(525,630,l),
(468,347,l),
(136,347,l),
(193,630,l),
(142,630,l)
);
},
{
closed = 1;
nodes = (
(231,710,l),
(286,710,l),
(394,809,l),
(462,710,l),
(521,710,l),
(426,844,l),
(378,844,l)
);
}
);
width = 579;
}
);
leftKerningGroup = public.kern2._H;
rightKerningGroup = public.kern1._H;
unicode = 292;
},
{
glyphname = Hookcomb;
layers = (
{
layerId = "5B161561-7DB5-4139-A0CA-38E113D4AFAB";
shapes = (
{
closed = 1;
nodes = (
(197,835,o),
(159,867,o),
(99,867,cs),
(65,867,o),
(31,858,o),
(8,845,c),
(12,762,l),
(24,767,o),
(34,770,o),
(50,770,cs),
(74,770,o),
(84,759,o),
(79,736,c),
(75,713,o),
(71,703,o),
(32,679,c),
(114,679,l),
(155,703,o),
(175,722,o),
(185,773,cs)
);
}
);
width = 0;
},
{
layerId = "613EF1C7-735E-4737-B49D-EADCFD002D35";
shapes = (
{
closed = 1;
nodes = (
(231,842,o),
(192,871,o),
(132,871,cs),
(99,871,o),
(66,862,o),
(43,849,c),
(47,773,l),
(59,778,o),
(70,781,o),
(87,781,cs),
(112,781,o),
(125,773,o),
(120,748,cs),
(115,721,o),
(103,710,o),
(59,685,c),
(142,685,l),
(183,708,o),
(209,729,o),
(219,780,cs)
);
}
);
width = 13;
},
{
layerId = "06ABBA72-70F7-4001-AF7B-C55F8F698FE5";
shapes = (
{
closed = 1;
nodes = (
(366,871,o),
(325,886,o),
(265,886,cs),
(236,886,o),
(207,879,o),
(182,865,c),
(186,818,l),
(200,823,o),
(217,826,o),
(236,826,cs),
(267,826,o),
(290,827,o),
(284,795,cs),
(276,754,o),
(233,739,o),
(168,710,c),
(254,710,l),
(296,728,o),
(344,758,o),
(354,809,cs)
);
}
);
width = 316;
},
{
layerId = "DC8CD3C6-3F63-4C25-A479-02CA28197BED";
shapes = (
{
closed = 1;
nodes = (
(211,856,o),
(167,875,o),
(107,875,cs),
(78,875,o),
(49,867,o),
(28,855,c),
(30,825,l),
(44,831,o),
(62,836,o),
(86,836,cs),
(129,836,o),
(159,828,o),
(151,790,cs),
(142,745,o),
(104,742,o),
(45,710,c),
(102,710,l),
(144,728,o),
(189,743,o),
(199,794,cs)
);
}
);
width = 13;
}
);
},
{
glyphname = Horncomb;
layers = (
{
layerId = "5B161561-7DB5-4139-A0CA-38E113D4AFAB";
shapes = (
{
closed = 1;
nodes = (
(-99,380,l),
(-22,416,o),
(162,564,o),
(183,668,cs),
(202,763,o),
(158,803,o),
(112,803,cs),
(53,803,o),
(13,762,o),
(3,714,cs),
(-7,664,o),
(14,628,o),
(62,616,cs),
(74,613,l),
(56,566,o),
(-82,464,o),
(-130,440,c)
);
}
);
width = 0;
},
{
layerId = "613EF1C7-735E-4737-B49D-EADCFD002D35";
shapes = (
{
closed = 1;
nodes = (
(-71,400,l),
(5,436,o),
(170,569,o),
(190,667,cs),
(208,759,o),
(166,794,o),
(123,794,cs),
(68,794,o),
(30,755,o),
(21,710,cs),
(12,664,o),
(31,629,o),
(76,619,cs),
(89,616,l),
(71,569,o),
(-54,479,o),
(-100,456,c)
);
}
);
width = 15;
},
{
layerId = "06ABBA72-70F7-4001-AF7B-C55F8F698FE5";
shapes = (
{
closed = 1;
nodes = (
(41,482,l),
(111,517,o),
(205,590,o),
(219,662,cs),
(235,741,o),
(197,757,o),
(167,757,cs),
(128,757,o),
(99,727,o),
(93,695,cs),
(87,664,o),
(99,635,o),
(132,631,c),
(149,628,l),
(131,581,o),
(58,541,o),
(20,522,c)
);
}
);
width = 313;
},
{
layerId = "DC8CD3C6-3F63-4C25-A479-02CA28197BED";
shapes = (
{
closed = 1;
nodes = (
(-40,479,l),
(15,505,o),
(124,596,o),
(136,656,cs),
(146,708,o),
(124,722,o),
(103,722,cs),
(79,722,o),
(59,704,o),
(54,680,cs),
(48,652,o),
(62,636,o),
(84,632,c),
(88,631,l),
(76,598,o),
(-11,527,o),
(-54,507,c)
);
}
);
width = 9;
}
);
},
{
glyphname = Hsmall;
layers = (
{
layerId = "5B161561-7DB5-4139-A0CA-38E113D4AFAB";
shapes = (
{
closed = 1;
nodes = (
(-9,0,l),
(143,0,l),
(182,192,l),
(319,192,l),
(281,0,l),
(433,0,l),
(530,483,l),
(377,483,l),
(342,308,l),
(204,308,l),
(239,483,l),
(88,483,l)
);
}
);
width = 539;
},
{
layerId = "613EF1C7-735E-4737-B49D-EADCFD002D35";
shapes = (
{
closed = 1;
nodes = (
(-4,0,l),
(134,0,l),
(173,196,l),
(325,196,l),
(286,0,l),
(424,0,l),
(520,480,l),
(381,480,l),
(346,303,l),
(194,303,l),
(229,480,l),
(92,480,l)
);
}
);
width = 534;
},
{
layerId = "06ABBA72-70F7-4001-AF7B-C55F8F698FE5";
shapes = (
{
closed = 1;
nodes = (
(16,0,l),
(97,0,l),
(139,211,l),
(348,211,l),
(306,0,l),
(387,0,l),
(481,470,l),
(399,470,l),
(362,283,l),
(153,283,l),
(190,470,l),
(110,470,l)
);
}
);
width = 516;
},
{
layerId = "DC8CD3C6-3F63-4C25-A479-02CA28197BED";
shapes = (
{
closed = 1;
nodes = (
(5,0,l),
(50,0,l),
(96,228,l),
(324,228,l),
(278,0,l),
(324,0,l),
(418,470,l),
(372,470,l),
(332,266,l),
(104,266,l),
(144,470,l),
(99,470,l)
);
}
);
width = 442;
}
);
unicode = 668;
},
{
glyphname = Hungarumlaut;
layers = (
{
layerId = "5B161561-7DB5-4139-A0CA-38E113D4AFAB";
shapes = (
{
closed = 1;
nodes = (
(94,685,l),
(214,685,l),
(348,809,l),
(197,809,l)
);
},
{
closed = 1;
nodes = (
(315,685,l),
(435,685,l),
(569,809,l),
(418,809,l)
);
}
);
width = 434;
},
{
layerId = "613EF1C7-735E-4737-B49D-EADCFD002D35";
shapes = (
{
closed = 1;
nodes = (
(98,690,l),
(208,690,l),
(341,814,l),
(201,814,l)
);
},
{
closed = 1;
nodes = (
(311,690,l),
(421,690,l),
(554,814,l),
(414,814,l)
);
}
);
width = 430;
},
{
layerId = "06ABBA72-70F7-4001-AF7B-C55F8F698FE5";
shapes = (
{
closed = 1;
nodes = (
(114,710,l),
(185,710,l),
(313,835,l),
(217,835,l)
);
},
{
closed = 1;
nodes = (
(296,710,l),
(367,710,l),
(496,835,l),
(400,835,l)
);
}
);
width = 415;
},
{
layerId = "DC8CD3C6-3F63-4C25-A479-02CA28197BED";
shapes = (
{
closed = 1;
nodes = (
(103,710,l),
(144,710,l),
(278,834,l),
(216,834,l)
);
},
{
closed = 1;
nodes = (
(270,710,l),
(311,710,l),
(444,834,l),
(383,834,l)
);
}
);
width = 359;
}
);
},
{
glyphname = I;
layers = (
{
layerId = "5B161561-7DB5-4139-A0CA-38E113D4AFAB";
shapes = (
{
closed = 1;
nodes = (
(0,0,l),
(164,0,l),
(290,630,l),
(126,630,l)
);
}
);
width = 278;
},
{
layerId = "613EF1C7-735E-4737-B49D-EADCFD002D35";
shapes = (
{
closed = 1;
nodes = (
(3,0,l),
(152,0,l),
(278,630,l),
(129,630,l)
);
}
);
width = 269;
},
{
layerId = "06ABBA72-70F7-4001-AF7B-C55F8F698FE5";
shapes = (
{
closed = 1;
nodes = (
(16,0,l),
(106,0,l),
(232,630,l),
(142,630,l)
);
}
);
width = 234;
},
{
layerId = "DC8CD3C6-3F63-4C25-A479-02CA28197BED";
shapes = (
{
closed = 1;
nodes = (
(16,0,l),
(67,0,l),
(193,630,l),
(142,630,l)
);
}
);
width = 196;
}
);
leftKerningGroup = public.kern2._I;
rightKerningGroup = public.kern1._I;
unicode = 73;
},
{
glyphname = IJ;
layers = (
{
layerId = "5B161561-7DB5-4139-A0CA-38E113D4AFAB";
shapes = (
{
closed = 1;
nodes = (
(0,0,l),
(164,0,l),
(290,630,l),
(126,630,l)
);
},
{
closed = 1;
nodes = (
(158,-180,l),
(236,-180,o),
(310,-163,o),
(366,-114,c),
(424,-61,o),
(450,2,o),
(473,115,cs),
(576,630,l),
(413,630,l),
(300,61,ls),
(292,19,o),
(280,-15,o),
(252,-33,c),
(237,-44,o),
(213,-55,o),
(183,-55,c)
);
}
);
width = 566;
},
{
layerId = "613EF1C7-735E-4737-B49D-EADCFD002D35";
shapes = (
{
closed = 1;
nodes = (
(3,0,l),
(152,0,l),
(278,630,l),
(129,630,l)
);
},
{
closed = 1;
nodes = (
(147,-175,l),
(222,-175,o),
(296,-157,o),
(351,-107,cs),
(406,-55,o),
(430,6,o),
(452,115,cs),
(555,630,l),
(406,630,l),
(293,62,ls),
(285,20,o),
(273,-15,o),
(245,-35,c),
(228,-48,o),
(202,-60,o),
(170,-60,c)
);
}
);
width = 546;
},
{
layerId = "06ABBA72-70F7-4001-AF7B-C55F8F698FE5";
shapes = (
{
closed = 1;
nodes = (
(16,0,l),
(106,0,l),
(232,630,l),
(142,630,l)
);
},
{
closed = 1;
nodes = (
(105,-155,l),
(168,-154,o),
(241,-135,o),
(291,-79,cs),
(333,-33,o),
(348,22,o),
(367,115,cs),
(470,630,l),
(380,630,l),
(267,67,ls),
(259,25,o),
(246,-17,o),
(217,-43,cs),
(192,-66,o),
(160,-79,o),
(120,-80,c)
);
}
);
width = 466;
},
{
layerId = "DC8CD3C6-3F63-4C25-A479-02CA28197BED";
shapes = (
{
closed = 1;
nodes = (
(16,0,l),
(67,0,l),
(193,630,l),
(142,630,l)
);
},
{
closed = 1;
nodes = (
(91,-135,l),
(146,-134,o),
(215,-117,o),
(261,-61,cs),
(293,-22,o),
(310,21,o),
(327,104,cs),
(432,630,l),
(381,630,l),
(269,69,ls),
(258,12,o),
(239,-36,o),
(199,-66,cs),
(171,-86,o),
(138,-97,o),
(98,-98,c)
);
}
);
width = 428;
}
);
unicode = 306;
},
{
glyphname = Iacute;
layers = (
{
layerId = "5B161561-7DB5-4139-A0CA-38E113D4AFAB";
shapes = (
{
closed = 1;
nodes = (
(0,0,l),
(164,0,l),
(290,630,l),
(126,630,l)
);
},
{
closed = 1;
nodes = (
(160,685,l),
(291,685,l),
(431,809,l),
(263,809,l)
);
}
);
width = 285;
},
{
layerId = "613EF1C7-735E-4737-B49D-EADCFD002D35";
shapes = (
{
closed = 1;
nodes = (
(3,0,l),
(152,0,l),
(278,630,l),
(129,630,l)
);
},
{
closed = 1;
nodes = (
(161,690,l),
(280,690,l),
(419,814,l),
(264,814,l)
);
}
);
width = 276;
},
{
layerId = "06ABBA72-70F7-4001-AF7B-C55F8F698FE5";
shapes = (
{
closed = 1;
nodes = (
(16,0,l),
(106,0,l),
(232,630,l),
(142,630,l)
);
},
{
closed = 1;
nodes = (
(166,710,l),
(237,710,l),
(371,834,l),
(270,834,l)
);
}
);
width = 242;
},
{
layerId = "DC8CD3C6-3F63-4C25-A479-02CA28197BED";
shapes = (
{
closed = 1;
nodes = (
(16,0,l),
(67,0,l),
(193,630,l),
(142,630,l)
);
},
{
closed = 1;
nodes = (
(158,710,l),
(199,710,l),
(332,834,l),
(271,834,l)
);
}
);
width = 202;
}
);
leftKerningGroup = public.kern2._I;
rightKerningGroup = public.kern1._I;
unicode = 205;
},
{
glyphname = Ibreve;
layers = (
{
layerId = "5B161561-7DB5-4139-A0CA-38E113D4AFAB";
shapes = (
{
closed = 1;
nodes = (
(3,0,l),
(167,0,l),
(293,630,l),
(129,630,l)
);
},
{
closed = 1;
nodes = (
(114,809,l),
(100,737,o),
(128,679,o),
(221,679,cs),
(305,679,o),
(362,726,o),
(378,809,c),
(292,809,l),
(286,779,o),
(266,764,o),
(238,764,cs),
(208,764,o),
(195,782,o),
(200,809,c)
);
}
);
width = 284;
},
{
layerId = "613EF1C7-735E-4737-B49D-EADCFD002D35";
shapes = (
{
closed = 1;
nodes = (
(7,0,l),
(156,0,l),
(282,630,l),
(133,630,l)
);
},
{
closed = 1;
nodes = (
(112,814,l),
(98,744,o),
(126,685,o),
(219,685,cs),
(303,685,o),
(360,733,o),
(376,814,c),
(295,814,l),
(287,781,o),
(266,764,o),
(235,764,cs),
(200,764,o),
(188,784,o),
(193,814,c)
);
}
);
width = 277;
},
{
layerId = "06ABBA72-70F7-4001-AF7B-C55F8F698FE5";
shapes = (
{
closed = 1;
nodes = (
(22,0,l),
(112,0,l),
(238,630,l),
(148,630,l)
);
},
{
closed = 1;
nodes = (
(103,834,l),
(91,772,o),
(118,710,o),
(211,710,cs),
(295,710,o),
(353,762,o),
(367,834,c),
(306,834,l),
(292,789,o),
(267,764,o),
(222,764,cs),
(169,764,o),
(161,791,o),
(165,834,c)
);
}
);
width = 248;
},
{
layerId = "DC8CD3C6-3F63-4C25-A479-02CA28197BED";
shapes = (
{
closed = 1;
nodes = (
(24,0,l),
(74,0,l),
(200,630,l),
(149,630,l)
);
},
{
closed = 1;
nodes = (
(82,834,l),
(69,769,o),
(98,710,o),
(191,710,cs),
(275,710,o),
(332,762,o),
(346,834,c),
(299,834,l),
(287,781,o),
(250,750,o),
(199,750,cs),
(138,750,o),
(120,784,o),
(129,834,c)
);
}
);
width = 210;
}
);
leftKerningGroup = public.kern2._I;
rightKerningGroup = public.kern1._I;
unicode = 300;
},
{
glyphname = Icircumflex;
layers = (
{
layerId = "5B161561-7DB5-4139-A0CA-38E113D4AFAB";
shapes = (
{
closed = 1;
nodes = (
(5,0,l),
(169,0,l),
(295,630,l),
(132,630,l)
);
},
{
closed = 1;
nodes = (
(62,685,l),
(174,685,l),
(239,744,l),
(281,685,l),
(396,685,l),
(310,807,l),
(193,807,l)
);
}
);
width = 289;
},
{
layerId = "613EF1C7-735E-4737-B49D-EADCFD002D35";
shapes = (
{
closed = 1;
nodes = (
(9,0,l),
(158,0,l),
(284,630,l),
(135,630,l)
);
},
{
closed = 1;
nodes = (
(61,690,l),
(165,690,l),
(236,754,l),
(282,690,l),
(390,690,l),
(302,814,l),
(195,814,l)
);
}
);
width = 281;
},
{
layerId = "06ABBA72-70F7-4001-AF7B-C55F8F698FE5";
shapes = (
{
closed = 1;
nodes = (
(24,0,l),
(114,0,l),
(240,630,l),
(149,630,l)
);
},
{
closed = 1;
nodes = (
(57,710,l),
(131,710,l),
(226,794,l),
(288,710,l),
(366,710,l),
(271,844,l),
(203,844,l)
);
}
);
width = 251;
},
{
layerId = "DC8CD3C6-3F63-4C25-A479-02CA28197BED";
shapes = (
{
closed = 1;
nodes = (
(24,0,l),
(75,0,l),
(201,630,l),
(150,630,l)
);
},
{
closed = 1;
nodes = (
(50,710,l),
(105,710,l),
(213,809,l),
(282,710,l),
(340,710,l),
(245,844,l),
(197,844,l)
);
}
);
width = 212;
}
);
leftKerningGroup = public.kern2._I;
rightKerningGroup = public.kern1._I;
unicode = 206;
},
{
glyphname = Idieresis;
layers = (
{
layerId = "5B161561-7DB5-4139-A0CA-38E113D4AFAB";
shapes = (
{
closed = 1;
nodes = (
(7,0,l),
(171,0,l),
(297,630,l),
(133,630,l)
);
},
{
closed = 1;
nodes = (
(52,703,o),
(77,671,o),
(117,671,cs),
(157,671,o),
(192,703,o),
(201,745,cs),
(209,785,o),
(186,815,o),
(146,815,cs),
(106,815,o),
(69,785,o),
(61,745,cs)
);
},
{
closed = 1;
nodes = (
(262,703,o),
(288,671,o),
(328,671,cs),
(368,671,o),
(403,703,o),
(412,745,cs),
(420,785,o),
(397,815,o),
(357,815,cs),
(317,815,o),
(279,785,o),
(271,745,cs)
);
}
);
width = 291;
},
{
layerId = "613EF1C7-735E-4737-B49D-EADCFD002D35";
shapes = (
{
closed = 1;
nodes = (
(10,0,l),
(159,0,l),
(285,630,l),
(136,630,l)
);
},
{
closed = 1;
nodes = (
(58,709,o),
(82,679,o),
(119,679,cs),
(156,679,o),
(190,709,o),
(198,748,cs),
(205,785,o),
(183,814,o),
(146,814,cs),
(109,814,o),
(73,785,o),
(66,748,cs)
);
},
{
closed = 1;
nodes = (
(259,709,o),
(283,679,o),
(320,679,cs),
(357,679,o),
(391,709,o),
(399,748,cs),
(406,785,o),
(384,814,o),
(347,814,cs),
(310,814,o),
(274,785,o),
(267,748,cs)
);
}
);
width = 282;
},
{
layerId = "06ABBA72-70F7-4001-AF7B-C55F8F698FE5";
shapes = (
{
closed = 1;
nodes = (
(22,0,l),
(112,0,l),
(238,630,l),
(148,630,l)
);
},
{
closed = 1;
nodes = (
(82,734,o),
(100,710,o),
(126,710,cs),
(152,710,o),
(180,734,o),
(185,761,cs),
(190,786,o),
(172,810,o),
(146,810,cs),
(120,810,o),
(92,786,o),
(87,761,cs)
);
},
{
closed = 1;
nodes = (
(245,734,o),
(262,710,o),
(288,710,cs),
(314,710,o),
(343,734,o),
(348,761,cs),
(353,786,o),
(334,810,o),
(308,810,cs),
(282,810,o),
(255,786,o),
(250,761,cs)
);
}
);
width = 247;
},
{
layerId = "DC8CD3C6-3F63-4C25-A479-02CA28197BED";
shapes = (
{
closed = 1;
nodes = (
(23,0,l),
(74,0,l),
(200,630,l),
(149,630,l)
);
},
{
closed = 1;
nodes = (
(73,738,o),
(86,722,o),
(109,722,cs),
(131,722,o),
(151,738,o),
(157,766,cs),
(162,792,o),
(149,810,o),
(127,810,cs),
(104,810,o),
(84,792,o),
(79,766,cs)
);
},
{
closed = 1;
nodes = (
(239,738,o),
(253,722,o),
(276,722,cs),
(298,722,o),
(318,738,o),
(324,766,cs),
(329,792,o),
(315,810,o),
(293,810,cs),
(270,810,o),
(250,792,o),
(245,766,cs)
);
}
);
width = 209;
}
);
leftKerningGroup = public.kern2._I;
rightKerningGroup = public.kern1._I;
unicode = 207;
},
{
glyphname = Idotaccent;
layers = (
{
layerId = "5B161561-7DB5-4139-A0CA-38E113D4AFAB";
shapes = (
{
closed = 1;
nodes = (
(-1,0,l),
(163,0,l),
(289,630,l),
(126,630,l)
);
},
{
closed = 1;
nodes = (
(153,702,o),
(177,671,o),
(216,671,cs),
(255,671,o),
(291,702,o),
(299,743,cs),
(306,782,o),
(283,812,o),
(244,812,cs),
(205,812,o),
(168,782,o),
(161,743,cs)
);
}
);
width = 277;
},
{
layerId = "613EF1C7-735E-4737-B49D-EADCFD002D35";
shapes = (
{
closed = 1;
nodes = (
(3,0,l),
(152,0,l),
(278,630,l),
(129,630,l)
);
},
{
closed = 1;
nodes = (
(152,709,o),
(176,679,o),
(213,679,cs),
(250,679,o),
(285,709,o),
(293,748,cs),
(300,785,o),
(277,814,o),
(240,814,cs),
(203,814,o),
(167,785,o),
(160,748,cs)
);
}
);
width = 269;
},
{
layerId = "06ABBA72-70F7-4001-AF7B-C55F8F698FE5";
shapes = (
{
closed = 1;
nodes = (
(17,0,l),
(107,0,l),
(233,630,l),
(143,630,l)
);
},
{
closed = 1;
nodes = (
(152,736,o),
(174,710,o),
(202,710,cs),
(232,710,o),
(262,736,o),
(268,767,cs),
(274,795,o),
(254,822,o),
(224,822,cs),
(196,822,o),
(164,795,o),
(158,767,cs)
);
}
);
width = 237;
},
{
layerId = "DC8CD3C6-3F63-4C25-A479-02CA28197BED";
shapes = (
{
closed = 1;
nodes = (
(17,0,l),
(68,0,l),
(194,630,l),
(143,630,l)
);
},
{
closed = 1;
nodes = (
(153,750,o),
(166,734,o),
(189,734,cs),
(211,734,o),
(231,750,o),
(237,778,cs),
(242,804,o),
(229,822,o),
(207,822,cs),
(184,822,o),
(164,804,o),
(159,778,cs)
);
}
);
width = 234;
}
);
leftKerningGroup = public.kern2._I;
rightKerningGroup = public.kern1._I;
unicode = 304;
},
{
glyphname = Igrave;
layers = (
{
layerId = "5B161561-7DB5-4139-A0CA-38E113D4AFAB";
shapes = (
{
closed = 1;
nodes = (
(7,0,l),
(171,0,l),
(297,630,l),
(133,630,l)
);
},
{
closed = 1;
nodes = (
(64,809,l),
(154,685,l),
(286,685,l),
(232,809,l)
);
}
);
width = 285;
},
{
layerId = "613EF1C7-735E-4737-B49D-EADCFD002D35";
shapes = (
{
closed = 1;
nodes = (
(10,0,l),
(159,0,l),
(285,630,l),
(136,630,l)
);
},
{
closed = 1;
nodes = (
(69,814,l),
(158,690,l),
(278,690,l),
(224,814,l)
);
}
);
width = 276;
},
{
layerId = "06ABBA72-70F7-4001-AF7B-C55F8F698FE5";
shapes = (
{
closed = 1;
nodes = (
(23,0,l),
(113,0,l),
(239,630,l),
(149,630,l)
);
},
{
closed = 1;
nodes = (
(91,834,l),
(175,710,l),
(245,710,l),
(191,834,l)
);
}
);
width = 242;
},
{
layerId = "DC8CD3C6-3F63-4C25-A479-02CA28197BED";
shapes = (
{
closed = 1;
nodes = (
(23,0,l),
(74,0,l),
(200,630,l),
(149,630,l)
);
},
{
closed = 1;
nodes = (
(91,834,l),
(175,710,l),
(217,710,l),
(153,834,l)
);
}
);
width = 204;
}
);
leftKerningGroup = public.kern2._I;
rightKerningGroup = public.kern1._I;
unicode = 204;
},
{
glyphname = Imacron;
layers = (
{
layerId = "5B161561-7DB5-4139-A0CA-38E113D4AFAB";
shapes = (
{
closed = 1;
nodes = (
(4,0,l),
(167,0,l),
(293,630,l),
(130,630,l)
);
},
{
closed = 1;
nodes = (
(93,685,l),
(351,685,l),
(368,772,l),
(109,772,l)
);
}
);
width = 284;
},
{
layerId = "613EF1C7-735E-4737-B49D-EADCFD002D35";
shapes = (
{
closed = 1;
nodes = (
(7,0,l),
(156,0,l),
(282,630,l),
(133,630,l)
);
},
{
closed = 1;
nodes = (
(92,690,l),
(347,690,l),
(363,772,l),
(108,772,l)
);
}
);
width = 276;
},
{
layerId = "06ABBA72-70F7-4001-AF7B-C55F8F698FE5";
shapes = (
{
closed = 1;
nodes = (
(21,0,l),
(111,0,l),
(237,630,l),
(147,630,l)
);
},
{
closed = 1;
nodes = (
(90,710,l),
(330,710,l),
(343,772,l),
(103,772,l)
);
}
);
width = 246;
},
{
layerId = "DC8CD3C6-3F63-4C25-A479-02CA28197BED";
shapes = (
{
closed = 1;
nodes = (
(23,0,l),
(73,0,l),
(199,630,l),
(148,630,l)
);
},
{
closed = 1;
nodes = (
(74,730,l),
(314,730,l),
(323,772,l),
(83,772,l)
);
}
);
width = 209;
}
);
leftKerningGroup = public.kern2._I;
rightKerningGroup = public.kern1._I;
unicode = 298;
},
{
glyphname = Iogonek;
layers = (
{
layerId = "5B161561-7DB5-4139-A0CA-38E113D4AFAB";
shapes = (
{
closed = 1;
nodes = (
(-59,-166,o),
(-23,-206,o),
(37,-206,cs),
(71,-206,o),
(107,-197,o),
(129,-184,c),
(124,-101,l),
(113,-105,o),
(104,-109,o),
(87,-109,cs),
(64,-109,o),
(53,-93,o),
(58,-70,c),
(62,-47,o),
(79,-22,o),
(96,0,c),
(166,0,l),
(292,630,l),
(128,630,l),
(2,0,l),
(-14,-24,o),
(-37,-53,o),
(-47,-104,cs)
);
}
);
width = 280;
},
{
layerId = "613EF1C7-735E-4737-B49D-EADCFD002D35";
shapes = (
{
closed = 1;
nodes = (
(-65,-166,o),
(-29,-206,o),
(31,-206,cs),
(64,-206,o),
(98,-197,o),
(121,-184,c),
(117,-108,l),
(105,-112,o),
(94,-116,o),
(77,-116,cs),
(52,-116,o),
(40,-100,o),
(45,-75,cs),
(50,-48,o),
(72,-23,o),
(99,0,c),
(155,0,l),
(281,630,l),
(132,630,l),
(6,0,l),
(-15,-23,o),
(-43,-53,o),
(-53,-104,cs)
);
}
);
width = 272;
},
{
layerId = "06ABBA72-70F7-4001-AF7B-C55F8F698FE5";
shapes = (
{
closed = 1;
nodes = (
(-88,-168,o),
(-51,-206,o),
(9,-206,cs),
(38,-206,o),
(66,-199,o),
(91,-185,c),
(88,-138,l),
(74,-143,o),
(56,-146,o),
(37,-146,cs),
(6,-146,o),
(-13,-127,o),
(-7,-95,cs),
(1,-54,o),
(46,-29,o),
(111,0,c),
(111,0,l),
(237,630,l),
(147,630,l),
(21,0,l),
(-21,-18,o),
(-66,-55,o),
(-76,-106,cs)
);
}
);
width = 242;
},
{
layerId = "DC8CD3C6-3F63-4C25-A479-02CA28197BED";
shapes = (
{
closed = 1;
nodes = (
(-89,-171,o),
(-47,-205,o),
(13,-205,cs),
(42,-205,o),
(70,-197,o),
(91,-185,c),
(89,-155,l),
(75,-161,o),
(57,-166,o),
(33,-166,cs),
(-10,-166,o),
(-36,-143,o),
(-28,-105,cs),
(-19,-60,o),
(13,-32,o),
(72,0,c),
(72,0,l),
(198,630,l),
(147,630,l),
(21,0,l),
(-24,-21,o),
(-67,-59,o),
(-77,-109,cs)
);
}
);
width = 205;
}
);
leftKerningGroup = public.kern2._I;
rightKerningGroup = public.kern1._I;
unicode = 302;
},
{
glyphname = Ismall;
layers = (
{
layerId = "5B161561-7DB5-4139-A0CA-38E113D4AFAB";
shapes = (
{
closed = 1;
nodes = (
(-9,0,l),
(145,0,l),
(242,483,l),
(88,483,l)
);
}
);
width = 251;
},
{
layerId = "613EF1C7-735E-4737-B49D-EADCFD002D35";
shapes = (
{
closed = 1;
nodes = (
(-4,0,l),
(136,0,l),
(232,480,l),
(92,480,l)
);
}
);
width = 246;
},
{
layerId = "06ABBA72-70F7-4001-AF7B-C55F8F698FE5";
shapes = (
{
closed = 1;
nodes = (
(16,0,l),
(99,0,l),
(193,470,l),
(110,470,l)
);
}
);
width = 228;
},
{
layerId = "DC8CD3C6-3F63-4C25-A479-02CA28197BED";
shapes = (
{
closed = 1;
nodes = (
(5,0,l),
(50,0,l),
(144,470,l),
(99,470,l)
);
}
);
width = 169;
}
);
unicode = 618;
},
{
glyphname = Itilde;
layers = (
{
layerId = "5B161561-7DB5-4139-A0CA-38E113D4AFAB";
shapes = (
{
closed = 1;
nodes = (
(4,0,l),
(168,0,l),
(294,630,l),
(130,630,l)
);
},
{
closed = 1;
nodes = (
(149,685,l),
(154,704,o),
(163,720,o),
(182,720,cs),
(207,720,o),
(239,690,o),
(286,690,cs),
(337,690,o),
(382,735,o),
(398,812,c),
(325,812,l),
(320,790,o),
(309,778,o),
(291,778,cs),
(258,778,o),
(236,809,o),
(192,809,cs),
(136,809,o),
(89,754,o),
(76,685,c)
);
}
);
width = 286;
},
{
layerId = "613EF1C7-735E-4737-B49D-EADCFD002D35";
shapes = (
{
closed = 1;
nodes = (
(8,0,l),
(157,0,l),
(283,630,l),
(134,630,l)
);
},
{
closed = 1;
nodes = (
(140,690,l),
(145,710,o),
(155,727,o),
(176,727,cs),
(202,727,o),
(234,695,o),
(283,695,cs),
(335,695,o),
(378,741,o),
(393,814,c),
(325,814,l),
(320,792,o),
(307,778,o),
(288,778,cs),
(253,778,o),
(232,811,o),
(186,811,cs),
(129,811,o),
(85,757,o),
(72,690,c)
);
}
);
width = 279;
},
{
layerId = "06ABBA72-70F7-4001-AF7B-C55F8F698FE5";
shapes = (
{
closed = 1;
nodes = (
(24,0,l),
(114,0,l),
(240,630,l),
(150,630,l)
);
},
{
closed = 1;
nodes = (
(104,711,l),
(111,737,o),
(125,757,o),
(152,757,cs),
(183,757,o),
(215,714,o),
(271,714,cs),
(326,714,o),
(364,769,o),
(375,824,c),
(326,824,l),
(320,802,o),
(303,777,o),
(278,777,cs),
(237,777,o),
(217,821,o),
(162,821,cs),
(102,821,o),
(67,772,o),
(55,711,c)
);
}
);
width = 250;
},
{
layerId = "DC8CD3C6-3F63-4C25-A479-02CA28197BED";
shapes = (
{
closed = 1;
nodes = (
(25,0,l),
(76,0,l),
(201,630,l),
(151,630,l)
);
},
{
closed = 1;
nodes = (
(83,715,l),
(91,747,o),
(110,775,o),
(144,775,cs),
(179,775,o),
(199,721,o),
(260,721,cs),
(315,721,o),
(352,768,o),
(362,818,c),
(322,818,l),
(312,785,o),
(297,761,o),
(263,761,cs),
(218,761,o),
(207,815,o),
(149,815,cs),
(89,815,o),
(55,770,o),
(44,715,c)
);
}
);
width = 213;
}
);
leftKerningGroup = public.kern2._I;
rightKerningGroup = public.kern1._I;
unicode = 296;
},
{
glyphname = J;
layers = (
{
layerId = "5B161561-7DB5-4139-A0CA-38E113D4AFAB";
shapes = (
{
closed = 1;
nodes = (
(-112,-180,l),
(-34,-180,o),
(41,-163,o),
(97,-114,c),
(155,-61,o),
(181,2,o),
(204,115,cs),
(307,630,l),
(143,630,l),
(29,61,ls),
(21,19,o),
(9,-15,o),
(-19,-33,c),
(-34,-44,o),
(-57,-55,o),
(-87,-55,c)
);
}
);
width = 295;
},
{
layerId = "613EF1C7-735E-4737-B49D-EADCFD002D35";
shapes = (
{
closed = 1;
nodes = (
(-110,-175,l),
(-35,-175,o),
(39,-157,o),
(94,-107,cs),
(149,-55,o),
(173,6,o),
(195,115,cs),
(298,630,l),
(149,630,l),
(35,62,ls),
(27,20,o),
(15,-15,o),
(-13,-35,cs),
(-30,-48,o),
(-55,-60,o),
(-87,-60,c)
);
}
);
width = 288;
},
{
layerId = "06ABBA72-70F7-4001-AF7B-C55F8F698FE5";
shapes = (
{
closed = 1;
nodes = (
(-102,-155,l),
(-39,-154,o),
(34,-135,o),
(84,-79,cs),
(126,-33,o),
(141,22,o),
(160,115,cs),
(263,630,l),
(173,630,l),
(60,67,ls),
(52,25,o),
(39,-17,o),
(10,-43,cs),
(-15,-66,o),
(-47,-79,o),
(-87,-80,c)
);
}
);
width = 259;
},
{
layerId = "DC8CD3C6-3F63-4C25-A479-02CA28197BED";
shapes = (
{
closed = 1;
nodes = (
(-98,-135,l),
(-43,-134,o),
(27,-117,o),
(73,-61,cs),
(105,-22,o),
(121,21,o),
(138,104,cs),
(243,630,l),
(192,630,l),
(80,69,ls),
(69,12,o),
(50,-36,o),
(10,-66,cs),
(-18,-86,o),
(-50,-97,o),
(-90,-98,c)
);
}
);
width = 240;
}
);
leftKerningGroup = public.kern2._J;
rightKerningGroup = public.kern1._J;
unicode = 74;
},
{
glyphname = Jcircumflex;
layers = (
{
layerId = "5B161561-7DB5-4139-A0CA-38E113D4AFAB";
shapes = (
{
closed = 1;
nodes = (
(-112,-180,l),
(-34,-180,o),
(41,-163,o),
(97,-114,c),
(155,-61,o),
(181,2,o),
(204,115,cs),
(307,630,l),
(143,630,l),
(29,61,ls),
(21,19,o),
(9,-15,o),
(-19,-33,c),
(-34,-44,o),
(-57,-55,o),
(-87,-55,c)
);
},
{
closed = 1;
nodes = (
(70,685,l),
(181,685,l),
(247,744,l),
(289,685,l),
(405,685,l),
(319,807,l),
(202,807,l)
);
}
);
width = 302;
},
{
layerId = "613EF1C7-735E-4737-B49D-EADCFD002D35";
shapes = (
{
closed = 1;
nodes = (
(-110,-175,l),
(-35,-175,o),
(39,-157,o),
(94,-107,cs),
(149,-55,o),
(173,6,o),
(195,115,cs),
(298,630,l),
(149,630,l),
(35,62,ls),
(27,20,o),
(15,-15,o),
(-13,-35,c),
(-30,-48,o),
(-55,-60,o),
(-87,-60,c)
);
},
{
closed = 1;
nodes = (
(72,690,l),
(176,690,l),
(248,754,l),
(294,690,l),
(402,690,l),
(314,814,l),
(207,814,l)
);
}
);
width = 295;
},
{
layerId = "06ABBA72-70F7-4001-AF7B-C55F8F698FE5";
shapes = (
{
closed = 1;
nodes = (
(-102,-155,l),
(-39,-154,o),
(34,-135,o),
(84,-79,cs),
(126,-33,o),
(141,22,o),
(160,115,cs),
(263,630,l),
(173,630,l),
(60,67,ls),
(52,25,o),
(39,-17,o),
(10,-43,cs),
(-15,-66,o),
(-47,-79,o),
(-87,-80,c)
);
},
{
closed = 1;
nodes = (
(82,710,l),
(156,710,l),
(252,794,l),
(313,710,l),
(392,710,l),
(296,844,l),
(228,844,l)
);
}
);
width = 267;
},
{
layerId = "DC8CD3C6-3F63-4C25-A479-02CA28197BED";
shapes = (
{
closed = 1;
nodes = (
(-98,-135,l),
(-43,-134,o),
(27,-117,o),
(73,-61,cs),
(105,-22,o),
(121,21,o),
(138,104,cs),
(243,630,l),
(192,630,l),
(80,69,ls),
(69,12,o),
(50,-36,o),
(10,-66,cs),
(-18,-86,o),
(-50,-97,o),
(-90,-98,c)
);
},
{
closed = 1;
nodes = (
(94,710,l),
(149,710,l),
(257,809,l),
(325,710,l),
(384,710,l),
(288,844,l),
(240,844,l)
);
}
);
width = 248;
}
);
leftKerningGroup = public.kern2._J;
rightKerningGroup = public.kern1._J;
unicode = 308;
},
{
glyphname = Jsmall;
layers = (
{
layerId = "5B161561-7DB5-4139-A0CA-38E113D4AFAB";
shapes = (
{
closed = 1;
nodes = (
(-111,-188,l),
(-31,-188,o),
(32,-177,o),
(83,-116,cs),
(126,-65,o),
(145,-5,o),
(160,73,cs),
(242,483,l),
(88,483,l),
(0,44,ls),
(-6,14,o),
(-13,-17,o),
(-24,-34,c),
(-42,-60,o),
(-69,-66,o),
(-88,-66,c)
);
}
);
width = 252;
},
{
layerId = "613EF1C7-735E-4737-B49D-EADCFD002D35";
shapes = (
{
closed = 1;
nodes = (
(-107,-183,l),
(-31,-183,o),
(30,-170,o),
(79,-111,cs),
(120,-61,o),
(138,-3,o),
(153,73,cs),
(234,480,l),
(94,480,l),
(7,44,ls),
(1,14,o),
(-7,-20,o),
(-20,-39,cs),
(-38,-65,o),
(-65,-71,o),
(-85,-71,c)
);
}
);
width = 248;
},
{
layerId = "06ABBA72-70F7-4001-AF7B-C55F8F698FE5";
shapes = (
{
closed = 1;
nodes = (
(-90,-163,l),
(-32,-163,o),
(23,-144,o),
(64,-91,cs),
(98,-47,o),
(110,5,o),
(124,73,cs),
(203,470,l),
(120,470,l),
(34,44,ls),
(28,15,o),
(16,-32,o),
(-4,-58,cs),
(-24,-83,o),
(-52,-91,o),
(-75,-91,c)
);
}
);
width = 231;
},
{
layerId = "DC8CD3C6-3F63-4C25-A479-02CA28197BED";
shapes = (
{
closed = 1;
nodes = (
(-85,-141,l),
(-53,-141,o),
(-3,-131,o),
(33,-89,cs),
(65,-51,o),
(78,-13,o),
(92,57,cs),
(175,470,l),
(129,470,l),
(43,38,ls),
(37,9,o),
(26,-33,o),
(6,-61,cs),
(-17,-93,o),
(-51,-103,o),
(-78,-103,c)
);
}
);
width = 199;
}
);
unicode = 7434;
},
{
glyphname = K;
layers = (
{
layerId = "5B161561-7DB5-4139-A0CA-38E113D4AFAB";
shapes = (
{
closed = 1;
nodes = (
(0,0,l),
(164,0,l),
(205,202,l),
(265,257,l),
(368,0,l),
(567,0,l),
(404,359,l),
(673,630,l),
(470,630,l),
(239,379,l),
(290,630,l),
(126,630,l)
);
}
);
width = 619;
},
{
layerId = "613EF1C7-735E-4737-B49D-EADCFD002D35";
shapes = (
{
closed = 1;
nodes = (
(3,0,l),
(152,0,l),
(194,208,l),
(255,263,l),
(371,0,l),
(553,0,l),
(382,357,l),
(659,630,l),
(474,630,l),
(226,372,l),
(278,630,l),
(129,630,l)
);
}
);
width = 607;
},
{
layerId = "06ABBA72-70F7-4001-AF7B-C55F8F698FE5";
shapes = (
{
closed = 1;
nodes = (
(16,0,l),
(106,0,l),
(152,231,l),
(215,288,l),
(383,0,l),
(497,0,l),
(293,351,l),
(603,630,l),
(492,630,l),
(175,345,l),
(232,630,l),
(142,630,l)
);
}
);
width = 558;
},
{
layerId = "DC8CD3C6-3F63-4C25-A479-02CA28197BED";
shapes = (
{
closed = 1;
nodes = (
(16,0,l),
(67,0,l),
(115,239,l),
(202,318,l),
(383,0,l),
(449,0,l),
(243,354,l),
(550,630,l),
(486,630,l),
(128,305,l),
(193,630,l),
(142,630,l)
);
}
);
width = 496;
}
);
rightKerningGroup = public.kern1._K;
unicode = 75;
},
{
glyphname = Kcommaaccent;
layers = (
{
layerId = "5B161561-7DB5-4139-A0CA-38E113D4AFAB";
shapes = (
{
closed = 1;
nodes = (
(0,0,l),
(164,0,l),
(205,202,l),
(265,257,l),
(368,0,l),
(567,0,l),
(404,359,l),
(673,630,l),
(470,630,l),
(239,379,l),
(290,630,l),
(126,630,l)
);
},
{
closed = 1;
nodes = (
(154,-346,l),
(212,-320,o),
(283,-251,o),
(300,-169,cs),
(316,-93,o),
(273,-64,o),
(238,-64,cs),
(192,-64,o),
(158,-98,o),
(151,-135,cs),
(144,-173,o),
(162,-200,o),
(201,-208,cs),
(217,-211,l),
(202,-250,o),
(164,-282,o),
(128,-300,c)
);
}
);
width = 619;
},
{
layerId = "613EF1C7-735E-4737-B49D-EADCFD002D35";
shapes = (
{
closed = 1;
nodes = (
(3,0,l),
(152,0,l),
(194,208,l),
(255,263,l),
(371,0,l),
(553,0,l),
(382,357,l),
(659,630,l),
(474,630,l),
(226,372,l),
(278,630,l),
(129,630,l)
);
},
{
closed = 1;
nodes = (
(150,-340,l),
(210,-312,o),
(279,-244,o),
(295,-166,cs),
(310,-92,o),
(269,-64,o),
(235,-64,cs),
(191,-64,o),
(159,-97,o),
(152,-133,cs),
(145,-170,o),
(164,-196,o),
(199,-203,cs),
(215,-206,l),
(201,-244,o),
(163,-277,o),
(126,-296,c)
);
}
);
width = 607;
},
{
layerId = "06ABBA72-70F7-4001-AF7B-C55F8F698FE5";
shapes = (
{
closed = 1;
nodes = (
(16,0,l),
(106,0,l),
(152,231,l),
(215,288,l),
(383,0,l),
(497,0,l),
(293,351,l),
(603,630,l),
(492,630,l),
(175,345,l),
(232,630,l),
(142,630,l)
);
},
{
closed = 1;
nodes = (
(135,-317,l),
(205,-282,o),
(263,-214,o),
(275,-153,cs),
(288,-89,o),
(254,-65,o),
(224,-65,cs),
(188,-65,o),
(161,-92,o),
(155,-124,cs),
(148,-159,o),
(173,-178,o),
(192,-182,c),
(209,-186,l),
(199,-220,o),
(158,-260,o),
(117,-282,c)
);
}
);
width = 558;
},
{
layerId = "DC8CD3C6-3F63-4C25-A479-02CA28197BED";
shapes = (
{
closed = 1;
nodes = (
(16,0,l),
(67,0,l),
(115,239,l),
(202,318,l),
(383,0,l),
(449,0,l),
(243,354,l),
(550,630,l),
(486,630,l),
(128,305,l),
(193,630,l),
(142,630,l)
);
},
{
closed = 1;
nodes = (
(102,-303,l),
(157,-277,o),
(213,-222,o),
(225,-162,cs),
(235,-110,o),
(213,-96,o),
(192,-96,cs),
(168,-96,o),
(148,-114,o),
(143,-138,cs),
(137,-166,o),
(152,-182,o),
(173,-186,c),
(177,-187,l),
(165,-220,o),
(131,-255,o),
(88,-275,c)
);
}
);
width = 510;
}
);
rightKerningGroup = public.kern1._K;
unicode = 310;
},
{
glyphname = Ksmall;
layers = (
{
layerId = "5B161561-7DB5-4139-A0CA-38E113D4AFAB";
shapes = (
{
closed = 1;
nodes = (
(-9,0,l),
(134,0,l),
(162,141,l),
(207,184,l),
(282,0,l),
(466,0,l),
(326,276,l),
(546,483,l),
(363,483,l),
(194,305,l),
(231,483,l),
(88,483,l)
);
}
);
width = 518;
},
{
layerId = "613EF1C7-735E-4737-B49D-EADCFD002D35";
shapes = (
{
closed = 1;
nodes = (
(-4,0,l),
(127,0,l),
(156,146,l),
(201,189,l),
(282,0,l),
(449,0,l),
(309,273,l),
(529,480,l),
(363,480,l),
(186,297,l),
(223,480,l),
(92,480,l)
);
}
);
width = 503;
},
{
layerId = "06ABBA72-70F7-4001-AF7B-C55F8F698FE5";
shapes = (
{
closed = 1;
nodes = (
(16,0,l),
(99,0,l),
(133,166,l),
(177,209,l),
(283,0,l),
(383,0,l),
(241,263,l),
(461,470,l),
(362,470,l),
(153,267,l),
(193,470,l),
(110,470,l)
);
}
);
width = 445;
},
{
layerId = "DC8CD3C6-3F63-4C25-A479-02CA28197BED";
shapes = (
{
closed = 1;
nodes = (
(5,0,l),
(50,0,l),
(85,174,l),
(145,230,l),
(262,0,l),
(325,0,l),
(183,265,l),
(403,470,l),
(342,470,l),
(98,236,l),
(144,470,l),
(99,470,l)
);
}
);
width = 386;
}
);
unicode = 7435;
},
{
glyphname = L;
layers = (
{
layerId = "5B161561-7DB5-4139-A0CA-38E113D4AFAB";
shapes = (
{
closed = 1;
nodes = (
(0,0,l),
(403,0,l),
(429,128,l),
(190,128,l),
(290,630,l),
(126,630,l)
);
}
);
width = 461;
},
{
layerId = "613EF1C7-735E-4737-B49D-EADCFD002D35";
shapes = (
{
closed = 1;
nodes = (
(3,0,l),
(396,0,l),
(420,118,l),
(176,118,l),
(278,630,l),
(129,630,l)
);
}
);
width = 457;
},
{
layerId = "06ABBA72-70F7-4001-AF7B-C55F8F698FE5";
shapes = (
{
closed = 1;
nodes = (
(16,0,l),
(370,0,l),
(385,78,l),
(122,78,l),
(232,630,l),
(142,630,l)
);
}
);
width = 440;
},
{
layerId = "DC8CD3C6-3F63-4C25-A479-02CA28197BED";
shapes = (
{
closed = 1;
nodes = (
(16,0,l),
(350,0,l),
(358,42,l),
(75,42,l),
(193,630,l),
(142,630,l)
);
}
);
width = 420;
}
);
leftKerningGroup = public.kern2._L;
rightKerningGroup = public.kern1._L;
unicode = 76;
},
{
glyphname = Lacute;
layers = (
{
layerId = "5B161561-7DB5-4139-A0CA-38E113D4AFAB";
shapes = (
{
closed = 1;
nodes = (
(0,0,l),
(403,0,l),
(429,128,l),
(190,128,l),
(290,630,l),
(126,630,l)
);
},
{
closed = 1;
nodes = (
(147,685,l),
(278,685,l),
(418,809,l),
(250,809,l)
);
}
);
width = 461;
},
{
layerId = "613EF1C7-735E-4737-B49D-EADCFD002D35";
shapes = (
{
closed = 1;
nodes = (
(3,0,l),
(396,0,l),
(420,118,l),
(176,118,l),
(278,630,l),
(129,630,l)
);
},
{
closed = 1;
nodes = (
(151,690,l),
(270,690,l),
(409,814,l),
(254,814,l)
);
}
);
width = 457;
},
{
layerId = "06ABBA72-70F7-4001-AF7B-C55F8F698FE5";
shapes = (
{
closed = 1;
nodes = (
(16,0,l),
(370,0,l),
(385,78,l),
(122,78,l),
(232,630,l),
(142,630,l)
);
},
{
closed = 1;
nodes = (
(167,710,l),
(238,710,l),
(372,834,l),
(271,834,l)
);
}
);
width = 440;
},
{
layerId = "DC8CD3C6-3F63-4C25-A479-02CA28197BED";
shapes = (
{
closed = 1;
nodes = (
(17,0,l),
(351,0,l),
(359,42,l),
(76,42,l),
(194,630,l),
(143,630,l)
);
},
{
closed = 1;
nodes = (
(158,710,l),
(199,710,l),
(332,834,l),
(271,834,l)
);
}
);
width = 421;
}
);
leftKerningGroup = public.kern2._L;
rightKerningGroup = public.kern1._L;
unicode = 313;
},
{
glyphname = Lcaron;
layers = (
{
layerId = "5B161561-7DB5-4139-A0CA-38E113D4AFAB";
shapes = (
{
closed = 1;
nodes = (
(0,0,l),
(403,0,l),
(429,128,l),
(190,128,l),
(290,630,l),
(126,630,l)
);
},
{
closed = 1;
nodes = (
(338,460,l),
(396,486,o),
(468,555,o),
(485,637,cs),
(501,714,o),
(458,742,o),
(423,742,cs),
(377,742,o),
(343,708,o),
(336,671,cs),
(329,634,o),
(345,606,o),
(384,598,cs),
(400,595,l),
(385,556,o),
(349,525,o),
(313,507,c)
);
}
);
width = 461;
},
{
layerId = "613EF1C7-735E-4737-B49D-EADCFD002D35";
shapes = (
{
closed = 1;
nodes = (
(3,0,l),
(396,0,l),
(420,118,l),
(176,118,l),
(278,630,l),
(129,630,l)
);
},
{
closed = 1;
nodes = (
(332,466,l),
(392,494,o),
(462,562,o),
(478,640,cs),
(493,714,o),
(452,742,o),
(418,742,cs),
(374,742,o),
(342,709,o),
(335,673,cs),
(328,636,o),
(346,610,o),
(381,603,cs),
(397,600,l),
(383,562,o),
(346,529,o),
(309,510,c)
);
}
);
width = 457;
},
{
layerId = "06ABBA72-70F7-4001-AF7B-C55F8F698FE5";
shapes = (
{
closed = 1;
nodes = (
(16,0,l),
(370,0,l),
(385,78,l),
(122,78,l),
(232,630,l),
(142,630,l)
);
},
{
closed = 1;
nodes = (
(310,489,l),
(380,524,o),
(439,592,o),
(451,653,cs),
(464,717,o),
(430,741,o),
(400,741,cs),
(364,741,o),
(336,714,o),
(330,682,cs),
(323,647,o),
(349,628,o),
(368,624,c),
(385,620,l),
(375,586,o),
(334,546,o),
(293,524,c)
);
}
);
width = 440;
},
{
layerId = "DC8CD3C6-3F63-4C25-A479-02CA28197BED";
shapes = (
{
closed = 1;
nodes = (
(16,0,l),
(350,0,l),
(358,42,l),
(75,42,l),
(193,630,l),
(142,630,l)
);
},
{
closed = 1;
nodes = (
(303,507,l),
(358,533,o),
(415,588,o),
(427,648,cs),
(437,700,o),
(414,714,o),
(393,714,cs),
(369,714,o),
(349,696,o),
(344,672,cs),
(338,644,o),
(352,628,o),
(374,624,c),
(378,623,l),
(366,590,o),
(332,555,o),
(289,535,c)
);
}
);
width = 420;
}
);
leftKerningGroup = public.kern2._L;
rightKerningGroup = public.kern1._L;
unicode = 317;
},
{
glyphname = Lcommaaccent;
layers = (
{
layerId = "5B161561-7DB5-4139-A0CA-38E113D4AFAB";
shapes = (
{
closed = 1;
nodes = (
(0,0,l),
(403,0,l),
(429,128,l),
(190,128,l),
(290,630,l),
(126,630,l)
);
},
{
closed = 1;
nodes = (
(92,-346,l),
(150,-320,o),
(222,-251,o),
(239,-169,cs),
(255,-93,o),
(211,-64,o),
(176,-64,cs),
(130,-64,o),
(97,-98,o),
(90,-135,cs),
(83,-173,o),
(100,-200,o),
(139,-208,cs),
(155,-211,l),
(140,-250,o),
(103,-282,o),
(67,-300,c)
);
}
);
width = 461;
},
{
layerId = "613EF1C7-735E-4737-B49D-EADCFD002D35";
shapes = (
{
closed = 1;
nodes = (
(3,0,l),
(396,0,l),
(420,118,l),
(176,118,l),
(278,630,l),
(129,630,l)
);
},
{
closed = 1;
nodes = (
(91,-340,l),
(151,-312,o),
(220,-244,o),
(236,-166,cs),
(251,-92,o),
(210,-64,o),
(176,-64,cs),
(132,-64,o),
(100,-97,o),
(93,-133,cs),
(86,-170,o),
(105,-196,o),
(140,-203,cs),
(156,-206,l),
(142,-244,o),
(104,-277,o),
(67,-296,c)
);
}
);
width = 457;
},
{
layerId = "06ABBA72-70F7-4001-AF7B-C55F8F698FE5";
shapes = (
{
closed = 1;
nodes = (
(16,0,l),
(370,0,l),
(385,78,l),
(122,78,l),
(232,630,l),
(142,630,l)
);
},
{
closed = 1;
nodes = (
(86,-317,l),
(156,-282,o),
(214,-214,o),
(226,-153,cs),
(239,-89,o),
(205,-65,o),
(175,-65,cs),
(139,-65,o),
(112,-92,o),
(106,-124,cs),
(99,-159,o),
(124,-178,o),
(143,-182,c),
(160,-186,l),
(150,-220,o),
(109,-260,o),
(68,-282,c)
);
}
);
width = 440;
},
{
layerId = "DC8CD3C6-3F63-4C25-A479-02CA28197BED";
shapes = (
{
closed = 1;
nodes = (
(16,0,l),
(350,0,l),
(358,42,l),
(75,42,l),
(193,630,l),
(142,630,l)
);
},
{
closed = 1;
nodes = (
(84,-305,l),
(139,-279,o),
(195,-224,o),
(207,-164,cs),
(217,-112,o),
(195,-98,o),
(174,-98,cs),
(150,-98,o),
(130,-116,o),
(125,-140,cs),
(119,-168,o),
(134,-184,o),
(155,-188,c),
(159,-189,l),
(147,-222,o),
(113,-257,o),
(70,-277,c)
);
}
);
width = 420;
}
);
leftKerningGroup = public.kern2._L;
rightKerningGroup = public.kern1._L;
unicode = 315;
},
{
glyphname = Ldot;
layers = (
{
layerId = "5B161561-7DB5-4139-A0CA-38E113D4AFAB";
shapes = (
{
closed = 1;
nodes = (
(0,0,l),
(403,0,l),
(429,128,l),
(190,128,l),
(290,630,l),
(126,630,l)
);
},
{
closed = 1;
nodes = (
(269,318,o),
(290,284,o),
(329,284,cs),
(364,284,o),
(401,318,o),
(408,356,cs),
(416,396,o),
(394,428,o),
(358,428,cs),
(319,428,o),
(284,395,o),
(276,356,c)
);
}
);
width = 461;
},
{
layerId = "613EF1C7-735E-4737-B49D-EADCFD002D35";
shapes = (
{
closed = 1;
nodes = (
(3,0,l),
(396,0,l),
(420,118,l),
(176,118,l),
(278,630,l),
(129,630,l)
);
},
{
closed = 1;
nodes = (
(264,314,o),
(285,281,o),
(323,281,cs),
(357,281,o),
(393,314,o),
(400,351,cs),
(408,390,o),
(386,421,o),
(351,421,cs),
(313,421,o),
(279,389,o),
(271,351,cs)
);
}
);
width = 457;
},
{
layerId = "06ABBA72-70F7-4001-AF7B-C55F8F698FE5";
shapes = (
{
closed = 1;
nodes = (
(16,0,l),
(370,0,l),
(385,78,l),
(122,78,l),
(232,630,l),
(142,630,l)
);
},
{
closed = 1;
nodes = (
(245,298,o),
(265,269,o),
(299,269,cs),
(329,269,o),
(360,298,o),
(367,331,cs),
(374,366,o),
(354,394,o),
(324,394,cs),
(290,394,o),
(259,366,o),
(252,331,cs)
);
}
);
width = 440;
},
{
layerId = "DC8CD3C6-3F63-4C25-A479-02CA28197BED";
shapes = (
{
closed = 1;
nodes = (
(16,0,l),
(350,0,l),
(358,42,l),
(75,42,l),
(193,630,l),
(142,630,l)
);
},
{
closed = 1;
nodes = (
(256,303,o),
(270,287,o),
(293,287,cs),
(315,287,o),
(335,303,o),
(341,331,cs),
(346,357,o),
(332,375,o),
(310,375,cs),
(287,375,o),
(267,357,o),
(262,331,cs)
);
}
);
width = 420;
}
);
leftKerningGroup = public.kern2._L;
rightKerningGroup = public.kern1._L;
unicode = 319;
},
{
glyphname = Lslash;
layers = (
{
layerId = "5B161561-7DB5-4139-A0CA-38E113D4AFAB";
shapes = (
{
closed = 1;
nodes = (
(-24,117,l),
(42,164,l),
(8,0,l),
(411,0,l),
(437,128,l),
(198,128,l),
(231,294,l),
(394,414,l),
(347,491,l),
(257,426,l),
(298,630,l),
(134,630,l),
(67,296,l),
(-72,195,l)
);
}
);
width = 470;
},
{
layerId = "613EF1C7-735E-4737-B49D-EADCFD002D35";
shapes = (
{
closed = 1;
nodes = (
(-22,131,l),
(48,181,l),
(11,0,l),
(404,0,l),
(428,118,l),
(184,118,l),
(220,297,l),
(389,421,l),
(346,491,l),
(243,416,l),
(286,630,l),
(137,630,l),
(71,300,l),
(-65,201,l)
);
}
);
width = 465;
},
{
layerId = "06ABBA72-70F7-4001-AF7B-C55F8F698FE5";
shapes = (
{
closed = 1;
nodes = (
(-14,186,l),
(73,249,l),
(23,0,l),
(377,0,l),
(393,78,l),
(129,78,l),
(176,310,l),
(368,451,l),
(344,491,l),
(189,378,l),
(239,630,l),
(149,630,l),
(87,317,l),
(-38,226,l)
);
}
);
width = 447;
},
{
layerId = "DC8CD3C6-3F63-4C25-A479-02CA28197BED";
shapes = (
{
closed = 1;
nodes = (
(-20,187,l),
(74,254,l),
(23,0,l),
(358,0,l),
(366,42,l),
(83,42,l),
(132,288,l),
(364,458,l),
(344,491,l),
(143,344,l),
(200,630,l),
(149,630,l),
(86,311,l),
(-39,220,l)
);
}
);
width = 428;
}
);
leftKerningGroup = public.kern2._L;
rightKerningGroup = public.kern1._L;
unicode = 321;
},
{
glyphname = Lsmall;
layers = (
{
layerId = "5B161561-7DB5-4139-A0CA-38E113D4AFAB";
shapes = (
{
closed = 1;
nodes = (
(-9,0,l),
(328,0,l),
(349,110,l),
(168,110,l),
(242,483,l),
(88,483,l)
);
}
);
width = 391;
},
{
layerId = "613EF1C7-735E-4737-B49D-EADCFD002D35";
shapes = (
{
closed = 1;
nodes = (
(-4,0,l),
(323,0,l),
(343,102,l),
(157,102,l),
(232,480,l),
(92,480,l)
);
}
);
width = 388;
},
{
layerId = "06ABBA72-70F7-4001-AF7B-C55F8F698FE5";
shapes = (
{
closed = 1;
nodes = (
(16,0,l),
(305,0,l),
(319,72,l),
(114,72,l),
(193,470,l),
(110,470,l)
);
}
);
width = 375;
},
{
layerId = "DC8CD3C6-3F63-4C25-A479-02CA28197BED";
shapes = (
{
closed = 1;
nodes = (
(5,0,l),
(265,0,l),
(273,38,l),
(58,38,l),
(144,470,l),
(99,470,l)
);
}
);
width = 325;
}
);
unicode = 671;
},
{
glyphname = M;
layers = (
{
layerId = "5B161561-7DB5-4139-A0CA-38E113D4AFAB";
shapes = (
{
closed = 1;
nodes = (
(1,0,l),
(150,0,l),
(195,183,ls),
(213,253,o),
(243,391,o),
(258,480,c),
(262,480,l),
(260,387,o),
(263,275,o),
(272,198,cs),
(294,0,l),
(413,0,l),
(512,199,ls),
(550,274,o),
(602,388,o),
(638,480,c),
(641,480,l),
(623,397,o),
(599,266,o),
(586,183,cs),
(556,0,l),
(707,0,l),
(792,630,l),
(589,630,l),
(504,454,ls),
(487,417,o),
(429,297,o),
(401,216,c),
(395,216,l),
(400,292,o),
(394,396,o),
(386,454,c),
(370,630,l),
(167,630,l)
);
}
);
width = 823;
},
{
layerId = "613EF1C7-735E-4737-B49D-EADCFD002D35";
shapes = (
{
closed = 1;
nodes = (
(1,0,l),
(138,0,l),
(192,213,ls),
(210,282,o),
(238,406,o),
(253,490,c),
(256,490,l),
(255,402,o),
(259,300,o),
(268,225,cs),
(294,0,l),
(406,0,l),
(520,226,ls),
(557,299,o),
(605,403,o),
(640,490,c),
(643,490,l),
(626,410,o),
(605,292,o),
(593,213,cs),
(561,0,l),
(700,0,l),
(782,630,l),
(596,630,l),
(487,409,ls),
(469,371,o),
(419,268,o),
(393,196,c),
(388,196,l),
(391,264,o),
(385,355,o),
(378,409,c),
(355,630,l),
(169,630,l)
);
}
);
width = 815;
},
{
layerId = "06ABBA72-70F7-4001-AF7B-C55F8F698FE5";
shapes = (
{
closed = 1;
nodes = (
(1,0,l),
(89,0,l),
(180,334,ls),
(198,399,o),
(216,465,o),
(232,530,c),
(234,530,l),
(238,462,o),
(244,403,o),
(252,335,cs),
(294,0,l),
(377,0,l),
(552,334,ls),
(586,399,o),
(618,465,o),
(649,530,c),
(651,530,l),
(640,464,o),
(630,399,o),
(622,334,cs),
(580,0,l),
(671,0,l),
(743,630,l),
(625,630,l),
(418,228,ls),
(396,185,o),
(379,153,o),
(361,116,c),
(359,116,l),
(356,153,o),
(351,189,o),
(346,228,cs),
(297,630,l),
(179,630,l)
);
}
);
width = 785;
},
{
layerId = "DC8CD3C6-3F63-4C25-A479-02CA28197BED";
shapes = (
{
closed = 1;
nodes = (
(1,0,l),
(50,0,l),
(158,361,ls),
(180,435,o),
(202,520,o),
(219,582,c),
(221,582,l),
(226,508,o),
(234,434,o),
(245,361,cs),
(297,0,l),
(343,0,l),
(539,361,ls),
(579,434,o),
(622,520,o),
(652,582,c),
(654,582,l),
(643,508,o),
(635,435,o),
(627,361,cs),
(590,0,l),
(641,0,l),
(703,630,l),
(635,630,l),
(387,166,ls),
(375,144,o),
(351,96,o),
(335,62,c),
(333,62,l),
(330,97,o),
(325,143,o),
(322,167,cs),
(257,630,l),
(191,630,l)
);
}
);
width = 756;
}
);
unicode = 77;
},
{
glyphname = Macron;
layers = (
{
layerId = "5B161561-7DB5-4139-A0CA-38E113D4AFAB";
shapes = (
{
closed = 1;
nodes = (
(107,685,l),
(366,685,l),
(383,772,l),
(125,772,l)
);
}
);
width = 313;
},
{
layerId = "613EF1C7-735E-4737-B49D-EADCFD002D35";
shapes = (
{
closed = 1;
nodes = (
(108,690,l),
(363,690,l),
(379,772,l),
(125,772,l)
);
}
);
width = 309;
},
{
layerId = "06ABBA72-70F7-4001-AF7B-C55F8F698FE5";
shapes = (
{
closed = 1;
nodes = (
(112,710,l),
(352,710,l),
(365,772,l),
(125,772,l)
);
}
);
width = 294;
},
{
layerId = "DC8CD3C6-3F63-4C25-A479-02CA28197BED";
shapes = (
{
closed = 1;
nodes = (
(116,730,l),
(356,730,l),
(365,772,l),
(125,772,l)
);
}
);
width = 294;
}
);
},
{
glyphname = Msmall;
layers = (
{
layerId = "5B161561-7DB5-4139-A0CA-38E113D4AFAB";
shapes = (
{
closed = 1;
nodes = (
(-16,0,l),
(119,0,l),
(154,140,ls),
(165,184,o),
(185,268,o),
(193,320,c),
(196,320,l),
(193,264,o),
(195,190,o),
(200,151,cs),
(217,0,l),
(323,0,l),
(397,153,l),
(409,176,o),
(455,265,o),
(474,320,c),
(476,320,l),
(465,273,o),
(451,191,o),
(443,140,cs),
(420,0,l),
(557,0,l),
(617,483,l),
(429,483,l),
(370,346,l),
(353,309,o),
(328,236,o),
(310,178,c),
(305,178,l),
(312,235,o),
(312,311,o),
(309,346,c),
(303,483,l),
(116,483,l)
);
}
);
width = 655;
},
{
layerId = "613EF1C7-735E-4737-B49D-EADCFD002D35";
shapes = (
{
closed = 1;
nodes = (
(-13,0,l),
(111,0,l),
(152,162,ls),
(163,205,o),
(182,282,o),
(190,333,c),
(193,333,l),
(190,279,o),
(193,210,o),
(198,171,cs),
(217,0,l),
(318,0,l),
(403,172,ls),
(415,196,o),
(457,279,o),
(476,333,c),
(478,333,l),
(467,285,o),
(455,210,o),
(448,162,cs),
(423,0,l),
(549,0,l),
(608,480,l),
(437,480,l),
(360,311,ls),
(343,275,o),
(320,211,o),
(303,159,c),
(299,159,l),
(304,210,o),
(303,277,o),
(300,311,cs),
(289,480,l),
(119,480,l)
);
}
);
width = 649;
},
{
layerId = "06ABBA72-70F7-4001-AF7B-C55F8F698FE5";
shapes = (
{
closed = 1;
nodes = (
(-2,0,l),
(78,0,l),
(145,250,ls),
(156,289,o),
(169,338,o),
(178,385,c),
(180,385,l),
(179,338,o),
(184,292,o),
(189,251,cs),
(218,0,l),
(297,0,l),
(426,250,ls),
(440,277,o),
(468,336,o),
(486,385,c),
(488,385,l),
(479,334,o),
(471,286,o),
(467,250,cs),
(436,0,l),
(518,0,l),
(573,470,l),
(471,470,l),
(319,171,ls),
(303,139,o),
(288,111,o),
(275,83,c),
(274,83,l),
(272,110,o),
(269,142,o),
(266,171,cs),
(232,470,l),
(130,470,l)
);
}
);
width = 626;
},
{
layerId = "DC8CD3C6-3F63-4C25-A479-02CA28197BED";
shapes = (
{
closed = 1;
nodes = (
(-4,0,l),
(40,0,l),
(120,271,ls),
(133,316,o),
(145,360,o),
(154,404,c),
(155,404,l),
(157,358,o),
(164,316,o),
(169,271,cs),
(205,0,l),
(250,0,l),
(394,271,ls),
(418,316,o),
(442,367,o),
(460,404,c),
(461,404,l),
(455,368,o),
(447,317,o),
(443,271,cs),
(415,0,l),
(461,0,l),
(509,470,l),
(458,470,l),
(277,124,l),
(268,108,o),
(251,72,o),
(239,46,c),
(237,46,l),
(236,73,o),
(232,107,o),
(230,125,cs),
(185,470,l),
(136,470,l)
);
}
);
width = 571;
}
);
unicode = 7437;
},
{
glyphname = N;
layers = (
{
layerId = "5B161561-7DB5-4139-A0CA-38E113D4AFAB";
shapes = (
{
closed = 1;
nodes = (
(0,0,l),
(149,0,l),
(183,169,ls),
(200,255,o),
(217,335,o),
(227,425,c),
(229,425,l),
(240,333,o),
(268,251,o),
(306,170,c),
(381,0,l),
(533,0,l),
(659,630,l),
(510,630,l),
(479,475,ls),
(461,387,o),
(443,296,o),
(433,209,c),
(431,209,l),
(419,281,o),
(381,380,o),
(343,466,c),
(278,630,l),
(126,630,l)
);
}
);
width = 647;
},
{
layerId = "613EF1C7-735E-4737-B49D-EADCFD002D35";
shapes = (
{
closed = 1;
nodes = (
(3,0,l),
(140,0,l),
(180,200,ls),
(196,280,o),
(211,356,o),
(221,439,c),
(223,439,l),
(234,358,o),
(260,285,o),
(293,215,cs),
(393,0,l),
(530,0,l),
(656,630,l),
(519,630,l),
(480,436,ls),
(464,356,o),
(448,274,o),
(439,195,c),
(437,195,l),
(425,258,o),
(392,344,o),
(359,419,cs),
(266,630,l),
(129,630,l)
);
}
);
width = 647;
},
{
layerId = "06ABBA72-70F7-4001-AF7B-C55F8F698FE5";
shapes = (
{
closed = 1;
nodes = (
(16,0,l),
(104,0,l),
(169,326,ls),
(180,382,o),
(191,438,o),
(199,494,c),
(201,494,l),
(212,459,o),
(227,422,o),
(241,394,cs),
(440,0,l),
(519,0,l),
(644,630,l),
(556,630,l),
(486,281,ls),
(477,234,o),
(468,188,o),
(462,141,c),
(460,141,l),
(450,170,o),
(437,202,o),
(422,231,cs),
(220,630,l),
(142,630,l)
);
}
);
width = 647;
},
{
layerId = "DC8CD3C6-3F63-4C25-A479-02CA28197BED";
shapes = (
{
closed = 1;
nodes = (
(16,0,l),
(65,0,l),
(140,376,ls),
(152,438,o),
(164,500,o),
(174,562,c),
(176,562,l),
(193,507,o),
(214,449,o),
(239,396,cs),
(421,0,l),
(470,0,l),
(595,630,l),
(546,630,l),
(468,236,ls),
(458,185,o),
(447,133,o),
(439,82,c),
(437,82,l),
(419,127,o),
(397,171,o),
(377,216,cs),
(191,630,l),
(142,630,l)
);
}
);
width = 599;
}
);
leftKerningGroup = public.kern2._N;
rightKerningGroup = public.kern1._N;
unicode = 78;
},
{
glyphname = Nacute;
layers = (
{
layerId = "5B161561-7DB5-4139-A0CA-38E113D4AFAB";
shapes = (
{
closed = 1;
nodes = (
(316,685,l),
(449,685,l),
(588,809,l),
(419,809,l)
);
},
{
closed = 1;
nodes = (
(0,0,l),
(149,0,l),
(183,169,ls),
(200,255,o),
(217,335,o),
(227,425,c),
(229,425,l),
(240,333,o),
(268,251,o),
(306,170,c),
(381,0,l),
(533,0,l),
(659,630,l),
(510,630,l),
(479,475,ls),
(461,387,o),
(443,296,o),
(433,209,c),
(431,209,l),
(419,281,o),
(381,380,o),
(343,466,c),
(278,630,l),
(126,630,l)
);
}
);
width = 647;
},
{
layerId = "613EF1C7-735E-4737-B49D-EADCFD002D35";
shapes = (
{
closed = 1;
nodes = (
(323,690,l),
(443,690,l),
(581,814,l),
(426,814,l)
);
},
{
closed = 1;
nodes = (
(3,0,l),
(140,0,l),
(180,200,ls),
(196,280,o),
(211,356,o),
(221,439,c),
(223,439,l),
(234,358,o),
(260,285,o),
(293,215,cs),
(393,0,l),
(530,0,l),
(656,630,l),
(519,630,l),
(480,436,ls),
(464,356,o),
(448,274,o),
(439,195,c),
(437,195,l),
(425,258,o),
(392,344,o),
(359,419,cs),
(266,630,l),
(129,630,l)
);
}
);
width = 647;
},
{
layerId = "06ABBA72-70F7-4001-AF7B-C55F8F698FE5";
shapes = (
{
closed = 1;
nodes = (
(351,710,l),
(421,710,l),
(555,834,l),
(454,834,l)
);
},
{
closed = 1;
nodes = (
(16,0,l),
(104,0,l),
(169,326,ls),
(180,382,o),
(191,438,o),
(199,494,c),
(201,494,l),
(212,459,o),
(227,422,o),
(241,394,cs),
(440,0,l),
(519,0,l),
(644,630,l),
(556,630,l),
(486,281,ls),
(477,234,o),
(468,188,o),
(462,141,c),
(460,141,l),
(450,170,o),
(437,202,o),
(422,231,cs),
(220,630,l),
(142,630,l)
);
}
);
width = 647;
},
{
layerId = "DC8CD3C6-3F63-4C25-A479-02CA28197BED";
shapes = (
{
closed = 1;
nodes = (
(334,710,l),
(375,710,l),
(509,834,l),
(447,834,l)
);
},
{
closed = 1;
nodes = (
(16,0,l),
(65,0,l),
(140,376,ls),
(152,438,o),
(164,500,o),
(174,562,c),
(176,562,l),
(193,507,o),
(214,449,o),
(239,396,cs),
(421,0,l),
(470,0,l),
(595,630,l),
(546,630,l),
(468,236,ls),
(458,185,o),
(447,133,o),
(439,82,c),
(437,82,l),
(419,127,o),
(397,171,o),
(377,216,cs),
(191,630,l),
(142,630,l)
);
}
);
width = 599;
}
);
leftKerningGroup = public.kern2._N;
rightKerningGroup = public.kern1._N;
unicode = 323;
},
{
glyphname = Ncaron;
layers = (
{
layerId = "5B161561-7DB5-4139-A0CA-38E113D4AFAB";
shapes = (
{
closed = 1;
nodes = (
(362,685,l),
(479,685,l),
(611,806,l),
(500,806,l),
(434,748,l),
(391,806,l),
(276,806,l)
);
},
{
closed = 1;
nodes = (
(0,0,l),
(149,0,l),
(183,169,ls),
(200,255,o),
(217,335,o),
(227,425,c),
(229,425,l),
(240,333,o),
(268,251,o),
(306,170,c),
(381,0,l),
(533,0,l),
(659,630,l),
(510,630,l),
(479,475,ls),
(461,387,o),
(443,296,o),
(433,209,c),
(431,209,l),
(419,281,o),
(381,380,o),
(343,466,c),
(278,630,l),
(126,630,l)
);
}
);
width = 647;
},
{
layerId = "613EF1C7-735E-4737-B49D-EADCFD002D35";
shapes = (
{
closed = 1;
nodes = (
(367,690,l),
(474,690,l),
(609,814,l),
(505,814,l),
(433,750,l),
(387,814,l),
(279,814,l)
);
},
{
closed = 1;
nodes = (
(3,0,l),
(140,0,l),
(180,200,ls),
(196,280,o),
(211,356,o),
(221,439,c),
(223,439,l),
(234,358,o),
(260,285,o),
(293,215,cs),
(393,0,l),
(530,0,l),
(656,630,l),
(519,630,l),
(480,436,ls),
(464,356,o),
(448,274,o),
(439,195,c),
(437,195,l),
(425,258,o),
(392,344,o),
(359,419,cs),
(266,630,l),
(129,630,l)
);
}
);
width = 647;
},
{
layerId = "06ABBA72-70F7-4001-AF7B-C55F8F698FE5";
shapes = (
{
closed = 1;
nodes = (
(386,711,l),
(454,711,l),
(603,845,l),
(526,845,l),
(431,758,l),
(372,845,l),
(293,845,l)
);
},
{
closed = 1;
nodes = (
(16,0,l),
(104,0,l),
(169,326,ls),
(180,382,o),
(191,438,o),
(199,494,c),
(201,494,l),
(212,459,o),
(227,422,o),
(241,394,cs),
(440,0,l),
(519,0,l),
(644,630,l),
(556,630,l),
(486,281,ls),
(477,234,o),
(468,188,o),
(462,141,c),
(460,141,l),
(450,170,o),
(437,202,o),
(422,231,cs),
(220,630,l),
(142,630,l)
);
}
);
width = 647;
},
{
layerId = "DC8CD3C6-3F63-4C25-A479-02CA28197BED";
shapes = (
{
closed = 1;
nodes = (
(381,711,l),
(429,711,l),
(579,845,l),
(520,845,l),
(412,746,l),
(343,845,l),
(289,845,l)
);
},
{
closed = 1;
nodes = (
(16,0,l),
(65,0,l),
(140,376,ls),
(152,438,o),
(164,500,o),
(174,562,c),
(176,562,l),
(193,507,o),
(214,449,o),
(239,396,cs),
(421,0,l),
(470,0,l),
(595,630,l),
(546,630,l),
(468,236,ls),
(458,185,o),
(447,133,o),
(439,82,c),
(437,82,l),
(419,127,o),
(397,171,o),
(377,216,cs),
(191,630,l),
(142,630,l)
);
}
);
width = 599;
}
);
leftKerningGroup = public.kern2._N;
rightKerningGroup = public.kern1._N;
unicode = 327;
},
{
glyphname = Ncommaaccent;
layers = (
{
layerId = "5B161561-7DB5-4139-A0CA-38E113D4AFAB";
shapes = (
{
closed = 1;
nodes = (
(160,-346,l),
(218,-320,o),
(289,-251,o),
(306,-169,cs),
(322,-93,o),
(279,-64,o),
(244,-64,cs),
(198,-64,o),
(165,-98,o),
(158,-135,cs),
(151,-173,o),
(167,-200,o),
(206,-208,c),
(223,-211,l),
(208,-250,o),
(171,-282,o),
(135,-300,c)
);
},
{
closed = 1;
nodes = (
(0,0,l),
(149,0,l),
(183,169,ls),
(200,255,o),
(217,335,o),
(227,425,c),
(229,425,l),
(240,333,o),
(268,251,o),
(306,170,c),
(381,0,l),
(533,0,l),
(659,630,l),
(510,630,l),
(479,475,ls),
(461,387,o),
(443,296,o),
(433,209,c),
(431,209,l),
(419,281,o),
(381,380,o),
(343,466,c),
(278,630,l),
(126,630,l)
);
}
);
width = 647;
},
{
layerId = "613EF1C7-735E-4737-B49D-EADCFD002D35";
shapes = (
{
closed = 1;
nodes = (
(160,-340,l),
(220,-312,o),
(289,-244,o),
(305,-166,cs),
(320,-92,o),
(279,-64,o),
(245,-64,cs),
(201,-64,o),
(169,-97,o),
(162,-133,cs),
(155,-170,o),
(173,-196,o),
(208,-203,cs),
(225,-206,l),
(211,-244,o),
(173,-277,o),
(136,-296,c)
);
},
{
closed = 1;
nodes = (
(3,0,l),
(140,0,l),
(180,200,ls),
(196,280,o),
(211,356,o),
(221,439,c),
(223,439,l),
(234,358,o),
(260,285,o),
(293,215,cs),
(393,0,l),
(530,0,l),
(656,630,l),
(519,630,l),
(480,436,ls),
(464,356,o),
(448,274,o),
(439,195,c),
(437,195,l),
(425,258,o),
(392,344,o),
(359,419,cs),
(266,630,l),
(129,630,l)
);
}
);
width = 647;
},
{
layerId = "06ABBA72-70F7-4001-AF7B-C55F8F698FE5";
shapes = (
{
closed = 1;
nodes = (
(159,-317,l),
(229,-282,o),
(288,-214,o),
(300,-153,cs),
(313,-89,o),
(279,-65,o),
(249,-65,cs),
(213,-65,o),
(185,-92,o),
(179,-124,cs),
(172,-159,o),
(198,-178,o),
(217,-182,c),
(233,-186,l),
(223,-220,o),
(183,-260,o),
(142,-282,c)
);
},
{
closed = 1;
nodes = (
(16,0,l),
(104,0,l),
(169,326,ls),
(180,382,o),
(191,438,o),
(199,494,c),
(201,494,l),
(212,459,o),
(227,422,o),
(241,394,cs),
(440,0,l),
(519,0,l),
(644,630,l),
(556,630,l),
(486,281,ls),
(477,234,o),
(468,188,o),
(462,141,c),
(460,141,l),
(450,170,o),
(437,202,o),
(422,231,cs),
(220,630,l),
(142,630,l)
);
}
);
width = 647;
},
{
layerId = "DC8CD3C6-3F63-4C25-A479-02CA28197BED";
shapes = (
{
closed = 1;
nodes = (
(143,-305,l),
(198,-279,o),
(254,-224,o),
(266,-164,cs),
(276,-112,o),
(253,-98,o),
(232,-98,cs),
(208,-98,o),
(189,-116,o),
(184,-140,cs),
(178,-168,o),
(192,-184,o),
(213,-188,cs),
(218,-189,l),
(206,-222,o),
(172,-257,o),
(129,-277,c)
);
},
{
closed = 1;
nodes = (
(16,0,l),
(65,0,l),
(140,376,ls),
(152,438,o),
(164,500,o),
(174,562,c),
(176,562,l),
(193,507,o),
(214,449,o),
(239,396,cs),
(421,0,l),
(470,0,l),
(595,630,l),
(546,630,l),
(468,236,ls),
(458,185,o),
(447,133,o),
(439,82,c),
(437,82,l),
(419,127,o),
(397,171,o),
(377,216,cs),
(191,630,l),
(142,630,l)
);
}
);
width = 599;
}
);
leftKerningGroup = public.kern2._N;
rightKerningGroup = public.kern1._N;
unicode = 325;
},
{
glyphname = Nsmall;
layers = (
{
layerId = "5B161561-7DB5-4139-A0CA-38E113D4AFAB";
shapes = (
{
closed = 1;
nodes = (
(-9,0,l),
(132,0,l),
(159,139,ls),
(170,196,o),
(181,248,o),
(188,307,c),
(190,307,l),
(195,247,o),
(213,192,o),
(232,139,c),
(290,0,l),
(452,0,l),
(548,483,l),
(406,483,l),
(380,351,ls),
(368,293,o),
(356,235,o),
(351,179,c),
(351,179,l),
(345,227,o),
(320,286,o),
(301,343,c),
(248,483,l),
(88,483,l)
);
}
);
width = 557;
},
{
layerId = "613EF1C7-735E-4737-B49D-EADCFD002D35";
shapes = (
{
closed = 1;
nodes = (
(-4,0,l),
(125,0,l),
(155,152,ls),
(166,207,o),
(176,258,o),
(183,315,c),
(185,315,l),
(190,261,o),
(207,211,o),
(225,163,c),
(297,0,l),
(441,0,l),
(537,480,l),
(407,480,l),
(377,331,ls),
(366,277,o),
(355,222,o),
(350,168,c),
(349,168,l),
(343,210,o),
(321,267,o),
(303,318,c),
(235,480,l),
(92,480,l)
);
}
);
width = 551;
},
{
layerId = "06ABBA72-70F7-4001-AF7B-C55F8F698FE5";
shapes = (
{
closed = 1;
nodes = (
(16,0,l),
(97,0,l),
(138,204,ls),
(148,252,o),
(157,300,o),
(164,348,c),
(166,348,l),
(172,318,o),
(185,289,o),
(198,259,c),
(324,0,l),
(398,0,l),
(492,470,l),
(410,470,l),
(366,251,ls),
(359,214,o),
(351,171,o),
(345,126,c),
(343,126,l),
(338,145,o),
(323,191,o),
(310,217,cs),
(185,470,l),
(110,470,l)
);
}
);
width = 526;
},
{
layerId = "DC8CD3C6-3F63-4C25-A479-02CA28197BED";
shapes = (
{
closed = 1;
nodes = (
(5,0,l),
(50,0,l),
(107,282,ls),
(116,325,o),
(122,366,o),
(129,409,c),
(131,409,l),
(140,375,o),
(156,335,o),
(174,297,cs),
(309,0,l),
(354,0,l),
(447,470,l),
(402,470,l),
(343,177,ls),
(336,142,o),
(330,107,o),
(324,71,c),
(323,71,l),
(311,100,o),
(295,135,o),
(283,162,cs),
(143,470,l),
(99,470,l)
);
}
);
width = 472;
}
);
unicode = 628;
},
{
glyphname = Ntilde;
layers = (
{
layerId = "5B161561-7DB5-4139-A0CA-38E113D4AFAB";
shapes = (
{
closed = 1;
nodes = (
(0,0,l),
(162,0,l),
(215,269,l),
(249,499,l),
(254,499,l),
(275,292,l),
(325,0,l),
(560,0,l),
(686,630,l),
(525,630,l),
(468,349,l),
(438,135,l),
(434,135,l),
(413,327,l),
(362,630,l),
(126,630,l)
);
},
{
closed = 1;
nodes = (
(358,685,l),
(363,704,o),
(371,720,o),
(390,720,cs),
(415,720,o),
(448,691,o),
(495,691,cs),
(546,691,o),
(591,735,o),
(607,812,c),
(533,812,l),
(528,790,o),
(518,779,o),
(500,779,cs),
(467,779,o),
(444,809,o),
(400,809,cs),
(344,809,o),
(297,754,o),
(284,685,c)
);
}
);
width = 673;
},
{
layerId = "613EF1C7-735E-4737-B49D-EADCFD002D35";
shapes = (
{
closed = 1;
nodes = (
(3,0,l),
(150,0,l),
(208,290,l),
(242,509,l),
(246,509,l),
(270,313,l),
(334,0,l),
(550,0,l),
(676,630,l),
(529,630,l),
(468,326,l),
(438,125,l),
(434,125,l),
(411,305,l),
(345,630,l),
(129,630,l)
);
},
{
closed = 1;
nodes = (
(351,690,l),
(356,710,o),
(365,727,o),
(386,727,cs),
(412,727,o),
(445,695,o),
(494,695,cs),
(546,695,o),
(589,741,o),
(604,814,c),
(535,814,l),
(530,792,o),
(518,778,o),
(499,778,cs),
(464,778,o),
(442,811,o),
(396,811,cs),
(339,811,o),
(295,757,o),
(282,690,c)
);
}
);
width = 666;
},
{
layerId = "06ABBA72-70F7-4001-AF7B-C55F8F698FE5";
shapes = (
{
closed = 1;
nodes = (
(16,0,l),
(104,0,l),
(179,376,l),
(213,549,l),
(216,549,l),
(251,396,l),
(372,0,l),
(509,0,l),
(635,630,l),
(546,630,l),
(468,236,l),
(439,86,l),
(436,86,l),
(403,216,l),
(279,630,l),
(142,630,l)
);
},
{
closed = 1;
nodes = (
(322,710,l),
(329,736,o),
(344,756,o),
(371,756,cs),
(402,756,o),
(434,713,o),
(490,713,cs),
(545,713,o),
(582,768,o),
(593,823,c),
(544,823,l),
(538,801,o),
(521,776,o),
(496,776,cs),
(455,776,o),
(436,820,o),
(381,820,cs),
(321,820,o),
(285,771,o),
(273,710,c)
);
}
);
width = 637;
},
{
layerId = "DC8CD3C6-3F63-4C25-A479-02CA28197BED";
shapes = (
{
closed = 1;
nodes = (
(16,0,l),
(65,0,l),
(140,376,l),
(182,592,l),
(184,592,l),
(244,396,l),
(391,0,l),
(470,0,l),
(595,630,l),
(546,630,l),
(468,236,l),
(432,52,l),
(430,52,l),
(373,216,l),
(220,630,l),
(142,630,l)
);
},
{
closed = 1;
nodes = (
(281,715,l),
(289,747,o),
(308,775,o),
(342,775,cs),
(377,775,o),
(397,721,o),
(458,721,cs),
(513,721,o),
(549,768,o),
(559,818,c),
(520,818,l),
(510,785,o),
(495,761,o),
(461,761,cs),
(416,761,o),
(405,815,o),
(347,815,cs),
(287,815,o),
(253,770,o),
(242,715,c)
);
}
);
width = 599;
}
);
leftKerningGroup = public.kern2._N;
rightKerningGroup = public.kern1._N;
unicode = 209;
},
{
glyphname = O;
layers = (
{
layerId = "5B161561-7DB5-4139-A0CA-38E113D4AFAB";
shapes = (
{
closed = 1;
nodes = (
(-3,112,o),
(106,-12,o),
(287,-12,cs),
(468,-12,o),
(631,117,o),
(670,314,cs),
(711,517,o),
(602,643,o),
(421,643,cs),
(240,643,o),
(78,512,o),
(38,314,cs)
);
},
{
closed = 1;
nodes = (
(237,449,o),
(315,519,o),
(393,519,cs),
(472,519,o),
(526,454,o),
(498,314,cs),
(472,179,o),
(394,113,o),
(316,113,cs),
(237,113,o),
(184,179,o),
(210,314,cs)
);
}
);
width = 696;
},
{
layerId = "613EF1C7-735E-4737-B49D-EADCFD002D35";
shapes = (
{
closed = 1;
nodes = (
(-1,109,o),
(106,-11,o),
(284,-11,cs),
(462,-11,o),
(622,114,o),
(662,314,cs),
(703,519,o),
(596,642,o),
(418,642,cs),
(240,642,o),
(80,514,o),
(40,314,cs)
);
},
{
closed = 1;
nodes = (
(225,456,o),
(308,528,o),
(392,528,cs),
(477,528,o),
(534,461,o),
(505,314,cs),
(477,172,o),
(395,103,o),
(311,103,cs),
(226,103,o),
(169,172,o),
(197,314,cs)
);
}
);
width = 690;
},
{
layerId = "06ABBA72-70F7-4001-AF7B-C55F8F698FE5";
shapes = (
{
closed = 1;
nodes = (
(5,100,o),
(105,-9,o),
(272,-9,cs),
(439,-9,o),
(588,105,o),
(630,315,cs),
(673,530,o),
(573,639,o),
(406,639,cs),
(239,639,o),
(90,525,o),
(48,315,cs)
);
},
{
closed = 1;
nodes = (
(180,485,o),
(279,565,o),
(387,565,cs),
(495,565,o),
(567,490,o),
(532,315,cs),
(498,145,o),
(399,65,o),
(291,65,cs),
(183,65,o),
(112,145,o),
(146,315,cs)
);
}
);
width = 665;
},
{
layerId = "DC8CD3C6-3F63-4C25-A479-02CA28197BED";
shapes = (
{
closed = 1;
nodes = (
(5,100,o),
(104,-8,o),
(253,-8,cs),
(403,-8,o),
(549,105,o),
(591,315,cs),
(634,530,o),
(535,638,o),
(386,638,cs),
(236,638,o),
(90,525,o),
(48,315,cs)
);
},
{
closed = 1;
nodes = (
(139,506,o),
(257,596,o),
(373,596,cs),
(490,596,o),
(577,511,o),
(538,315,cs),
(500,124,o),
(381,34,o),
(265,34,cs),
(148,34,o),
(63,124,o),
(101,315,cs)
);
}
);
width = 626;
}
);
leftKerningGroup = public.kern2._O;
rightKerningGroup = public.kern1._O;
unicode = 79;
},
{
glyphname = OE;
layers = (
{
layerId = "5B161561-7DB5-4139-A0CA-38E113D4AFAB";
shapes = (
{
closed = 1;
nodes = (
(-2,113,o),
(93,-12,o),
(288,-12,cs),
(327,-12,o),
(363,-9,o),
(398,0,c),
(795,0,l),
(820,126,l),
(557,126,l),
(586,265,l),
(820,265,l),
(845,390,l),
(611,390,l),
(632,504,l),
(893,504,l),
(918,630,l),
(528,630,l),
(495,639,o),
(461,643,o),
(423,643,cs),
(228,643,o),
(78,511,o),
(38,313,cs)
);
},
{
closed = 1;
nodes = (
(237,448,o),
(318,519,o),
(393,519,cs),
(421,519,o),
(448,513,o),
(468,499,c),
(395,129,l),
(370,116,o),
(344,113,o),
(317,113,cs),
(240,113,o),
(184,178,o),
(210,313,cs)
);
}
);
width = 881;
},
{
layerId = "613EF1C7-735E-4737-B49D-EADCFD002D35";
shapes = (
{
closed = 1;
nodes = (
(-1,109,o),
(96,-11,o),
(284,-11,cs),
(320,-11,o),
(355,-8,o),
(389,0,c),
(780,0,l),
(803,116,l),
(538,116,l),
(569,270,l),
(806,270,l),
(829,385,l),
(592,385,l),
(617,514,l),
(880,514,l),
(903,630,l),
(519,630,l),
(488,638,o),
(454,642,o),
(418,642,cs),
(230,642,o),
(80,514,o),
(40,314,cs)
);
},
{
closed = 1;
nodes = (
(225,456,o),
(308,528,o),
(392,528,cs),
(420,528,o),
(446,522,o),
(467,509,c),
(390,120,l),
(365,107,o),
(338,103,o),
(311,103,cs),
(226,103,o),
(169,172,o),
(197,314,cs)
);
}
);
width = 868;
},
{
layerId = "06ABBA72-70F7-4001-AF7B-C55F8F698FE5";
shapes = (
{
closed = 1;
nodes = (
(3,92,o),
(107,-9,o),
(267,-9,cs),
(291,-9,o),
(325,-6,o),
(353,0,c),
(721,0,l),
(736,76,l),
(461,76,l),
(503,290,l),
(750,290,l),
(765,365,l),
(518,365,l),
(556,554,l),
(829,554,l),
(844,630,l),
(483,630,l),
(460,636,o),
(424,639,o),
(397,639,cs),
(238,639,o),
(90,527,o),
(48,317,cs)
);
},
{
closed = 1;
nodes = (
(181,489,o),
(269,565,o),
(387,565,cs),
(415,565,o),
(442,560,o),
(465,550,c),
(372,84,l),
(346,72,o),
(313,65,o),
(286,65,cs),
(168,65,o),
(113,149,o),
(147,319,cs)
);
}
);
width = 817;
},
{
layerId = "DC8CD3C6-3F63-4C25-A479-02CA28197BED";
shapes = (
{
closed = 1;
nodes = (
(5,100,o),
(108,-8,o),
(263,-8,cs),
(292,-8,o),
(320,-6,o),
(346,0,c),
(701,0,l),
(710,42,l),
(405,42,l),
(457,303,l),
(733,303,l),
(742,345,l),
(465,345,l),
(514,588,l),
(816,588,l),
(824,630,l),
(471,630,l),
(448,636,o),
(422,638,o),
(396,638,cs),
(241,638,o),
(90,525,o),
(48,315,cs)
);
},
{
closed = 1;
nodes = (
(139,506,o),
(262,596,o),
(383,596,cs),
(411,596,o),
(439,593,o),
(462,583,c),
(355,46,l),
(329,37,o),
(302,34,o),
(275,34,cs),
(153,34,o),
(63,124,o),
(101,315,cs)
);
}
);
width = 798;
}
);
unicode = 338;
},
{
glyphname = Oacute;
layers = (
{
layerId = "5B161561-7DB5-4139-A0CA-38E113D4AFAB";
shapes = (
{
closed = 1;
nodes = (
(-3,112,o),
(106,-12,o),
(287,-12,cs),
(468,-12,o),
(631,117,o),
(670,314,cs),
(711,517,o),
(602,643,o),
(421,643,cs),
(240,643,o),
(78,512,o),
(38,314,cs)
);
},
{
closed = 1;
nodes = (
(237,449,o),
(315,519,o),
(393,519,cs),
(472,519,o),
(526,454,o),
(498,314,cs),
(472,179,o),
(394,113,o),
(316,113,cs),
(237,113,o),
(184,179,o),
(210,314,cs)
);
},
{
closed = 1;
nodes = (
(302,685,l),
(433,685,l),
(573,809,l),
(405,809,l)
);
}
);
width = 696;
},
{
layerId = "613EF1C7-735E-4737-B49D-EADCFD002D35";
shapes = (
{
closed = 1;
nodes = (
(-1,109,o),
(106,-11,o),
(284,-11,cs),
(462,-11,o),
(622,114,o),
(662,314,cs),
(703,519,o),
(596,642,o),
(418,642,cs),
(240,642,o),
(80,514,o),
(40,314,cs)
);
},
{
closed = 1;
nodes = (
(225,456,o),
(308,528,o),
(392,528,cs),
(477,528,o),
(534,461,o),
(505,314,cs),
(477,172,o),
(395,103,o),
(311,103,cs),
(226,103,o),
(169,172,o),
(197,314,cs)
);
},
{
closed = 1;
nodes = (
(309,690,l),
(428,690,l),
(567,814,l),
(412,814,l)
);
}
);
width = 690;
},
{
layerId = "06ABBA72-70F7-4001-AF7B-C55F8F698FE5";
shapes = (
{
closed = 1;
nodes = (
(5,100,o),
(105,-9,o),
(272,-9,cs),
(439,-9,o),
(588,105,o),
(630,315,cs),
(673,530,o),
(573,639,o),
(406,639,cs),
(239,639,o),
(90,525,o),
(48,315,cs)
);
},
{
closed = 1;
nodes = (
(180,485,o),
(279,565,o),
(387,565,cs),
(495,565,o),
(567,490,o),
(532,315,cs),
(498,145,o),
(399,65,o),
(291,65,cs),
(183,65,o),
(112,145,o),
(146,315,cs)
);
},
{
closed = 1;
nodes = (
(338,710,l),
(409,710,l),
(543,834,l),
(442,834,l)
);
}
);
width = 665;
},
{
layerId = "DC8CD3C6-3F63-4C25-A479-02CA28197BED";
shapes = (
{
closed = 1;
nodes = (
(5,100,o),
(104,-8,o),
(253,-8,cs),
(403,-8,o),
(549,105,o),
(591,315,cs),
(634,530,o),
(535,638,o),
(386,638,cs),
(236,638,o),
(90,525,o),
(48,315,cs)
);
},
{
closed = 1;
nodes = (
(139,506,o),
(257,596,o),
(373,596,cs),
(490,596,o),
(577,511,o),
(538,315,cs),
(500,124,o),
(381,34,o),
(265,34,cs),
(148,34,o),
(63,124,o),
(101,315,cs)
);
},
{
closed = 1;
nodes = (
(335,710,l),
(377,710,l),
(510,834,l),
(448,834,l)
);
}
);
width = 626;
}
);
leftKerningGroup = public.kern2._O;
rightKerningGroup = public.kern1._O;
unicode = 211;
},
{
glyphname = Obreve;
layers = (
{
layerId = "5B161561-7DB5-4139-A0CA-38E113D4AFAB";
shapes = (
{
closed = 1;
nodes = (
(-3,112,o),
(106,-12,o),
(287,-12,cs),
(468,-12,o),
(631,117,o),
(670,314,cs),
(711,517,o),
(602,643,o),
(421,643,cs),
(240,643,o),
(78,512,o),
(38,314,cs)
);
},
{
closed = 1;
nodes = (
(237,449,o),
(315,519,o),
(393,519,cs),
(472,519,o),
(526,454,o),
(498,314,cs),
(472,179,o),
(394,113,o),
(316,113,cs),
(237,113,o),
(184,179,o),
(210,314,cs)
);
},
{
closed = 1;
nodes = (
(319,809,l),
(305,737,o),
(332,679,o),
(425,679,cs),
(509,679,o),
(566,726,o),
(582,809,c),
(497,809,l),
(491,779,o),
(471,764,o),
(443,764,cs),
(413,764,o),
(400,782,o),
(405,809,c)
);
}
);
width = 696;
},
{
layerId = "613EF1C7-735E-4737-B49D-EADCFD002D35";
shapes = (
{
closed = 1;
nodes = (
(-1,109,o),
(106,-11,o),
(284,-11,cs),
(462,-11,o),
(622,114,o),
(662,314,cs),
(703,519,o),
(596,642,o),
(418,642,cs),
(240,642,o),
(80,514,o),
(40,314,cs)
);
},
{
closed = 1;
nodes = (
(225,456,o),
(308,528,o),
(392,528,cs),
(477,528,o),
(534,461,o),
(505,314,cs),
(477,172,o),
(395,103,o),
(311,103,cs),
(226,103,o),
(169,172,o),
(197,314,cs)
);
},
{
closed = 1;
nodes = (
(317,814,l),
(303,744,o),
(330,685,o),
(423,685,cs),
(507,685,o),
(564,733,o),
(580,814,c),
(500,814,l),
(492,781,o),
(471,764,o),
(440,764,cs),
(405,764,o),
(393,784,o),
(398,814,c)
);
}
);
width = 690;
},
{
layerId = "06ABBA72-70F7-4001-AF7B-C55F8F698FE5";
shapes = (
{
closed = 1;
nodes = (
(5,100,o),
(105,-9,o),
(272,-9,cs),
(439,-9,o),
(588,105,o),
(630,315,cs),
(673,530,o),
(573,639,o),
(406,639,cs),
(239,639,o),
(90,525,o),
(48,315,cs)
);
},
{
closed = 1;
nodes = (
(180,485,o),
(279,565,o),
(387,565,cs),
(495,565,o),
(567,490,o),
(532,315,cs),
(498,145,o),
(399,65,o),
(291,65,cs),
(183,65,o),
(112,145,o),
(146,315,cs)
);
},
{
closed = 1;
nodes = (
(309,834,l),
(297,772,o),
(324,710,o),
(417,710,cs),
(501,710,o),
(559,762,o),
(573,834,c),
(512,834,l),
(498,789,o),
(473,764,o),
(428,764,cs),
(375,764,o),
(367,791,o),
(371,834,c)
);
}
);
width = 665;
},
{
layerId = "DC8CD3C6-3F63-4C25-A479-02CA28197BED";
shapes = (
{
closed = 1;
nodes = (
(5,100,o),
(104,-8,o),
(253,-8,cs),
(403,-8,o),
(549,105,o),
(591,315,cs),
(634,530,o),
(535,638,o),
(386,638,cs),
(236,638,o),
(90,525,o),
(48,315,cs)
);
},
{
closed = 1;
nodes = (
(139,506,o),
(257,596,o),
(373,596,cs),
(490,596,o),
(577,511,o),
(538,315,cs),
(500,124,o),
(381,34,o),
(265,34,cs),
(148,34,o),
(63,124,o),
(101,315,cs)
);
},
{
closed = 1;
nodes = (
(293,834,l),
(280,769,o),
(305,710,o),
(398,710,cs),
(482,710,o),
(542,762,o),
(556,834,c),
(509,834,l),
(497,781,o),
(457,750,o),
(406,750,cs),
(345,750,o),
(331,784,o),
(340,834,c)
);
}
);
width = 626;
}
);
leftKerningGroup = public.kern2._O;
rightKerningGroup = public.kern1._O;
unicode = 334;
},
{
glyphname = Ocircumflex;
layers = (
{
layerId = "5B161561-7DB5-4139-A0CA-38E113D4AFAB";
shapes = (
{
closed = 1;
nodes = (
(-3,112,o),
(106,-12,o),
(287,-12,cs),
(468,-12,o),
(631,117,o),
(670,314,cs),
(711,517,o),
(602,643,o),
(421,643,cs),
(240,643,o),
(78,512,o),
(38,314,cs)
);
},
{
closed = 1;
nodes = (
(237,449,o),
(315,519,o),
(393,519,cs),
(472,519,o),
(526,454,o),
(498,314,cs),
(472,179,o),
(394,113,o),
(316,113,cs),
(237,113,o),
(184,179,o),
(210,314,cs)
);
},
{
closed = 1;
nodes = (
(266,685,l),
(378,685,l),
(444,744,l),
(486,685,l),
(601,685,l),
(515,807,l),
(399,807,l)
);
}
);
width = 696;
},
{
layerId = "613EF1C7-735E-4737-B49D-EADCFD002D35";
shapes = (
{
closed = 1;
nodes = (
(-1,109,o),
(106,-11,o),
(284,-11,cs),
(462,-11,o),
(622,114,o),
(662,314,cs),
(703,519,o),
(596,642,o),
(418,642,cs),
(240,642,o),
(80,514,o),
(40,314,cs)
);
},
{
closed = 1;
nodes = (
(225,456,o),
(308,528,o),
(392,528,cs),
(477,528,o),
(534,461,o),
(505,314,cs),
(477,172,o),
(395,103,o),
(311,103,cs),
(226,103,o),
(169,172,o),
(197,314,cs)
);
},
{
closed = 1;
nodes = (
(266,690,l),
(370,690,l),
(442,754,l),
(488,690,l),
(596,690,l),
(508,814,l),
(401,814,l)
);
}
);
width = 690;
},
{
layerId = "06ABBA72-70F7-4001-AF7B-C55F8F698FE5";
shapes = (
{
closed = 1;
nodes = (
(5,100,o),
(105,-9,o),
(272,-9,cs),
(439,-9,o),
(588,105,o),
(630,315,cs),
(673,530,o),
(573,639,o),
(406,639,cs),
(239,639,o),
(90,525,o),
(48,315,cs)
);
},
{
closed = 1;
nodes = (
(180,485,o),
(279,565,o),
(387,565,cs),
(495,565,o),
(567,490,o),
(532,315,cs),
(498,145,o),
(399,65,o),
(291,65,cs),
(183,65,o),
(112,145,o),
(146,315,cs)
);
},
{
closed = 1;
nodes = (
(265,710,l),
(339,710,l),
(435,794,l),
(496,710,l),
(575,710,l),
(479,844,l),
(411,844,l)
);
}
);
width = 665;
},
{
layerId = "DC8CD3C6-3F63-4C25-A479-02CA28197BED";
shapes = (
{
closed = 1;
nodes = (
(5,100,o),
(104,-8,o),
(253,-8,cs),
(403,-8,o),
(549,105,o),
(591,315,cs),
(634,530,o),
(535,638,o),
(386,638,cs),
(236,638,o),
(90,525,o),
(48,315,cs)
);
},
{
closed = 1;
nodes = (
(139,506,o),
(257,596,o),
(373,596,cs),
(490,596,o),
(577,511,o),
(538,315,cs),
(500,124,o),
(381,34,o),
(265,34,cs),
(148,34,o),
(63,124,o),
(101,315,cs)
);
},
{
closed = 1;
nodes = (
(256,710,l),
(311,710,l),
(419,809,l),
(487,710,l),
(546,710,l),
(450,844,l),
(402,844,l)
);
}
);
width = 626;
}
);
leftKerningGroup = public.kern2._O;
rightKerningGroup = public.kern1._O;
unicode = 212;
},
